G04 EAGLE Gerber RS-274X export*
G75*
%MOMM*%
%FSLAX34Y34*%
%LPD*%
%INBottom Copper*%
%IPPOS*%
%AMOC8*
5,1,8,0,0,1.08239X$1,22.5*%
G01*
%ADD10P,1.429621X8X112.500000*%
%ADD11P,1.704548X8X112.500000*%
%ADD12C,1.574800*%
%ADD13C,1.320800*%
%ADD14C,1.524000*%
%ADD15C,5.000000*%
%ADD16C,0.304800*%

G36*
X430298Y-27936D02*
X430298Y-27936D01*
X430317Y-27938D01*
X430419Y-27916D01*
X430521Y-27900D01*
X430538Y-27890D01*
X430558Y-27886D01*
X430647Y-27833D01*
X430738Y-27784D01*
X430752Y-27770D01*
X430769Y-27760D01*
X430836Y-27681D01*
X430908Y-27606D01*
X430916Y-27588D01*
X430929Y-27573D01*
X430968Y-27477D01*
X431011Y-27383D01*
X431013Y-27363D01*
X431021Y-27345D01*
X431039Y-27178D01*
X431039Y420778D01*
X431036Y420798D01*
X431038Y420817D01*
X431016Y420919D01*
X431000Y421021D01*
X430990Y421038D01*
X430986Y421058D01*
X430933Y421147D01*
X430884Y421238D01*
X430870Y421252D01*
X430860Y421269D01*
X430781Y421336D01*
X430706Y421408D01*
X430688Y421416D01*
X430673Y421429D01*
X430577Y421468D01*
X430483Y421511D01*
X430463Y421513D01*
X430445Y421521D01*
X430278Y421539D01*
X118010Y421539D01*
X117939Y421528D01*
X117868Y421526D01*
X117819Y421508D01*
X117767Y421500D01*
X117704Y421466D01*
X117637Y421441D01*
X117596Y421409D01*
X117550Y421384D01*
X117501Y421332D01*
X117445Y421288D01*
X117416Y421244D01*
X117381Y421206D01*
X117350Y421141D01*
X117312Y421081D01*
X117299Y421030D01*
X117277Y420983D01*
X117269Y420912D01*
X117252Y420842D01*
X117256Y420790D01*
X117250Y420739D01*
X117265Y420669D01*
X117271Y420597D01*
X117291Y420549D01*
X117302Y420498D01*
X117339Y420437D01*
X117349Y420414D01*
X117349Y407978D01*
X117363Y407888D01*
X117371Y407797D01*
X117383Y407767D01*
X117388Y407735D01*
X117431Y407655D01*
X117467Y407571D01*
X117493Y407539D01*
X117504Y407518D01*
X117527Y407496D01*
X117572Y407440D01*
X119568Y405444D01*
X119584Y405432D01*
X119596Y405417D01*
X119684Y405361D01*
X119767Y405300D01*
X119786Y405295D01*
X119803Y405284D01*
X119904Y405258D01*
X120002Y405228D01*
X120022Y405229D01*
X120042Y405224D01*
X120145Y405232D01*
X120248Y405234D01*
X120267Y405241D01*
X120287Y405243D01*
X120382Y405283D01*
X120479Y405319D01*
X120495Y405331D01*
X120513Y405339D01*
X120644Y405444D01*
X122395Y407195D01*
X125383Y408433D01*
X128617Y408433D01*
X131605Y407195D01*
X133891Y404909D01*
X135129Y401921D01*
X135129Y385479D01*
X133891Y382491D01*
X131605Y380205D01*
X128617Y378967D01*
X125383Y378967D01*
X122395Y380205D01*
X120109Y382491D01*
X118871Y385479D01*
X118871Y397202D01*
X118857Y397292D01*
X118849Y397383D01*
X118837Y397413D01*
X118832Y397445D01*
X118789Y397525D01*
X118753Y397609D01*
X118727Y397641D01*
X118716Y397662D01*
X118693Y397684D01*
X118648Y397740D01*
X111251Y405137D01*
X111251Y415290D01*
X111248Y415310D01*
X111250Y415329D01*
X111228Y415431D01*
X111212Y415533D01*
X111202Y415550D01*
X111198Y415570D01*
X111145Y415659D01*
X111096Y415750D01*
X111082Y415764D01*
X111072Y415781D01*
X110993Y415848D01*
X110918Y415920D01*
X110900Y415928D01*
X110885Y415941D01*
X110789Y415980D01*
X110695Y416023D01*
X110675Y416025D01*
X110657Y416033D01*
X110490Y416051D01*
X90478Y416051D01*
X90388Y416037D01*
X90297Y416029D01*
X90267Y416017D01*
X90235Y416012D01*
X90155Y415969D01*
X90071Y415933D01*
X90039Y415907D01*
X90018Y415896D01*
X89996Y415873D01*
X89940Y415828D01*
X79472Y405360D01*
X79419Y405286D01*
X79359Y405217D01*
X79347Y405187D01*
X79328Y405160D01*
X79301Y405073D01*
X79267Y404989D01*
X79263Y404948D01*
X79256Y404925D01*
X79257Y404893D01*
X79249Y404822D01*
X79249Y367037D01*
X66772Y354560D01*
X66719Y354486D01*
X66659Y354417D01*
X66647Y354387D01*
X66628Y354360D01*
X66601Y354273D01*
X66567Y354189D01*
X66563Y354148D01*
X66556Y354125D01*
X66557Y354093D01*
X66549Y354022D01*
X66549Y278137D01*
X64540Y276128D01*
X59152Y270740D01*
X59099Y270666D01*
X59039Y270597D01*
X59027Y270567D01*
X59008Y270540D01*
X58981Y270453D01*
X58947Y270369D01*
X58943Y270328D01*
X58936Y270305D01*
X58937Y270273D01*
X58929Y270202D01*
X58929Y258479D01*
X57691Y255491D01*
X55405Y253205D01*
X52417Y251967D01*
X49183Y251967D01*
X46195Y253205D01*
X43909Y255491D01*
X42671Y258479D01*
X42671Y274921D01*
X43909Y277909D01*
X46195Y280195D01*
X49183Y281433D01*
X52417Y281433D01*
X55405Y280195D01*
X57156Y278444D01*
X57172Y278432D01*
X57184Y278417D01*
X57272Y278361D01*
X57356Y278300D01*
X57375Y278295D01*
X57391Y278284D01*
X57492Y278258D01*
X57591Y278228D01*
X57611Y278229D01*
X57630Y278224D01*
X57733Y278232D01*
X57837Y278234D01*
X57855Y278241D01*
X57875Y278243D01*
X57970Y278283D01*
X58068Y278319D01*
X58083Y278331D01*
X58101Y278339D01*
X58232Y278444D01*
X60228Y280440D01*
X60281Y280514D01*
X60341Y280583D01*
X60353Y280613D01*
X60372Y280640D01*
X60399Y280727D01*
X60433Y280811D01*
X60437Y280852D01*
X60444Y280875D01*
X60443Y280907D01*
X60451Y280978D01*
X60451Y331873D01*
X60436Y331969D01*
X60426Y332066D01*
X60416Y332090D01*
X60412Y332116D01*
X60366Y332202D01*
X60326Y332291D01*
X60309Y332310D01*
X60296Y332333D01*
X60226Y332400D01*
X60160Y332472D01*
X60137Y332484D01*
X60118Y332502D01*
X60030Y332543D01*
X59944Y332590D01*
X59919Y332595D01*
X59895Y332606D01*
X59798Y332617D01*
X59702Y332634D01*
X59676Y332630D01*
X59651Y332633D01*
X59555Y332612D01*
X59459Y332598D01*
X59436Y332586D01*
X59410Y332581D01*
X59327Y332531D01*
X59240Y332487D01*
X59221Y332468D01*
X59199Y332455D01*
X59136Y332381D01*
X59068Y332311D01*
X59052Y332283D01*
X59039Y332268D01*
X59027Y332237D01*
X58987Y332164D01*
X58904Y331964D01*
X57903Y330466D01*
X56630Y329193D01*
X55132Y328192D01*
X53467Y327503D01*
X52323Y327275D01*
X52323Y342138D01*
X52320Y342158D01*
X52322Y342177D01*
X52300Y342279D01*
X52283Y342381D01*
X52274Y342398D01*
X52270Y342418D01*
X52217Y342507D01*
X52168Y342598D01*
X52154Y342612D01*
X52144Y342629D01*
X52065Y342696D01*
X51990Y342767D01*
X51972Y342776D01*
X51957Y342789D01*
X51861Y342827D01*
X51767Y342871D01*
X51747Y342873D01*
X51729Y342881D01*
X51562Y342899D01*
X50799Y342899D01*
X50799Y342901D01*
X51562Y342901D01*
X51582Y342904D01*
X51601Y342902D01*
X51703Y342924D01*
X51805Y342941D01*
X51822Y342950D01*
X51842Y342954D01*
X51931Y343007D01*
X52022Y343056D01*
X52036Y343070D01*
X52053Y343080D01*
X52120Y343159D01*
X52191Y343234D01*
X52200Y343252D01*
X52213Y343267D01*
X52252Y343363D01*
X52295Y343457D01*
X52297Y343477D01*
X52305Y343495D01*
X52323Y343662D01*
X52323Y358525D01*
X53467Y358297D01*
X55132Y357608D01*
X56630Y356607D01*
X57903Y355334D01*
X58904Y353836D01*
X58987Y353636D01*
X59038Y353553D01*
X59084Y353467D01*
X59102Y353449D01*
X59116Y353427D01*
X59191Y353365D01*
X59262Y353298D01*
X59286Y353287D01*
X59306Y353270D01*
X59397Y353235D01*
X59485Y353194D01*
X59511Y353191D01*
X59535Y353182D01*
X59633Y353178D01*
X59729Y353167D01*
X59755Y353172D01*
X59781Y353171D01*
X59875Y353199D01*
X59970Y353219D01*
X59992Y353233D01*
X60017Y353240D01*
X60097Y353295D01*
X60181Y353345D01*
X60198Y353365D01*
X60219Y353380D01*
X60278Y353458D01*
X60341Y353532D01*
X60351Y353557D01*
X60366Y353578D01*
X60396Y353670D01*
X60433Y353760D01*
X60436Y353793D01*
X60442Y353811D01*
X60442Y353844D01*
X60451Y353927D01*
X60451Y356863D01*
X72928Y369340D01*
X72981Y369414D01*
X73041Y369483D01*
X73053Y369513D01*
X73072Y369540D01*
X73099Y369627D01*
X73133Y369711D01*
X73137Y369752D01*
X73144Y369775D01*
X73143Y369807D01*
X73151Y369878D01*
X73151Y407663D01*
X75160Y409672D01*
X85728Y420240D01*
X85770Y420298D01*
X85819Y420350D01*
X85841Y420397D01*
X85872Y420439D01*
X85893Y420508D01*
X85923Y420573D01*
X85929Y420625D01*
X85944Y420675D01*
X85942Y420746D01*
X85950Y420817D01*
X85939Y420868D01*
X85938Y420920D01*
X85913Y420988D01*
X85898Y421058D01*
X85871Y421103D01*
X85853Y421151D01*
X85808Y421207D01*
X85772Y421269D01*
X85732Y421303D01*
X85700Y421343D01*
X85639Y421382D01*
X85585Y421429D01*
X85536Y421448D01*
X85493Y421476D01*
X85423Y421494D01*
X85357Y421521D01*
X85285Y421529D01*
X85254Y421537D01*
X85231Y421535D01*
X85190Y421539D01*
X10922Y421539D01*
X10902Y421536D01*
X10883Y421538D01*
X10781Y421516D01*
X10679Y421500D01*
X10662Y421490D01*
X10642Y421486D01*
X10553Y421433D01*
X10462Y421384D01*
X10448Y421370D01*
X10431Y421360D01*
X10364Y421281D01*
X10292Y421206D01*
X10284Y421188D01*
X10271Y421173D01*
X10232Y421077D01*
X10189Y420983D01*
X10187Y420963D01*
X10179Y420945D01*
X10161Y420778D01*
X10161Y-27178D01*
X10164Y-27198D01*
X10162Y-27217D01*
X10184Y-27319D01*
X10200Y-27421D01*
X10210Y-27438D01*
X10214Y-27458D01*
X10267Y-27547D01*
X10316Y-27638D01*
X10330Y-27652D01*
X10340Y-27669D01*
X10419Y-27736D01*
X10494Y-27808D01*
X10512Y-27816D01*
X10527Y-27829D01*
X10623Y-27868D01*
X10717Y-27911D01*
X10737Y-27913D01*
X10755Y-27921D01*
X10922Y-27939D01*
X430278Y-27939D01*
X430298Y-27936D01*
G37*
%LPC*%
G36*
X376387Y39623D02*
X376387Y39623D01*
X373026Y41015D01*
X370453Y43588D01*
X369061Y46949D01*
X369061Y65827D01*
X370453Y69188D01*
X373026Y71761D01*
X376387Y73153D01*
X377190Y73153D01*
X377210Y73156D01*
X377229Y73154D01*
X377331Y73176D01*
X377433Y73192D01*
X377450Y73202D01*
X377470Y73206D01*
X377559Y73259D01*
X377650Y73308D01*
X377664Y73322D01*
X377681Y73332D01*
X377748Y73411D01*
X377820Y73486D01*
X377828Y73504D01*
X377841Y73519D01*
X377880Y73615D01*
X377923Y73709D01*
X377925Y73729D01*
X377933Y73747D01*
X377951Y73914D01*
X377951Y103886D01*
X377948Y103906D01*
X377950Y103925D01*
X377928Y104027D01*
X377912Y104129D01*
X377902Y104146D01*
X377898Y104166D01*
X377845Y104255D01*
X377796Y104346D01*
X377782Y104360D01*
X377772Y104377D01*
X377693Y104444D01*
X377618Y104516D01*
X377600Y104524D01*
X377585Y104537D01*
X377489Y104576D01*
X377395Y104619D01*
X377375Y104621D01*
X377357Y104629D01*
X377190Y104647D01*
X376387Y104647D01*
X373026Y106039D01*
X370453Y108612D01*
X369061Y111973D01*
X369061Y117602D01*
X369058Y117622D01*
X369060Y117641D01*
X369038Y117743D01*
X369022Y117845D01*
X369012Y117862D01*
X369008Y117882D01*
X368955Y117971D01*
X368906Y118062D01*
X368892Y118076D01*
X368882Y118093D01*
X368803Y118160D01*
X368728Y118232D01*
X368710Y118240D01*
X368695Y118253D01*
X368599Y118292D01*
X368505Y118335D01*
X368485Y118337D01*
X368467Y118345D01*
X368300Y118363D01*
X359925Y118363D01*
X352551Y125737D01*
X352551Y237490D01*
X352548Y237510D01*
X352550Y237529D01*
X352528Y237631D01*
X352512Y237733D01*
X352502Y237750D01*
X352498Y237770D01*
X352445Y237859D01*
X352396Y237950D01*
X352382Y237964D01*
X352372Y237981D01*
X352293Y238048D01*
X352218Y238120D01*
X352200Y238128D01*
X352185Y238141D01*
X352089Y238180D01*
X351995Y238223D01*
X351975Y238225D01*
X351957Y238233D01*
X351790Y238251D01*
X328937Y238251D01*
X327151Y240037D01*
X327151Y245238D01*
X327137Y245328D01*
X327129Y245419D01*
X327117Y245448D01*
X327112Y245480D01*
X327069Y245561D01*
X327033Y245645D01*
X327007Y245677D01*
X326996Y245698D01*
X326973Y245720D01*
X326928Y245776D01*
X321976Y250728D01*
X321902Y250781D01*
X321833Y250841D01*
X321802Y250853D01*
X321776Y250872D01*
X321689Y250899D01*
X321604Y250933D01*
X321563Y250937D01*
X321541Y250944D01*
X321509Y250943D01*
X321438Y250951D01*
X265437Y250951D01*
X238251Y278137D01*
X238251Y288290D01*
X238248Y288310D01*
X238250Y288329D01*
X238228Y288431D01*
X238212Y288533D01*
X238202Y288550D01*
X238198Y288570D01*
X238145Y288659D01*
X238096Y288750D01*
X238082Y288764D01*
X238072Y288781D01*
X237993Y288848D01*
X237918Y288920D01*
X237900Y288928D01*
X237885Y288941D01*
X237789Y288980D01*
X237695Y289023D01*
X237675Y289025D01*
X237657Y289033D01*
X237490Y289051D01*
X166678Y289051D01*
X166588Y289037D01*
X166497Y289029D01*
X166467Y289017D01*
X166435Y289012D01*
X166355Y288969D01*
X166271Y288933D01*
X166239Y288907D01*
X166218Y288896D01*
X166196Y288873D01*
X166140Y288828D01*
X157794Y280482D01*
X157782Y280466D01*
X157767Y280454D01*
X157711Y280366D01*
X157650Y280283D01*
X157645Y280264D01*
X157634Y280247D01*
X157608Y280146D01*
X157578Y280048D01*
X157579Y280028D01*
X157574Y280008D01*
X157582Y279905D01*
X157584Y279802D01*
X157591Y279783D01*
X157593Y279763D01*
X157633Y279668D01*
X157669Y279571D01*
X157681Y279555D01*
X157689Y279537D01*
X157794Y279406D01*
X159291Y277909D01*
X160529Y274921D01*
X160529Y258479D01*
X159291Y255491D01*
X157005Y253205D01*
X154017Y251967D01*
X150783Y251967D01*
X147795Y253205D01*
X145509Y255491D01*
X144271Y258479D01*
X144271Y274921D01*
X145509Y277909D01*
X147795Y280195D01*
X149513Y280907D01*
X149569Y280941D01*
X149629Y280967D01*
X149694Y281019D01*
X149722Y281036D01*
X149735Y281051D01*
X149760Y281072D01*
X151360Y282672D01*
X163837Y295149D01*
X242563Y295149D01*
X244349Y293363D01*
X244349Y280978D01*
X244363Y280888D01*
X244371Y280797D01*
X244383Y280767D01*
X244388Y280735D01*
X244431Y280655D01*
X244467Y280571D01*
X244493Y280539D01*
X244504Y280518D01*
X244527Y280496D01*
X244572Y280440D01*
X267740Y257272D01*
X267814Y257219D01*
X267883Y257159D01*
X267913Y257147D01*
X267940Y257128D01*
X268027Y257101D01*
X268111Y257067D01*
X268152Y257063D01*
X268175Y257056D01*
X268207Y257057D01*
X268278Y257049D01*
X321438Y257049D01*
X321528Y257063D01*
X321619Y257071D01*
X321648Y257083D01*
X321680Y257088D01*
X321761Y257131D01*
X321845Y257167D01*
X321877Y257193D01*
X321898Y257204D01*
X321920Y257227D01*
X321976Y257272D01*
X326833Y262129D01*
X333567Y262129D01*
X338329Y257367D01*
X338329Y250633D01*
X333472Y245776D01*
X333419Y245702D01*
X333359Y245633D01*
X333347Y245602D01*
X333328Y245576D01*
X333301Y245489D01*
X333267Y245404D01*
X333263Y245363D01*
X333256Y245341D01*
X333257Y245309D01*
X333249Y245238D01*
X333249Y245110D01*
X333252Y245090D01*
X333250Y245071D01*
X333272Y244969D01*
X333288Y244867D01*
X333298Y244850D01*
X333302Y244830D01*
X333355Y244741D01*
X333404Y244650D01*
X333418Y244636D01*
X333428Y244619D01*
X333507Y244552D01*
X333582Y244480D01*
X333600Y244472D01*
X333615Y244459D01*
X333711Y244420D01*
X333805Y244377D01*
X333825Y244375D01*
X333843Y244367D01*
X334010Y244349D01*
X356863Y244349D01*
X358649Y242563D01*
X358649Y128578D01*
X358663Y128488D01*
X358671Y128397D01*
X358683Y128367D01*
X358688Y128335D01*
X358731Y128255D01*
X358767Y128171D01*
X358793Y128139D01*
X358804Y128118D01*
X358827Y128096D01*
X358872Y128040D01*
X362228Y124684D01*
X362302Y124631D01*
X362371Y124571D01*
X362401Y124559D01*
X362428Y124540D01*
X362515Y124513D01*
X362599Y124479D01*
X362640Y124475D01*
X362663Y124468D01*
X362695Y124469D01*
X362766Y124461D01*
X368300Y124461D01*
X368320Y124464D01*
X368339Y124462D01*
X368441Y124484D01*
X368543Y124500D01*
X368560Y124510D01*
X368580Y124514D01*
X368669Y124567D01*
X368760Y124616D01*
X368774Y124630D01*
X368791Y124640D01*
X368858Y124719D01*
X368930Y124794D01*
X368938Y124812D01*
X368951Y124827D01*
X368990Y124923D01*
X369033Y125017D01*
X369035Y125037D01*
X369043Y125055D01*
X369061Y125222D01*
X369061Y130851D01*
X370453Y134212D01*
X373026Y136785D01*
X376387Y138177D01*
X380025Y138177D01*
X383386Y136785D01*
X385959Y134212D01*
X387351Y130851D01*
X387351Y111973D01*
X385959Y108612D01*
X384272Y106925D01*
X384219Y106851D01*
X384159Y106782D01*
X384147Y106752D01*
X384128Y106725D01*
X384101Y106638D01*
X384067Y106554D01*
X384063Y106513D01*
X384056Y106490D01*
X384057Y106458D01*
X384049Y106387D01*
X384049Y71413D01*
X384063Y71323D01*
X384071Y71232D01*
X384083Y71202D01*
X384088Y71170D01*
X384131Y71090D01*
X384167Y71006D01*
X384193Y70974D01*
X384204Y70953D01*
X384227Y70931D01*
X384272Y70875D01*
X385959Y69188D01*
X387351Y65827D01*
X387351Y46949D01*
X385959Y43588D01*
X383386Y41015D01*
X380025Y39623D01*
X376387Y39623D01*
G37*
%LPD*%
%LPC*%
G36*
X364933Y245871D02*
X364933Y245871D01*
X360171Y250633D01*
X360171Y257367D01*
X365028Y262224D01*
X365081Y262298D01*
X365141Y262367D01*
X365153Y262398D01*
X365172Y262424D01*
X365199Y262511D01*
X365233Y262596D01*
X365237Y262637D01*
X365244Y262659D01*
X365243Y262691D01*
X365251Y262762D01*
X365251Y300990D01*
X365248Y301010D01*
X365250Y301029D01*
X365228Y301131D01*
X365212Y301233D01*
X365202Y301250D01*
X365198Y301270D01*
X365145Y301359D01*
X365096Y301450D01*
X365082Y301464D01*
X365072Y301481D01*
X364993Y301548D01*
X364918Y301620D01*
X364900Y301628D01*
X364885Y301641D01*
X364789Y301680D01*
X364695Y301723D01*
X364675Y301725D01*
X364657Y301733D01*
X364490Y301751D01*
X153978Y301751D01*
X153888Y301737D01*
X153797Y301729D01*
X153767Y301717D01*
X153735Y301712D01*
X153655Y301669D01*
X153571Y301633D01*
X153539Y301607D01*
X153518Y301596D01*
X153496Y301573D01*
X153440Y301528D01*
X132394Y280482D01*
X132382Y280466D01*
X132367Y280454D01*
X132311Y280366D01*
X132250Y280283D01*
X132245Y280264D01*
X132234Y280247D01*
X132208Y280146D01*
X132178Y280048D01*
X132179Y280028D01*
X132174Y280008D01*
X132182Y279905D01*
X132184Y279802D01*
X132191Y279783D01*
X132193Y279763D01*
X132233Y279668D01*
X132269Y279571D01*
X132281Y279555D01*
X132289Y279537D01*
X132394Y279406D01*
X133891Y277909D01*
X135129Y274921D01*
X135129Y258479D01*
X133891Y255491D01*
X131605Y253205D01*
X128617Y251967D01*
X125383Y251967D01*
X122395Y253205D01*
X120109Y255491D01*
X118871Y258479D01*
X118871Y274921D01*
X120109Y277909D01*
X122395Y280195D01*
X124113Y280907D01*
X124169Y280941D01*
X124229Y280967D01*
X124294Y281019D01*
X124322Y281036D01*
X124335Y281051D01*
X124360Y281072D01*
X125960Y282672D01*
X151137Y307849D01*
X261581Y307849D01*
X261652Y307860D01*
X261723Y307862D01*
X261772Y307880D01*
X261824Y307888D01*
X261887Y307922D01*
X261954Y307947D01*
X261995Y307979D01*
X262041Y308004D01*
X262090Y308056D01*
X262146Y308100D01*
X262175Y308144D01*
X262210Y308182D01*
X262241Y308247D01*
X262279Y308307D01*
X262292Y308358D01*
X262314Y308405D01*
X262322Y308476D01*
X262339Y308546D01*
X262335Y308598D01*
X262341Y308649D01*
X262326Y308720D01*
X262320Y308791D01*
X262300Y308839D01*
X262289Y308890D01*
X262252Y308951D01*
X262224Y309017D01*
X262179Y309073D01*
X262163Y309101D01*
X262145Y309116D01*
X262119Y309148D01*
X257555Y313712D01*
X257555Y315977D01*
X265938Y315977D01*
X265958Y315980D01*
X265977Y315978D01*
X266079Y316000D01*
X266181Y316017D01*
X266198Y316026D01*
X266218Y316030D01*
X266307Y316083D01*
X266398Y316132D01*
X266412Y316146D01*
X266429Y316156D01*
X266496Y316235D01*
X266567Y316310D01*
X266576Y316328D01*
X266589Y316343D01*
X266627Y316439D01*
X266671Y316533D01*
X266673Y316553D01*
X266681Y316571D01*
X266699Y316738D01*
X266699Y317501D01*
X266701Y317501D01*
X266701Y316738D01*
X266704Y316718D01*
X266702Y316699D01*
X266724Y316597D01*
X266741Y316495D01*
X266750Y316478D01*
X266754Y316458D01*
X266807Y316369D01*
X266856Y316278D01*
X266870Y316264D01*
X266880Y316247D01*
X266959Y316180D01*
X267034Y316109D01*
X267052Y316100D01*
X267067Y316087D01*
X267163Y316048D01*
X267257Y316005D01*
X267277Y316003D01*
X267295Y315995D01*
X267462Y315977D01*
X275845Y315977D01*
X275845Y313712D01*
X271281Y309148D01*
X271239Y309090D01*
X271190Y309038D01*
X271168Y308991D01*
X271137Y308949D01*
X271116Y308880D01*
X271086Y308815D01*
X271080Y308763D01*
X271065Y308713D01*
X271067Y308642D01*
X271059Y308571D01*
X271070Y308520D01*
X271071Y308468D01*
X271096Y308400D01*
X271111Y308330D01*
X271138Y308285D01*
X271156Y308237D01*
X271201Y308181D01*
X271237Y308119D01*
X271277Y308085D01*
X271309Y308045D01*
X271370Y308006D01*
X271424Y307959D01*
X271473Y307940D01*
X271516Y307912D01*
X271586Y307894D01*
X271652Y307867D01*
X271724Y307859D01*
X271755Y307851D01*
X271778Y307853D01*
X271819Y307849D01*
X369563Y307849D01*
X371349Y306063D01*
X371349Y262762D01*
X371363Y262672D01*
X371371Y262581D01*
X371383Y262552D01*
X371388Y262520D01*
X371431Y262439D01*
X371467Y262355D01*
X371493Y262323D01*
X371504Y262302D01*
X371527Y262280D01*
X371572Y262224D01*
X376429Y257367D01*
X376429Y250633D01*
X371667Y245871D01*
X364933Y245871D01*
G37*
%LPD*%
%LPC*%
G36*
X229575Y39623D02*
X229575Y39623D01*
X226214Y41015D01*
X223641Y43588D01*
X222249Y46949D01*
X222249Y65827D01*
X223641Y69188D01*
X226214Y71761D01*
X227875Y72449D01*
X227975Y72510D01*
X228075Y72570D01*
X228079Y72575D01*
X228084Y72578D01*
X228159Y72668D01*
X228235Y72757D01*
X228237Y72763D01*
X228241Y72768D01*
X228283Y72876D01*
X228327Y72985D01*
X228328Y72993D01*
X228329Y72997D01*
X228330Y73016D01*
X228345Y73152D01*
X228345Y95196D01*
X228334Y95267D01*
X228332Y95338D01*
X228314Y95387D01*
X228306Y95439D01*
X228272Y95502D01*
X228247Y95569D01*
X228215Y95610D01*
X228190Y95656D01*
X228139Y95705D01*
X228094Y95761D01*
X228050Y95790D01*
X228012Y95825D01*
X227947Y95856D01*
X227887Y95894D01*
X227836Y95907D01*
X227789Y95929D01*
X227718Y95937D01*
X227648Y95954D01*
X227596Y95950D01*
X227545Y95956D01*
X227474Y95941D01*
X227403Y95935D01*
X227355Y95915D01*
X227304Y95904D01*
X227243Y95867D01*
X227177Y95839D01*
X227121Y95794D01*
X227093Y95778D01*
X227078Y95760D01*
X227046Y95734D01*
X219172Y87860D01*
X217163Y85851D01*
X163837Y85851D01*
X149351Y100337D01*
X149351Y138122D01*
X149337Y138212D01*
X149329Y138303D01*
X149317Y138333D01*
X149312Y138365D01*
X149269Y138445D01*
X149233Y138529D01*
X149207Y138561D01*
X149196Y138582D01*
X149173Y138604D01*
X149128Y138660D01*
X143740Y144048D01*
X143666Y144101D01*
X143597Y144161D01*
X143567Y144173D01*
X143540Y144192D01*
X143453Y144219D01*
X143369Y144253D01*
X143328Y144257D01*
X143305Y144264D01*
X143273Y144263D01*
X143202Y144271D01*
X136333Y144271D01*
X131571Y149033D01*
X131571Y155767D01*
X136333Y160529D01*
X143067Y160529D01*
X147829Y155767D01*
X147829Y148898D01*
X147843Y148808D01*
X147851Y148717D01*
X147863Y148687D01*
X147868Y148655D01*
X147911Y148575D01*
X147947Y148491D01*
X147973Y148459D01*
X147984Y148438D01*
X148007Y148416D01*
X148052Y148360D01*
X153440Y142972D01*
X155449Y140963D01*
X155449Y103178D01*
X155463Y103088D01*
X155471Y102997D01*
X155483Y102967D01*
X155488Y102935D01*
X155531Y102855D01*
X155567Y102771D01*
X155593Y102739D01*
X155604Y102718D01*
X155627Y102696D01*
X155672Y102640D01*
X166140Y92172D01*
X166214Y92119D01*
X166283Y92059D01*
X166313Y92047D01*
X166340Y92028D01*
X166427Y92001D01*
X166511Y91967D01*
X166552Y91963D01*
X166575Y91956D01*
X166607Y91957D01*
X166678Y91949D01*
X214322Y91949D01*
X214412Y91963D01*
X214503Y91971D01*
X214533Y91983D01*
X214565Y91988D01*
X214645Y92031D01*
X214729Y92067D01*
X214761Y92093D01*
X214782Y92104D01*
X214804Y92127D01*
X214860Y92172D01*
X227186Y104498D01*
X227213Y104535D01*
X227247Y104566D01*
X227284Y104634D01*
X227330Y104697D01*
X227343Y104741D01*
X227365Y104781D01*
X227379Y104858D01*
X227402Y104932D01*
X227401Y104978D01*
X227409Y105023D01*
X227398Y105100D01*
X227396Y105178D01*
X227380Y105221D01*
X227373Y105267D01*
X227338Y105336D01*
X227311Y105409D01*
X227282Y105445D01*
X227262Y105486D01*
X227206Y105541D01*
X227157Y105601D01*
X227119Y105626D01*
X227086Y105658D01*
X226966Y105724D01*
X226950Y105734D01*
X226946Y105736D01*
X226939Y105739D01*
X226214Y106039D01*
X223641Y108612D01*
X222249Y111973D01*
X222249Y130851D01*
X223641Y134212D01*
X226214Y136785D01*
X229575Y138177D01*
X233213Y138177D01*
X236574Y136785D01*
X239147Y134212D01*
X240539Y130851D01*
X240539Y111973D01*
X239147Y108612D01*
X236574Y106039D01*
X234913Y105351D01*
X234813Y105290D01*
X234713Y105230D01*
X234709Y105225D01*
X234704Y105222D01*
X234629Y105132D01*
X234553Y105043D01*
X234551Y105037D01*
X234547Y105032D01*
X234505Y104924D01*
X234461Y104815D01*
X234460Y104807D01*
X234459Y104803D01*
X234458Y104784D01*
X234443Y104648D01*
X234443Y73152D01*
X234462Y73037D01*
X234479Y72921D01*
X234481Y72915D01*
X234482Y72909D01*
X234537Y72807D01*
X234590Y72702D01*
X234595Y72697D01*
X234598Y72692D01*
X234682Y72612D01*
X234766Y72530D01*
X234772Y72526D01*
X234776Y72523D01*
X234793Y72515D01*
X234913Y72449D01*
X236574Y71761D01*
X239147Y69188D01*
X240539Y65827D01*
X240539Y46949D01*
X239147Y43588D01*
X236574Y41015D01*
X233213Y39623D01*
X229575Y39623D01*
G37*
%LPD*%
%LPC*%
G36*
X390256Y367537D02*
X390256Y367537D01*
X383602Y369320D01*
X377636Y372765D01*
X372765Y377636D01*
X369320Y383602D01*
X367537Y390256D01*
X367537Y397144D01*
X369320Y403798D01*
X372765Y409764D01*
X377636Y414635D01*
X383602Y418080D01*
X390256Y419863D01*
X397144Y419863D01*
X403798Y418080D01*
X409764Y414635D01*
X414635Y409764D01*
X418080Y403798D01*
X419863Y397144D01*
X419863Y390256D01*
X418080Y383602D01*
X414635Y377636D01*
X409764Y372765D01*
X403798Y369320D01*
X397144Y367537D01*
X390256Y367537D01*
G37*
%LPD*%
%LPC*%
G36*
X34656Y367537D02*
X34656Y367537D01*
X28002Y369320D01*
X22036Y372765D01*
X17165Y377636D01*
X13720Y383602D01*
X11937Y390256D01*
X11937Y397144D01*
X13720Y403798D01*
X17165Y409764D01*
X22036Y414635D01*
X28002Y418080D01*
X34656Y419863D01*
X41544Y419863D01*
X48198Y418080D01*
X54164Y414635D01*
X59035Y409764D01*
X62480Y403798D01*
X64263Y397144D01*
X64263Y390256D01*
X62480Y383602D01*
X59035Y377636D01*
X54164Y372765D01*
X48198Y369320D01*
X41544Y367537D01*
X34656Y367537D01*
G37*
%LPD*%
%LPC*%
G36*
X34656Y-26163D02*
X34656Y-26163D01*
X28002Y-24380D01*
X22036Y-20935D01*
X17165Y-16064D01*
X13720Y-10098D01*
X11937Y-3444D01*
X11937Y3444D01*
X13720Y10098D01*
X17165Y16064D01*
X22036Y20935D01*
X28002Y24380D01*
X34656Y26163D01*
X41544Y26163D01*
X48198Y24380D01*
X54164Y20935D01*
X59035Y16064D01*
X62480Y10098D01*
X64263Y3444D01*
X64263Y-3444D01*
X62480Y-10098D01*
X59035Y-16064D01*
X54164Y-20935D01*
X48198Y-24380D01*
X41544Y-26163D01*
X34656Y-26163D01*
G37*
%LPD*%
%LPC*%
G36*
X390256Y-26163D02*
X390256Y-26163D01*
X383602Y-24380D01*
X377636Y-20935D01*
X372765Y-16064D01*
X369320Y-10098D01*
X367537Y-3444D01*
X367537Y3444D01*
X369320Y10098D01*
X372765Y16064D01*
X377636Y20935D01*
X383602Y24380D01*
X390256Y26163D01*
X397144Y26163D01*
X403798Y24380D01*
X409764Y20935D01*
X414635Y16064D01*
X418080Y10098D01*
X419863Y3444D01*
X419863Y-3444D01*
X418080Y-10098D01*
X414635Y-16064D01*
X409764Y-20935D01*
X403798Y-24380D01*
X397144Y-26163D01*
X390256Y-26163D01*
G37*
%LPD*%
%LPC*%
G36*
X60133Y220471D02*
X60133Y220471D01*
X55371Y225233D01*
X55371Y231967D01*
X60133Y236729D01*
X66867Y236729D01*
X71724Y231872D01*
X71798Y231819D01*
X71867Y231759D01*
X71898Y231747D01*
X71924Y231728D01*
X72011Y231701D01*
X72096Y231667D01*
X72137Y231663D01*
X72159Y231656D01*
X72191Y231657D01*
X72262Y231649D01*
X92838Y231649D01*
X92928Y231663D01*
X93019Y231671D01*
X93048Y231683D01*
X93080Y231688D01*
X93161Y231731D01*
X93245Y231767D01*
X93277Y231793D01*
X93298Y231804D01*
X93320Y231827D01*
X93376Y231872D01*
X98233Y236729D01*
X104967Y236729D01*
X109824Y231872D01*
X109898Y231819D01*
X109967Y231759D01*
X109998Y231747D01*
X110024Y231728D01*
X110111Y231701D01*
X110196Y231667D01*
X110237Y231663D01*
X110259Y231656D01*
X110291Y231657D01*
X110362Y231649D01*
X130938Y231649D01*
X131028Y231663D01*
X131119Y231671D01*
X131148Y231683D01*
X131180Y231688D01*
X131261Y231731D01*
X131345Y231767D01*
X131377Y231793D01*
X131398Y231804D01*
X131420Y231827D01*
X131476Y231872D01*
X136333Y236729D01*
X143067Y236729D01*
X147924Y231872D01*
X147998Y231819D01*
X148067Y231759D01*
X148098Y231747D01*
X148124Y231728D01*
X148211Y231701D01*
X148296Y231667D01*
X148337Y231663D01*
X148359Y231656D01*
X148391Y231657D01*
X148462Y231649D01*
X169038Y231649D01*
X169128Y231663D01*
X169219Y231671D01*
X169248Y231683D01*
X169280Y231688D01*
X169361Y231731D01*
X169445Y231767D01*
X169477Y231793D01*
X169498Y231804D01*
X169520Y231827D01*
X169576Y231872D01*
X174433Y236729D01*
X181167Y236729D01*
X186024Y231872D01*
X186098Y231819D01*
X186167Y231759D01*
X186198Y231747D01*
X186224Y231728D01*
X186311Y231701D01*
X186396Y231667D01*
X186437Y231663D01*
X186459Y231656D01*
X186491Y231657D01*
X186562Y231649D01*
X224790Y231649D01*
X224810Y231652D01*
X224829Y231650D01*
X224931Y231672D01*
X225033Y231688D01*
X225050Y231698D01*
X225070Y231702D01*
X225159Y231755D01*
X225250Y231804D01*
X225264Y231818D01*
X225281Y231828D01*
X225348Y231907D01*
X225420Y231982D01*
X225428Y232000D01*
X225441Y232015D01*
X225480Y232111D01*
X225523Y232205D01*
X225525Y232225D01*
X225533Y232243D01*
X225551Y232410D01*
X225551Y252052D01*
X225532Y252166D01*
X225515Y252283D01*
X225513Y252288D01*
X225512Y252294D01*
X225457Y252397D01*
X225404Y252502D01*
X225399Y252506D01*
X225396Y252512D01*
X225312Y252592D01*
X225228Y252674D01*
X225222Y252678D01*
X225218Y252681D01*
X225201Y252689D01*
X225081Y252755D01*
X223995Y253205D01*
X221709Y255491D01*
X220471Y258479D01*
X220471Y274921D01*
X221709Y277909D01*
X223995Y280195D01*
X226983Y281433D01*
X230217Y281433D01*
X233205Y280195D01*
X235491Y277909D01*
X236729Y274921D01*
X236729Y258479D01*
X235491Y255491D01*
X233205Y253205D01*
X232119Y252755D01*
X232019Y252693D01*
X231919Y252633D01*
X231915Y252629D01*
X231910Y252625D01*
X231835Y252535D01*
X231759Y252447D01*
X231757Y252441D01*
X231753Y252436D01*
X231711Y252328D01*
X231667Y252218D01*
X231666Y252211D01*
X231665Y252206D01*
X231664Y252188D01*
X231649Y252052D01*
X231649Y227337D01*
X229863Y225551D01*
X186562Y225551D01*
X186472Y225537D01*
X186381Y225529D01*
X186352Y225517D01*
X186320Y225512D01*
X186239Y225469D01*
X186155Y225433D01*
X186123Y225407D01*
X186102Y225396D01*
X186080Y225373D01*
X186024Y225328D01*
X181167Y220471D01*
X174433Y220471D01*
X169576Y225328D01*
X169502Y225381D01*
X169433Y225441D01*
X169402Y225453D01*
X169376Y225472D01*
X169289Y225499D01*
X169204Y225533D01*
X169163Y225537D01*
X169141Y225544D01*
X169109Y225543D01*
X169038Y225551D01*
X148462Y225551D01*
X148372Y225537D01*
X148281Y225529D01*
X148252Y225517D01*
X148220Y225512D01*
X148139Y225469D01*
X148055Y225433D01*
X148023Y225407D01*
X148002Y225396D01*
X147980Y225373D01*
X147924Y225328D01*
X143067Y220471D01*
X136333Y220471D01*
X131476Y225328D01*
X131402Y225381D01*
X131333Y225441D01*
X131302Y225453D01*
X131276Y225472D01*
X131189Y225499D01*
X131104Y225533D01*
X131063Y225537D01*
X131041Y225544D01*
X131009Y225543D01*
X130938Y225551D01*
X110362Y225551D01*
X110272Y225537D01*
X110181Y225529D01*
X110152Y225517D01*
X110120Y225512D01*
X110039Y225469D01*
X109955Y225433D01*
X109923Y225407D01*
X109902Y225396D01*
X109880Y225373D01*
X109824Y225328D01*
X104967Y220471D01*
X98233Y220471D01*
X93376Y225328D01*
X93302Y225381D01*
X93233Y225441D01*
X93202Y225453D01*
X93176Y225472D01*
X93089Y225499D01*
X93004Y225533D01*
X92963Y225537D01*
X92941Y225544D01*
X92909Y225543D01*
X92838Y225551D01*
X72262Y225551D01*
X72172Y225537D01*
X72081Y225529D01*
X72052Y225517D01*
X72020Y225512D01*
X71939Y225469D01*
X71855Y225433D01*
X71823Y225407D01*
X71802Y225396D01*
X71780Y225373D01*
X71724Y225328D01*
X66867Y220471D01*
X60133Y220471D01*
G37*
%LPD*%
%LPC*%
G36*
X99983Y328167D02*
X99983Y328167D01*
X96995Y329405D01*
X94709Y331691D01*
X93471Y334679D01*
X93471Y351121D01*
X94709Y354109D01*
X96995Y356395D01*
X98713Y357107D01*
X98769Y357141D01*
X98829Y357167D01*
X98894Y357219D01*
X98922Y357236D01*
X98935Y357251D01*
X98960Y357272D01*
X107957Y366269D01*
X173990Y366269D01*
X174010Y366272D01*
X174029Y366270D01*
X174131Y366292D01*
X174233Y366308D01*
X174250Y366318D01*
X174270Y366322D01*
X174359Y366375D01*
X174450Y366424D01*
X174464Y366438D01*
X174481Y366448D01*
X174548Y366527D01*
X174620Y366602D01*
X174628Y366620D01*
X174641Y366635D01*
X174680Y366731D01*
X174723Y366825D01*
X174725Y366845D01*
X174733Y366863D01*
X174751Y367030D01*
X174751Y379052D01*
X174732Y379166D01*
X174715Y379283D01*
X174713Y379288D01*
X174712Y379294D01*
X174657Y379397D01*
X174604Y379502D01*
X174599Y379506D01*
X174596Y379512D01*
X174512Y379592D01*
X174428Y379674D01*
X174422Y379678D01*
X174418Y379681D01*
X174401Y379689D01*
X174281Y379755D01*
X173195Y380205D01*
X170909Y382491D01*
X169671Y385479D01*
X169671Y401921D01*
X170909Y404909D01*
X173195Y407195D01*
X176183Y408433D01*
X179417Y408433D01*
X182405Y407195D01*
X184691Y404909D01*
X185929Y401921D01*
X185929Y385479D01*
X184691Y382491D01*
X182405Y380205D01*
X181319Y379755D01*
X181219Y379693D01*
X181119Y379633D01*
X181115Y379629D01*
X181110Y379625D01*
X181035Y379535D01*
X180959Y379447D01*
X180957Y379441D01*
X180953Y379436D01*
X180911Y379328D01*
X180867Y379218D01*
X180866Y379211D01*
X180865Y379206D01*
X180864Y379188D01*
X180849Y379052D01*
X180849Y361957D01*
X179063Y360171D01*
X110798Y360171D01*
X110708Y360157D01*
X110617Y360149D01*
X110587Y360137D01*
X110555Y360132D01*
X110475Y360089D01*
X110391Y360053D01*
X110359Y360027D01*
X110338Y360016D01*
X110316Y359993D01*
X110260Y359948D01*
X106994Y356682D01*
X106982Y356666D01*
X106967Y356654D01*
X106911Y356567D01*
X106850Y356483D01*
X106845Y356464D01*
X106834Y356447D01*
X106808Y356346D01*
X106778Y356248D01*
X106779Y356228D01*
X106774Y356208D01*
X106782Y356105D01*
X106784Y356002D01*
X106791Y355983D01*
X106793Y355963D01*
X106833Y355868D01*
X106869Y355771D01*
X106881Y355755D01*
X106889Y355737D01*
X106994Y355606D01*
X108491Y354109D01*
X109729Y351121D01*
X109729Y334679D01*
X108491Y331691D01*
X106205Y329405D01*
X103217Y328167D01*
X99983Y328167D01*
G37*
%LPD*%
%LPC*%
G36*
X74583Y328167D02*
X74583Y328167D01*
X71595Y329405D01*
X69309Y331691D01*
X68071Y334679D01*
X68071Y351121D01*
X69309Y354109D01*
X71595Y356395D01*
X74583Y357633D01*
X77817Y357633D01*
X80878Y356365D01*
X80992Y356338D01*
X81106Y356309D01*
X81112Y356310D01*
X81118Y356308D01*
X81235Y356319D01*
X81351Y356328D01*
X81356Y356331D01*
X81363Y356332D01*
X81470Y356379D01*
X81577Y356425D01*
X81583Y356429D01*
X81588Y356432D01*
X81601Y356444D01*
X81708Y356530D01*
X101607Y376429D01*
X147012Y376429D01*
X147102Y376443D01*
X147193Y376451D01*
X147223Y376463D01*
X147255Y376468D01*
X147335Y376511D01*
X147419Y376547D01*
X147451Y376573D01*
X147472Y376584D01*
X147494Y376607D01*
X147550Y376652D01*
X149128Y378230D01*
X149181Y378304D01*
X149241Y378373D01*
X149253Y378403D01*
X149272Y378430D01*
X149299Y378517D01*
X149333Y378601D01*
X149337Y378642D01*
X149344Y378665D01*
X149343Y378697D01*
X149351Y378768D01*
X149351Y379052D01*
X149332Y379166D01*
X149315Y379283D01*
X149313Y379288D01*
X149312Y379294D01*
X149257Y379397D01*
X149204Y379502D01*
X149199Y379506D01*
X149196Y379512D01*
X149112Y379592D01*
X149028Y379674D01*
X149022Y379678D01*
X149018Y379681D01*
X149001Y379689D01*
X148881Y379755D01*
X147795Y380205D01*
X145509Y382491D01*
X144271Y385479D01*
X144271Y401921D01*
X145509Y404909D01*
X147795Y407195D01*
X150783Y408433D01*
X154017Y408433D01*
X157005Y407195D01*
X159291Y404909D01*
X160529Y401921D01*
X160529Y385479D01*
X159291Y382491D01*
X157005Y380205D01*
X155919Y379755D01*
X155819Y379693D01*
X155719Y379633D01*
X155715Y379629D01*
X155710Y379625D01*
X155635Y379535D01*
X155559Y379447D01*
X155557Y379441D01*
X155553Y379436D01*
X155511Y379328D01*
X155467Y379218D01*
X155466Y379211D01*
X155465Y379206D01*
X155464Y379188D01*
X155449Y379052D01*
X155449Y375927D01*
X149853Y370331D01*
X104448Y370331D01*
X104358Y370317D01*
X104267Y370309D01*
X104237Y370297D01*
X104205Y370292D01*
X104125Y370249D01*
X104041Y370213D01*
X104009Y370187D01*
X103988Y370176D01*
X103966Y370153D01*
X103910Y370108D01*
X84552Y350750D01*
X84499Y350676D01*
X84439Y350607D01*
X84427Y350577D01*
X84408Y350550D01*
X84381Y350463D01*
X84347Y350379D01*
X84343Y350338D01*
X84336Y350315D01*
X84337Y350283D01*
X84329Y350212D01*
X84329Y334679D01*
X83091Y331691D01*
X80805Y329405D01*
X77817Y328167D01*
X74583Y328167D01*
G37*
%LPD*%
%LPC*%
G36*
X212049Y146049D02*
X212049Y146049D01*
X208688Y147441D01*
X206115Y150014D01*
X204723Y153375D01*
X204723Y157013D01*
X206115Y160374D01*
X208688Y162947D01*
X212049Y164339D01*
X230927Y164339D01*
X234288Y162947D01*
X236861Y160374D01*
X238253Y157013D01*
X238253Y153375D01*
X236861Y150014D01*
X234288Y147441D01*
X230927Y146049D01*
X212049Y146049D01*
G37*
%LPD*%
%LPC*%
G36*
X277073Y146049D02*
X277073Y146049D01*
X273712Y147441D01*
X271139Y150014D01*
X269747Y153375D01*
X269747Y157013D01*
X271139Y160374D01*
X273712Y162947D01*
X277073Y164339D01*
X295951Y164339D01*
X299312Y162947D01*
X301885Y160374D01*
X303277Y157013D01*
X303277Y153375D01*
X301885Y150014D01*
X299312Y147441D01*
X295951Y146049D01*
X277073Y146049D01*
G37*
%LPD*%
%LPC*%
G36*
X173187Y104647D02*
X173187Y104647D01*
X169826Y106039D01*
X167253Y108612D01*
X165861Y111973D01*
X165861Y130851D01*
X167253Y134212D01*
X169826Y136785D01*
X173187Y138177D01*
X176825Y138177D01*
X180186Y136785D01*
X182759Y134212D01*
X184151Y130851D01*
X184151Y111973D01*
X182759Y108612D01*
X180186Y106039D01*
X176825Y104647D01*
X173187Y104647D01*
G37*
%LPD*%
%LPC*%
G36*
X96987Y104647D02*
X96987Y104647D01*
X93626Y106039D01*
X91053Y108612D01*
X89661Y111973D01*
X89661Y130851D01*
X91053Y134212D01*
X93626Y136785D01*
X96987Y138177D01*
X100625Y138177D01*
X103986Y136785D01*
X106559Y134212D01*
X107951Y130851D01*
X107951Y111973D01*
X106559Y108612D01*
X103986Y106039D01*
X100625Y104647D01*
X96987Y104647D01*
G37*
%LPD*%
%LPC*%
G36*
X96987Y39623D02*
X96987Y39623D01*
X93626Y41015D01*
X91053Y43588D01*
X89661Y46949D01*
X89661Y65827D01*
X91053Y69188D01*
X93626Y71761D01*
X96987Y73153D01*
X100625Y73153D01*
X103986Y71761D01*
X106559Y69188D01*
X107951Y65827D01*
X107951Y46949D01*
X106559Y43588D01*
X103986Y41015D01*
X100625Y39623D01*
X96987Y39623D01*
G37*
%LPD*%
%LPC*%
G36*
X173187Y39623D02*
X173187Y39623D01*
X169826Y41015D01*
X167253Y43588D01*
X165861Y46949D01*
X165861Y65827D01*
X167253Y69188D01*
X169826Y71761D01*
X173187Y73153D01*
X176825Y73153D01*
X180186Y71761D01*
X182759Y69188D01*
X184151Y65827D01*
X184151Y46949D01*
X182759Y43588D01*
X180186Y41015D01*
X176825Y39623D01*
X173187Y39623D01*
G37*
%LPD*%
%LPC*%
G36*
X378673Y191261D02*
X378673Y191261D01*
X375312Y192653D01*
X372739Y195226D01*
X371347Y198587D01*
X371347Y202225D01*
X372739Y205586D01*
X375312Y208159D01*
X378673Y209551D01*
X397551Y209551D01*
X400912Y208159D01*
X403485Y205586D01*
X404877Y202225D01*
X404877Y198587D01*
X403485Y195226D01*
X400912Y192653D01*
X397551Y191261D01*
X378673Y191261D01*
G37*
%LPD*%
%LPC*%
G36*
X313649Y191261D02*
X313649Y191261D01*
X310288Y192653D01*
X307715Y195226D01*
X306323Y198587D01*
X306323Y202225D01*
X307715Y205586D01*
X310288Y208159D01*
X313649Y209551D01*
X332527Y209551D01*
X335888Y208159D01*
X338461Y205586D01*
X339853Y202225D01*
X339853Y198587D01*
X338461Y195226D01*
X335888Y192653D01*
X332527Y191261D01*
X313649Y191261D01*
G37*
%LPD*%
%LPC*%
G36*
X201583Y328167D02*
X201583Y328167D01*
X198595Y329405D01*
X196309Y331691D01*
X195071Y334679D01*
X195071Y351121D01*
X196309Y354109D01*
X198595Y356395D01*
X201583Y357633D01*
X204817Y357633D01*
X207805Y356395D01*
X210091Y354109D01*
X211329Y351121D01*
X211329Y334679D01*
X210091Y331691D01*
X207805Y329405D01*
X204817Y328167D01*
X201583Y328167D01*
G37*
%LPD*%
%LPC*%
G36*
X99983Y378967D02*
X99983Y378967D01*
X96995Y380205D01*
X94709Y382491D01*
X93471Y385479D01*
X93471Y401921D01*
X94709Y404909D01*
X96995Y407195D01*
X99983Y408433D01*
X103217Y408433D01*
X106205Y407195D01*
X108491Y404909D01*
X109729Y401921D01*
X109729Y385479D01*
X108491Y382491D01*
X106205Y380205D01*
X103217Y378967D01*
X99983Y378967D01*
G37*
%LPD*%
%LPC*%
G36*
X201583Y251967D02*
X201583Y251967D01*
X198595Y253205D01*
X196309Y255491D01*
X195071Y258479D01*
X195071Y274921D01*
X196309Y277909D01*
X198595Y280195D01*
X201583Y281433D01*
X204817Y281433D01*
X207805Y280195D01*
X210091Y277909D01*
X211329Y274921D01*
X211329Y258479D01*
X210091Y255491D01*
X207805Y253205D01*
X204817Y251967D01*
X201583Y251967D01*
G37*
%LPD*%
%LPC*%
G36*
X176183Y251967D02*
X176183Y251967D01*
X173195Y253205D01*
X170909Y255491D01*
X169671Y258479D01*
X169671Y274921D01*
X170909Y277909D01*
X173195Y280195D01*
X176183Y281433D01*
X179417Y281433D01*
X182405Y280195D01*
X184691Y277909D01*
X185929Y274921D01*
X185929Y258479D01*
X184691Y255491D01*
X182405Y253205D01*
X179417Y251967D01*
X176183Y251967D01*
G37*
%LPD*%
%LPC*%
G36*
X150783Y328167D02*
X150783Y328167D01*
X147795Y329405D01*
X145509Y331691D01*
X144271Y334679D01*
X144271Y351121D01*
X145509Y354109D01*
X147795Y356395D01*
X150783Y357633D01*
X154017Y357633D01*
X157005Y356395D01*
X159291Y354109D01*
X160529Y351121D01*
X160529Y334679D01*
X159291Y331691D01*
X157005Y329405D01*
X154017Y328167D01*
X150783Y328167D01*
G37*
%LPD*%
%LPC*%
G36*
X226983Y328167D02*
X226983Y328167D01*
X223995Y329405D01*
X221709Y331691D01*
X220471Y334679D01*
X220471Y351121D01*
X221709Y354109D01*
X223995Y356395D01*
X226983Y357633D01*
X230217Y357633D01*
X233205Y356395D01*
X235491Y354109D01*
X236729Y351121D01*
X236729Y334679D01*
X235491Y331691D01*
X233205Y329405D01*
X230217Y328167D01*
X226983Y328167D01*
G37*
%LPD*%
%LPC*%
G36*
X176183Y328167D02*
X176183Y328167D01*
X173195Y329405D01*
X170909Y331691D01*
X169671Y334679D01*
X169671Y351121D01*
X170909Y354109D01*
X173195Y356395D01*
X176183Y357633D01*
X179417Y357633D01*
X182405Y356395D01*
X184691Y354109D01*
X185929Y351121D01*
X185929Y334679D01*
X184691Y331691D01*
X182405Y329405D01*
X179417Y328167D01*
X176183Y328167D01*
G37*
%LPD*%
%LPC*%
G36*
X264830Y358901D02*
X264830Y358901D01*
X261376Y360332D01*
X258732Y362976D01*
X257301Y366430D01*
X257301Y370170D01*
X258732Y373624D01*
X261376Y376268D01*
X264830Y377699D01*
X268570Y377699D01*
X272024Y376268D01*
X274668Y373624D01*
X276099Y370170D01*
X276099Y366430D01*
X274668Y362976D01*
X272024Y360332D01*
X268570Y358901D01*
X264830Y358901D01*
G37*
%LPD*%
%LPC*%
G36*
X364933Y322071D02*
X364933Y322071D01*
X360171Y326833D01*
X360171Y333567D01*
X364933Y338329D01*
X371667Y338329D01*
X376429Y333567D01*
X376429Y326833D01*
X371667Y322071D01*
X364933Y322071D01*
G37*
%LPD*%
%LPC*%
G36*
X326833Y322071D02*
X326833Y322071D01*
X322071Y326833D01*
X322071Y333567D01*
X326833Y338329D01*
X333567Y338329D01*
X338329Y333567D01*
X338329Y326833D01*
X333567Y322071D01*
X326833Y322071D01*
G37*
%LPD*%
%LPC*%
G36*
X98233Y144271D02*
X98233Y144271D01*
X93471Y149033D01*
X93471Y155767D01*
X98233Y160529D01*
X104967Y160529D01*
X109729Y155767D01*
X109729Y149033D01*
X104967Y144271D01*
X98233Y144271D01*
G37*
%LPD*%
%LPC*%
G36*
X174433Y144271D02*
X174433Y144271D01*
X169671Y149033D01*
X169671Y155767D01*
X174433Y160529D01*
X181167Y160529D01*
X185929Y155767D01*
X185929Y149033D01*
X181167Y144271D01*
X174433Y144271D01*
G37*
%LPD*%
%LPC*%
G36*
X263333Y283971D02*
X263333Y283971D01*
X258571Y288733D01*
X258571Y295467D01*
X263333Y300229D01*
X270067Y300229D01*
X274829Y295467D01*
X274829Y288733D01*
X270067Y283971D01*
X263333Y283971D01*
G37*
%LPD*%
%LPC*%
G36*
X60133Y144271D02*
X60133Y144271D01*
X55371Y149033D01*
X55371Y155767D01*
X60133Y160529D01*
X66867Y160529D01*
X71629Y155767D01*
X71629Y149033D01*
X66867Y144271D01*
X60133Y144271D01*
G37*
%LPD*%
%LPC*%
G36*
X55117Y122935D02*
X55117Y122935D01*
X55117Y139078D01*
X55973Y138943D01*
X57494Y138448D01*
X58919Y137722D01*
X60213Y136782D01*
X61344Y135651D01*
X62284Y134357D01*
X63010Y132932D01*
X63505Y131411D01*
X63755Y129832D01*
X63755Y122935D01*
X55117Y122935D01*
G37*
%LPD*%
%LPC*%
G36*
X334517Y122935D02*
X334517Y122935D01*
X334517Y139078D01*
X335373Y138943D01*
X336894Y138448D01*
X338319Y137722D01*
X339613Y136782D01*
X340744Y135651D01*
X341684Y134357D01*
X342410Y132932D01*
X342905Y131411D01*
X343155Y129832D01*
X343155Y122935D01*
X334517Y122935D01*
G37*
%LPD*%
%LPC*%
G36*
X131317Y57911D02*
X131317Y57911D01*
X131317Y74054D01*
X132173Y73919D01*
X133694Y73424D01*
X135119Y72698D01*
X136413Y71758D01*
X137544Y70627D01*
X138484Y69333D01*
X139210Y67908D01*
X139705Y66387D01*
X139955Y64808D01*
X139955Y57911D01*
X131317Y57911D01*
G37*
%LPD*%
%LPC*%
G36*
X278129Y122935D02*
X278129Y122935D01*
X278129Y139078D01*
X278985Y138943D01*
X280506Y138448D01*
X281931Y137722D01*
X283225Y136782D01*
X284356Y135651D01*
X285296Y134357D01*
X286022Y132932D01*
X286517Y131411D01*
X286767Y129832D01*
X286767Y122935D01*
X278129Y122935D01*
G37*
%LPD*%
%LPC*%
G36*
X131317Y122935D02*
X131317Y122935D01*
X131317Y139078D01*
X132173Y138943D01*
X133694Y138448D01*
X135119Y137722D01*
X136413Y136782D01*
X137544Y135651D01*
X138484Y134357D01*
X139210Y132932D01*
X139705Y131411D01*
X139955Y129832D01*
X139955Y122935D01*
X131317Y122935D01*
G37*
%LPD*%
%LPC*%
G36*
X278129Y57911D02*
X278129Y57911D01*
X278129Y74054D01*
X278985Y73919D01*
X280506Y73424D01*
X281931Y72698D01*
X283225Y71758D01*
X284356Y70627D01*
X285296Y69333D01*
X286022Y67908D01*
X286517Y66387D01*
X286767Y64808D01*
X286767Y57911D01*
X278129Y57911D01*
G37*
%LPD*%
%LPC*%
G36*
X334517Y57911D02*
X334517Y57911D01*
X334517Y74054D01*
X335373Y73919D01*
X336894Y73424D01*
X338319Y72698D01*
X339613Y71758D01*
X340744Y70627D01*
X341684Y69333D01*
X342410Y67908D01*
X342905Y66387D01*
X343155Y64808D01*
X343155Y57911D01*
X334517Y57911D01*
G37*
%LPD*%
%LPC*%
G36*
X55117Y57911D02*
X55117Y57911D01*
X55117Y74054D01*
X55973Y73919D01*
X57494Y73424D01*
X58919Y72698D01*
X60213Y71758D01*
X61344Y70627D01*
X62284Y69333D01*
X63010Y67908D01*
X63505Y66387D01*
X63755Y64808D01*
X63755Y57911D01*
X55117Y57911D01*
G37*
%LPD*%
%LPC*%
G36*
X389635Y156717D02*
X389635Y156717D01*
X389635Y165355D01*
X396532Y165355D01*
X398111Y165105D01*
X399632Y164610D01*
X401057Y163884D01*
X402351Y162944D01*
X403482Y161813D01*
X404422Y160519D01*
X405148Y159094D01*
X405643Y157573D01*
X405778Y156717D01*
X389635Y156717D01*
G37*
%LPD*%
%LPC*%
G36*
X324611Y156717D02*
X324611Y156717D01*
X324611Y165355D01*
X331508Y165355D01*
X333087Y165105D01*
X334608Y164610D01*
X336033Y163884D01*
X337327Y162944D01*
X338458Y161813D01*
X339398Y160519D01*
X340124Y159094D01*
X340619Y157573D01*
X340754Y156717D01*
X324611Y156717D01*
G37*
%LPD*%
%LPC*%
G36*
X223011Y201929D02*
X223011Y201929D01*
X223011Y210567D01*
X229908Y210567D01*
X231487Y210317D01*
X233008Y209822D01*
X234433Y209096D01*
X235727Y208156D01*
X236858Y207025D01*
X237798Y205731D01*
X238524Y204306D01*
X239019Y202785D01*
X239154Y201929D01*
X223011Y201929D01*
G37*
%LPD*%
%LPC*%
G36*
X288035Y201929D02*
X288035Y201929D01*
X288035Y210567D01*
X294932Y210567D01*
X296511Y210317D01*
X298032Y209822D01*
X299457Y209096D01*
X300751Y208156D01*
X301882Y207025D01*
X302822Y205731D01*
X303548Y204306D01*
X304043Y202785D01*
X304178Y201929D01*
X288035Y201929D01*
G37*
%LPD*%
%LPC*%
G36*
X370446Y156717D02*
X370446Y156717D01*
X370581Y157573D01*
X371076Y159094D01*
X371802Y160519D01*
X372742Y161813D01*
X373873Y162944D01*
X375167Y163884D01*
X376592Y164610D01*
X378113Y165105D01*
X379692Y165355D01*
X386589Y165355D01*
X386589Y156717D01*
X370446Y156717D01*
G37*
%LPD*%
%LPC*%
G36*
X305422Y156717D02*
X305422Y156717D01*
X305557Y157573D01*
X306052Y159094D01*
X306778Y160519D01*
X307718Y161813D01*
X308849Y162944D01*
X310143Y163884D01*
X311568Y164610D01*
X313089Y165105D01*
X314668Y165355D01*
X321565Y165355D01*
X321565Y156717D01*
X305422Y156717D01*
G37*
%LPD*%
%LPC*%
G36*
X203822Y201929D02*
X203822Y201929D01*
X203957Y202785D01*
X204452Y204306D01*
X205178Y205731D01*
X206118Y207025D01*
X207249Y208156D01*
X208543Y209096D01*
X209968Y209822D01*
X211489Y210317D01*
X213068Y210567D01*
X219965Y210567D01*
X219965Y201929D01*
X203822Y201929D01*
G37*
%LPD*%
%LPC*%
G36*
X268846Y201929D02*
X268846Y201929D01*
X268981Y202785D01*
X269476Y204306D01*
X270202Y205731D01*
X271142Y207025D01*
X272273Y208156D01*
X273567Y209096D01*
X274992Y209822D01*
X276513Y210317D01*
X278092Y210567D01*
X284989Y210567D01*
X284989Y201929D01*
X268846Y201929D01*
G37*
%LPD*%
%LPC*%
G36*
X278129Y119889D02*
X278129Y119889D01*
X286767Y119889D01*
X286767Y112992D01*
X286517Y111413D01*
X286022Y109892D01*
X285296Y108467D01*
X284356Y107173D01*
X283225Y106042D01*
X281931Y105102D01*
X280506Y104376D01*
X278985Y103881D01*
X278129Y103746D01*
X278129Y119889D01*
G37*
%LPD*%
%LPC*%
G36*
X131317Y54865D02*
X131317Y54865D01*
X139955Y54865D01*
X139955Y47968D01*
X139705Y46389D01*
X139210Y44868D01*
X138484Y43443D01*
X137544Y42149D01*
X136413Y41018D01*
X135119Y40078D01*
X133694Y39352D01*
X132173Y38857D01*
X131317Y38722D01*
X131317Y54865D01*
G37*
%LPD*%
%LPC*%
G36*
X334517Y119889D02*
X334517Y119889D01*
X343155Y119889D01*
X343155Y112992D01*
X342905Y111413D01*
X342410Y109892D01*
X341684Y108467D01*
X340744Y107173D01*
X339613Y106042D01*
X338319Y105102D01*
X336894Y104376D01*
X335373Y103881D01*
X334517Y103746D01*
X334517Y119889D01*
G37*
%LPD*%
%LPC*%
G36*
X55117Y119889D02*
X55117Y119889D01*
X63755Y119889D01*
X63755Y112992D01*
X63505Y111413D01*
X63010Y109892D01*
X62284Y108467D01*
X61344Y107173D01*
X60213Y106042D01*
X58919Y105102D01*
X57494Y104376D01*
X55973Y103881D01*
X55117Y103746D01*
X55117Y119889D01*
G37*
%LPD*%
%LPC*%
G36*
X334517Y54865D02*
X334517Y54865D01*
X343155Y54865D01*
X343155Y47968D01*
X342905Y46389D01*
X342410Y44868D01*
X341684Y43443D01*
X340744Y42149D01*
X339613Y41018D01*
X338319Y40078D01*
X336894Y39352D01*
X335373Y38857D01*
X334517Y38722D01*
X334517Y54865D01*
G37*
%LPD*%
%LPC*%
G36*
X55117Y54865D02*
X55117Y54865D01*
X63755Y54865D01*
X63755Y47968D01*
X63505Y46389D01*
X63010Y44868D01*
X62284Y43443D01*
X61344Y42149D01*
X60213Y41018D01*
X58919Y40078D01*
X57494Y39352D01*
X55973Y38857D01*
X55117Y38722D01*
X55117Y54865D01*
G37*
%LPD*%
%LPC*%
G36*
X278129Y54865D02*
X278129Y54865D01*
X286767Y54865D01*
X286767Y47968D01*
X286517Y46389D01*
X286022Y44868D01*
X285296Y43443D01*
X284356Y42149D01*
X283225Y41018D01*
X281931Y40078D01*
X280506Y39352D01*
X278985Y38857D01*
X278129Y38722D01*
X278129Y54865D01*
G37*
%LPD*%
%LPC*%
G36*
X131317Y119889D02*
X131317Y119889D01*
X139955Y119889D01*
X139955Y112992D01*
X139705Y111413D01*
X139210Y109892D01*
X138484Y108467D01*
X137544Y107173D01*
X136413Y106042D01*
X135119Y105102D01*
X133694Y104376D01*
X132173Y103881D01*
X131317Y103746D01*
X131317Y119889D01*
G37*
%LPD*%
%LPC*%
G36*
X266445Y122935D02*
X266445Y122935D01*
X266445Y129832D01*
X266695Y131411D01*
X267190Y132932D01*
X267916Y134357D01*
X268856Y135651D01*
X269987Y136782D01*
X271281Y137722D01*
X272706Y138448D01*
X274227Y138943D01*
X275083Y139078D01*
X275083Y122935D01*
X266445Y122935D01*
G37*
%LPD*%
%LPC*%
G36*
X119633Y122935D02*
X119633Y122935D01*
X119633Y129832D01*
X119883Y131411D01*
X120378Y132932D01*
X121104Y134357D01*
X122044Y135651D01*
X123175Y136782D01*
X124469Y137722D01*
X125894Y138448D01*
X127415Y138943D01*
X128271Y139078D01*
X128271Y122935D01*
X119633Y122935D01*
G37*
%LPD*%
%LPC*%
G36*
X43433Y122935D02*
X43433Y122935D01*
X43433Y129832D01*
X43683Y131411D01*
X44178Y132932D01*
X44904Y134357D01*
X45844Y135651D01*
X46975Y136782D01*
X48269Y137722D01*
X49694Y138448D01*
X51215Y138943D01*
X52071Y139078D01*
X52071Y122935D01*
X43433Y122935D01*
G37*
%LPD*%
%LPC*%
G36*
X119633Y57911D02*
X119633Y57911D01*
X119633Y64808D01*
X119883Y66387D01*
X120378Y67908D01*
X121104Y69333D01*
X122044Y70627D01*
X123175Y71758D01*
X124469Y72698D01*
X125894Y73424D01*
X127415Y73919D01*
X128271Y74054D01*
X128271Y57911D01*
X119633Y57911D01*
G37*
%LPD*%
%LPC*%
G36*
X389635Y145033D02*
X389635Y145033D01*
X389635Y153671D01*
X405778Y153671D01*
X405643Y152815D01*
X405148Y151294D01*
X404422Y149869D01*
X403482Y148575D01*
X402351Y147444D01*
X401057Y146504D01*
X399632Y145778D01*
X398111Y145283D01*
X396532Y145033D01*
X389635Y145033D01*
G37*
%LPD*%
%LPC*%
G36*
X223011Y190245D02*
X223011Y190245D01*
X223011Y198883D01*
X239154Y198883D01*
X239019Y198027D01*
X238524Y196506D01*
X237798Y195081D01*
X236858Y193787D01*
X235727Y192656D01*
X234433Y191716D01*
X233008Y190990D01*
X231487Y190495D01*
X229908Y190245D01*
X223011Y190245D01*
G37*
%LPD*%
%LPC*%
G36*
X288035Y190245D02*
X288035Y190245D01*
X288035Y198883D01*
X304178Y198883D01*
X304043Y198027D01*
X303548Y196506D01*
X302822Y195081D01*
X301882Y193787D01*
X300751Y192656D01*
X299457Y191716D01*
X298032Y190990D01*
X296511Y190495D01*
X294932Y190245D01*
X288035Y190245D01*
G37*
%LPD*%
%LPC*%
G36*
X324611Y145033D02*
X324611Y145033D01*
X324611Y153671D01*
X340754Y153671D01*
X340619Y152815D01*
X340124Y151294D01*
X339398Y149869D01*
X338458Y148575D01*
X337327Y147444D01*
X336033Y146504D01*
X334608Y145778D01*
X333087Y145283D01*
X331508Y145033D01*
X324611Y145033D01*
G37*
%LPD*%
%LPC*%
G36*
X322833Y57911D02*
X322833Y57911D01*
X322833Y64808D01*
X323083Y66387D01*
X323578Y67908D01*
X324304Y69333D01*
X325244Y70627D01*
X326375Y71758D01*
X327669Y72698D01*
X329094Y73424D01*
X330615Y73919D01*
X331471Y74054D01*
X331471Y57911D01*
X322833Y57911D01*
G37*
%LPD*%
%LPC*%
G36*
X266445Y57911D02*
X266445Y57911D01*
X266445Y64808D01*
X266695Y66387D01*
X267190Y67908D01*
X267916Y69333D01*
X268856Y70627D01*
X269987Y71758D01*
X271281Y72698D01*
X272706Y73424D01*
X274227Y73919D01*
X275083Y74054D01*
X275083Y57911D01*
X266445Y57911D01*
G37*
%LPD*%
%LPC*%
G36*
X322833Y122935D02*
X322833Y122935D01*
X322833Y129832D01*
X323083Y131411D01*
X323578Y132932D01*
X324304Y134357D01*
X325244Y135651D01*
X326375Y136782D01*
X327669Y137722D01*
X329094Y138448D01*
X330615Y138943D01*
X331471Y139078D01*
X331471Y122935D01*
X322833Y122935D01*
G37*
%LPD*%
%LPC*%
G36*
X43433Y57911D02*
X43433Y57911D01*
X43433Y64808D01*
X43683Y66387D01*
X44178Y67908D01*
X44904Y69333D01*
X45844Y70627D01*
X46975Y71758D01*
X48269Y72698D01*
X49694Y73424D01*
X51215Y73919D01*
X52071Y74054D01*
X52071Y57911D01*
X43433Y57911D01*
G37*
%LPD*%
%LPC*%
G36*
X314668Y145033D02*
X314668Y145033D01*
X313089Y145283D01*
X311568Y145778D01*
X310143Y146504D01*
X308849Y147444D01*
X307718Y148575D01*
X306778Y149869D01*
X306052Y151294D01*
X305557Y152815D01*
X305422Y153671D01*
X321565Y153671D01*
X321565Y145033D01*
X314668Y145033D01*
G37*
%LPD*%
%LPC*%
G36*
X379692Y145033D02*
X379692Y145033D01*
X378113Y145283D01*
X376592Y145778D01*
X375167Y146504D01*
X373873Y147444D01*
X372742Y148575D01*
X371802Y149869D01*
X371076Y151294D01*
X370581Y152815D01*
X370446Y153671D01*
X386589Y153671D01*
X386589Y145033D01*
X379692Y145033D01*
G37*
%LPD*%
%LPC*%
G36*
X330615Y103881D02*
X330615Y103881D01*
X329094Y104376D01*
X327669Y105102D01*
X326375Y106042D01*
X325244Y107173D01*
X324304Y108467D01*
X323578Y109892D01*
X323083Y111413D01*
X322833Y112992D01*
X322833Y119889D01*
X331471Y119889D01*
X331471Y103746D01*
X330615Y103881D01*
G37*
%LPD*%
%LPC*%
G36*
X213068Y190245D02*
X213068Y190245D01*
X211489Y190495D01*
X209968Y190990D01*
X208543Y191716D01*
X207249Y192656D01*
X206118Y193787D01*
X205178Y195081D01*
X204452Y196506D01*
X203957Y198027D01*
X203822Y198883D01*
X219965Y198883D01*
X219965Y190245D01*
X213068Y190245D01*
G37*
%LPD*%
%LPC*%
G36*
X278092Y190245D02*
X278092Y190245D01*
X276513Y190495D01*
X274992Y190990D01*
X273567Y191716D01*
X272273Y192656D01*
X271142Y193787D01*
X270202Y195081D01*
X269476Y196506D01*
X268981Y198027D01*
X268846Y198883D01*
X284989Y198883D01*
X284989Y190245D01*
X278092Y190245D01*
G37*
%LPD*%
%LPC*%
G36*
X274227Y103881D02*
X274227Y103881D01*
X272706Y104376D01*
X271281Y105102D01*
X269987Y106042D01*
X268856Y107173D01*
X267916Y108467D01*
X267190Y109892D01*
X266695Y111413D01*
X266445Y112992D01*
X266445Y119889D01*
X275083Y119889D01*
X275083Y103746D01*
X274227Y103881D01*
G37*
%LPD*%
%LPC*%
G36*
X51215Y103881D02*
X51215Y103881D01*
X49694Y104376D01*
X48269Y105102D01*
X46975Y106042D01*
X45844Y107173D01*
X44904Y108467D01*
X44178Y109892D01*
X43683Y111413D01*
X43433Y112992D01*
X43433Y119889D01*
X52071Y119889D01*
X52071Y103746D01*
X51215Y103881D01*
G37*
%LPD*%
%LPC*%
G36*
X127415Y103881D02*
X127415Y103881D01*
X125894Y104376D01*
X124469Y105102D01*
X123175Y106042D01*
X122044Y107173D01*
X121104Y108467D01*
X120378Y109892D01*
X119883Y111413D01*
X119633Y112992D01*
X119633Y119889D01*
X128271Y119889D01*
X128271Y103746D01*
X127415Y103881D01*
G37*
%LPD*%
%LPC*%
G36*
X330615Y38857D02*
X330615Y38857D01*
X329094Y39352D01*
X327669Y40078D01*
X326375Y41018D01*
X325244Y42149D01*
X324304Y43443D01*
X323578Y44868D01*
X323083Y46389D01*
X322833Y47968D01*
X322833Y54865D01*
X331471Y54865D01*
X331471Y38722D01*
X330615Y38857D01*
G37*
%LPD*%
%LPC*%
G36*
X274227Y38857D02*
X274227Y38857D01*
X272706Y39352D01*
X271281Y40078D01*
X269987Y41018D01*
X268856Y42149D01*
X267916Y43443D01*
X267190Y44868D01*
X266695Y46389D01*
X266445Y47968D01*
X266445Y54865D01*
X275083Y54865D01*
X275083Y38722D01*
X274227Y38857D01*
G37*
%LPD*%
%LPC*%
G36*
X127415Y38857D02*
X127415Y38857D01*
X125894Y39352D01*
X124469Y40078D01*
X123175Y41018D01*
X122044Y42149D01*
X121104Y43443D01*
X120378Y44868D01*
X119883Y46389D01*
X119633Y47968D01*
X119633Y54865D01*
X128271Y54865D01*
X128271Y38722D01*
X127415Y38857D01*
G37*
%LPD*%
%LPC*%
G36*
X51215Y38857D02*
X51215Y38857D01*
X49694Y39352D01*
X48269Y40078D01*
X46975Y41018D01*
X45844Y42149D01*
X44904Y43443D01*
X44178Y44868D01*
X43683Y46389D01*
X43433Y47968D01*
X43433Y54865D01*
X52071Y54865D01*
X52071Y38722D01*
X51215Y38857D01*
G37*
%LPD*%
%LPC*%
G36*
X204723Y395223D02*
X204723Y395223D01*
X204723Y409325D01*
X205867Y409097D01*
X207532Y408408D01*
X209030Y407407D01*
X210303Y406134D01*
X211304Y404636D01*
X211993Y402971D01*
X212345Y401205D01*
X212345Y395223D01*
X204723Y395223D01*
G37*
%LPD*%
%LPC*%
G36*
X77723Y268223D02*
X77723Y268223D01*
X77723Y282325D01*
X78867Y282097D01*
X80532Y281408D01*
X82030Y280407D01*
X83303Y279134D01*
X84304Y277636D01*
X84993Y275971D01*
X85345Y274205D01*
X85345Y268223D01*
X77723Y268223D01*
G37*
%LPD*%
%LPC*%
G36*
X103123Y268223D02*
X103123Y268223D01*
X103123Y282325D01*
X104267Y282097D01*
X105932Y281408D01*
X107430Y280407D01*
X108703Y279134D01*
X109704Y277636D01*
X110393Y275971D01*
X110745Y274205D01*
X110745Y268223D01*
X103123Y268223D01*
G37*
%LPD*%
%LPC*%
G36*
X128523Y344423D02*
X128523Y344423D01*
X128523Y358525D01*
X129667Y358297D01*
X131332Y357608D01*
X132830Y356607D01*
X134103Y355334D01*
X135104Y353836D01*
X135793Y352171D01*
X136145Y350405D01*
X136145Y344423D01*
X128523Y344423D01*
G37*
%LPD*%
%LPC*%
G36*
X204723Y392177D02*
X204723Y392177D01*
X212345Y392177D01*
X212345Y386195D01*
X211993Y384429D01*
X211304Y382764D01*
X210303Y381266D01*
X209030Y379993D01*
X207532Y378992D01*
X205867Y378303D01*
X204723Y378075D01*
X204723Y392177D01*
G37*
%LPD*%
%LPC*%
G36*
X128523Y341377D02*
X128523Y341377D01*
X136145Y341377D01*
X136145Y335395D01*
X135793Y333629D01*
X135104Y331964D01*
X134103Y330466D01*
X132830Y329193D01*
X131332Y328192D01*
X129667Y327503D01*
X128523Y327275D01*
X128523Y341377D01*
G37*
%LPD*%
%LPC*%
G36*
X77723Y265177D02*
X77723Y265177D01*
X85345Y265177D01*
X85345Y259195D01*
X84993Y257429D01*
X84304Y255764D01*
X83303Y254266D01*
X82030Y252993D01*
X80532Y251992D01*
X78867Y251303D01*
X77723Y251075D01*
X77723Y265177D01*
G37*
%LPD*%
%LPC*%
G36*
X103123Y265177D02*
X103123Y265177D01*
X110745Y265177D01*
X110745Y259195D01*
X110393Y257429D01*
X109704Y255764D01*
X108703Y254266D01*
X107430Y252993D01*
X105932Y251992D01*
X104267Y251303D01*
X103123Y251075D01*
X103123Y265177D01*
G37*
%LPD*%
%LPC*%
G36*
X194055Y395223D02*
X194055Y395223D01*
X194055Y401205D01*
X194407Y402971D01*
X195096Y404636D01*
X196097Y406134D01*
X197370Y407407D01*
X198868Y408408D01*
X200533Y409097D01*
X201677Y409325D01*
X201677Y395223D01*
X194055Y395223D01*
G37*
%LPD*%
%LPC*%
G36*
X67055Y268223D02*
X67055Y268223D01*
X67055Y274205D01*
X67407Y275971D01*
X68096Y277636D01*
X69097Y279134D01*
X70370Y280407D01*
X71868Y281408D01*
X73533Y282097D01*
X74677Y282325D01*
X74677Y268223D01*
X67055Y268223D01*
G37*
%LPD*%
%LPC*%
G36*
X92455Y268223D02*
X92455Y268223D01*
X92455Y274205D01*
X92807Y275971D01*
X93496Y277636D01*
X94497Y279134D01*
X95770Y280407D01*
X97268Y281408D01*
X98933Y282097D01*
X100077Y282325D01*
X100077Y268223D01*
X92455Y268223D01*
G37*
%LPD*%
%LPC*%
G36*
X117855Y344423D02*
X117855Y344423D01*
X117855Y350405D01*
X118207Y352171D01*
X118896Y353836D01*
X119897Y355334D01*
X121170Y356607D01*
X122668Y357608D01*
X124333Y358297D01*
X125477Y358525D01*
X125477Y344423D01*
X117855Y344423D01*
G37*
%LPD*%
%LPC*%
G36*
X41655Y344423D02*
X41655Y344423D01*
X41655Y350405D01*
X42007Y352171D01*
X42696Y353836D01*
X43697Y355334D01*
X44970Y356607D01*
X46468Y357608D01*
X48133Y358297D01*
X49277Y358525D01*
X49277Y344423D01*
X41655Y344423D01*
G37*
%LPD*%
%LPC*%
G36*
X98933Y251303D02*
X98933Y251303D01*
X97268Y251992D01*
X95770Y252993D01*
X94497Y254266D01*
X93496Y255764D01*
X92807Y257429D01*
X92455Y259195D01*
X92455Y265177D01*
X100077Y265177D01*
X100077Y251075D01*
X98933Y251303D01*
G37*
%LPD*%
%LPC*%
G36*
X73533Y251303D02*
X73533Y251303D01*
X71868Y251992D01*
X70370Y252993D01*
X69097Y254266D01*
X68096Y255764D01*
X67407Y257429D01*
X67055Y259195D01*
X67055Y265177D01*
X74677Y265177D01*
X74677Y251075D01*
X73533Y251303D01*
G37*
%LPD*%
%LPC*%
G36*
X48133Y327503D02*
X48133Y327503D01*
X46468Y328192D01*
X44970Y329193D01*
X43697Y330466D01*
X42696Y331964D01*
X42007Y333629D01*
X41655Y335395D01*
X41655Y341377D01*
X49277Y341377D01*
X49277Y327275D01*
X48133Y327503D01*
G37*
%LPD*%
%LPC*%
G36*
X124333Y327503D02*
X124333Y327503D01*
X122668Y328192D01*
X121170Y329193D01*
X119897Y330466D01*
X118896Y331964D01*
X118207Y333629D01*
X117855Y335395D01*
X117855Y341377D01*
X125477Y341377D01*
X125477Y327275D01*
X124333Y327503D01*
G37*
%LPD*%
%LPC*%
G36*
X200533Y378303D02*
X200533Y378303D01*
X198868Y378992D01*
X197370Y379993D01*
X196097Y381266D01*
X195096Y382764D01*
X194407Y384429D01*
X194055Y386195D01*
X194055Y392177D01*
X201677Y392177D01*
X201677Y378075D01*
X200533Y378303D01*
G37*
%LPD*%
%LPC*%
G36*
X268223Y395223D02*
X268223Y395223D01*
X268223Y404115D01*
X271014Y404115D01*
X277115Y398014D01*
X277115Y395223D01*
X268223Y395223D01*
G37*
%LPD*%
%LPC*%
G36*
X256285Y395223D02*
X256285Y395223D01*
X256285Y398014D01*
X262386Y404115D01*
X265177Y404115D01*
X265177Y395223D01*
X256285Y395223D01*
G37*
%LPD*%
%LPC*%
G36*
X268223Y383285D02*
X268223Y383285D01*
X268223Y392177D01*
X277115Y392177D01*
X277115Y389386D01*
X271014Y383285D01*
X268223Y383285D01*
G37*
%LPD*%
%LPC*%
G36*
X262386Y383285D02*
X262386Y383285D01*
X256285Y389386D01*
X256285Y392177D01*
X265177Y392177D01*
X265177Y383285D01*
X262386Y383285D01*
G37*
%LPD*%
%LPC*%
G36*
X268223Y319023D02*
X268223Y319023D01*
X268223Y326645D01*
X270488Y326645D01*
X275845Y321288D01*
X275845Y319023D01*
X268223Y319023D01*
G37*
%LPD*%
%LPC*%
G36*
X257555Y319023D02*
X257555Y319023D01*
X257555Y321288D01*
X262912Y326645D01*
X265177Y326645D01*
X265177Y319023D01*
X257555Y319023D01*
G37*
%LPD*%
%LPC*%
G36*
X388111Y155193D02*
X388111Y155193D01*
X388111Y155195D01*
X388113Y155195D01*
X388113Y155193D01*
X388111Y155193D01*
G37*
%LPD*%
%LPC*%
G36*
X323087Y155193D02*
X323087Y155193D01*
X323087Y155195D01*
X323089Y155195D01*
X323089Y155193D01*
X323087Y155193D01*
G37*
%LPD*%
%LPC*%
G36*
X203199Y393699D02*
X203199Y393699D01*
X203199Y393701D01*
X203201Y393701D01*
X203201Y393699D01*
X203199Y393699D01*
G37*
%LPD*%
%LPC*%
G36*
X266699Y393699D02*
X266699Y393699D01*
X266699Y393701D01*
X266701Y393701D01*
X266701Y393699D01*
X266699Y393699D01*
G37*
%LPD*%
%LPC*%
G36*
X221487Y200405D02*
X221487Y200405D01*
X221487Y200407D01*
X221489Y200407D01*
X221489Y200405D01*
X221487Y200405D01*
G37*
%LPD*%
%LPC*%
G36*
X286511Y200405D02*
X286511Y200405D01*
X286511Y200407D01*
X286513Y200407D01*
X286513Y200405D01*
X286511Y200405D01*
G37*
%LPD*%
%LPC*%
G36*
X332993Y121411D02*
X332993Y121411D01*
X332993Y121413D01*
X332995Y121413D01*
X332995Y121411D01*
X332993Y121411D01*
G37*
%LPD*%
%LPC*%
G36*
X53593Y56387D02*
X53593Y56387D01*
X53593Y56389D01*
X53595Y56389D01*
X53595Y56387D01*
X53593Y56387D01*
G37*
%LPD*%
%LPC*%
G36*
X129793Y56387D02*
X129793Y56387D01*
X129793Y56389D01*
X129795Y56389D01*
X129795Y56387D01*
X129793Y56387D01*
G37*
%LPD*%
%LPC*%
G36*
X276605Y56387D02*
X276605Y56387D01*
X276605Y56389D01*
X276607Y56389D01*
X276607Y56387D01*
X276605Y56387D01*
G37*
%LPD*%
%LPC*%
G36*
X332993Y56387D02*
X332993Y56387D01*
X332993Y56389D01*
X332995Y56389D01*
X332995Y56387D01*
X332993Y56387D01*
G37*
%LPD*%
%LPC*%
G36*
X276605Y121411D02*
X276605Y121411D01*
X276605Y121413D01*
X276607Y121413D01*
X276607Y121411D01*
X276605Y121411D01*
G37*
%LPD*%
%LPC*%
G36*
X129793Y121411D02*
X129793Y121411D01*
X129793Y121413D01*
X129795Y121413D01*
X129795Y121411D01*
X129793Y121411D01*
G37*
%LPD*%
%LPC*%
G36*
X126999Y342899D02*
X126999Y342899D01*
X126999Y342901D01*
X127001Y342901D01*
X127001Y342899D01*
X126999Y342899D01*
G37*
%LPD*%
%LPC*%
G36*
X53593Y121411D02*
X53593Y121411D01*
X53593Y121413D01*
X53595Y121413D01*
X53595Y121411D01*
X53593Y121411D01*
G37*
%LPD*%
%LPC*%
G36*
X76199Y266699D02*
X76199Y266699D01*
X76199Y266701D01*
X76201Y266701D01*
X76201Y266699D01*
X76199Y266699D01*
G37*
%LPD*%
%LPC*%
G36*
X101599Y266699D02*
X101599Y266699D01*
X101599Y266701D01*
X101601Y266701D01*
X101601Y266699D01*
X101599Y266699D01*
G37*
%LPD*%
D10*
X266700Y292100D03*
X266700Y317500D03*
D11*
X266700Y393700D03*
D12*
X266700Y368300D03*
D13*
X228600Y349504D02*
X228600Y336296D01*
X203200Y336296D02*
X203200Y349504D01*
X76200Y349504D02*
X76200Y336296D01*
X50800Y336296D02*
X50800Y349504D01*
X177800Y349504D02*
X177800Y336296D01*
X152400Y336296D02*
X152400Y349504D01*
X101600Y349504D02*
X101600Y336296D01*
X127000Y336296D02*
X127000Y349504D01*
X50800Y273304D02*
X50800Y260096D01*
X76200Y260096D02*
X76200Y273304D01*
X101600Y273304D02*
X101600Y260096D01*
X127000Y260096D02*
X127000Y273304D01*
X152400Y273304D02*
X152400Y260096D01*
X177800Y260096D02*
X177800Y273304D01*
X203200Y273304D02*
X203200Y260096D01*
X228600Y260096D02*
X228600Y273304D01*
D10*
X63500Y152400D03*
X63500Y228600D03*
X101600Y152400D03*
X101600Y228600D03*
X139700Y152400D03*
X139700Y228600D03*
X177800Y152400D03*
X177800Y228600D03*
X330200Y254000D03*
X330200Y330200D03*
X368300Y254000D03*
X368300Y330200D03*
D14*
X98806Y129032D02*
X98806Y113792D01*
X53594Y113792D02*
X53594Y129032D01*
X98806Y64008D02*
X98806Y48768D01*
X53594Y48768D02*
X53594Y64008D01*
X175006Y113792D02*
X175006Y129032D01*
X129794Y129032D02*
X129794Y113792D01*
X175006Y64008D02*
X175006Y48768D01*
X129794Y48768D02*
X129794Y64008D01*
X231394Y64008D02*
X231394Y48768D01*
X276606Y48768D02*
X276606Y64008D01*
X231394Y113792D02*
X231394Y129032D01*
X276606Y129032D02*
X276606Y113792D01*
X278892Y155194D02*
X294132Y155194D01*
X294132Y200406D02*
X278892Y200406D01*
X229108Y155194D02*
X213868Y155194D01*
X213868Y200406D02*
X229108Y200406D01*
X378206Y129032D02*
X378206Y113792D01*
X332994Y113792D02*
X332994Y129032D01*
X378206Y64008D02*
X378206Y48768D01*
X332994Y48768D02*
X332994Y64008D01*
X330708Y200406D02*
X315468Y200406D01*
X315468Y155194D02*
X330708Y155194D01*
X380492Y200406D02*
X395732Y200406D01*
X395732Y155194D02*
X380492Y155194D01*
D13*
X101600Y387096D02*
X101600Y400304D01*
X127000Y400304D02*
X127000Y387096D01*
X152400Y387096D02*
X152400Y400304D01*
X177800Y400304D02*
X177800Y387096D01*
X203200Y387096D02*
X203200Y400304D01*
D15*
X38100Y393700D03*
X393700Y393700D03*
X393700Y0D03*
X38100Y0D03*
X393700Y393700D03*
D16*
X228600Y266700D02*
X228600Y228600D01*
X177800Y228600D01*
X139700Y228600D01*
X101600Y228600D01*
X63500Y228600D01*
X139700Y152400D02*
X152400Y139700D01*
X215900Y88900D02*
X231394Y104394D01*
X231394Y121412D01*
X231394Y56388D01*
X152400Y101600D02*
X152400Y139700D01*
X152400Y101600D02*
X165100Y88900D01*
X215900Y88900D01*
X330200Y241300D02*
X330200Y254000D01*
X330200Y241300D02*
X355600Y241300D01*
X355600Y127000D01*
X361188Y121412D01*
X378206Y121412D01*
X381000Y118618D01*
X381000Y59182D02*
X378206Y56388D01*
X381000Y59182D02*
X381000Y118618D01*
X330200Y254000D02*
X266700Y254000D01*
X241300Y279400D01*
X241300Y292100D01*
X165100Y292100D01*
X152400Y279400D01*
X152400Y266700D01*
X368300Y254000D02*
X368300Y304800D01*
X152400Y304800D01*
X127000Y279400D01*
X127000Y266700D01*
X127000Y393700D02*
X114300Y406400D01*
X114300Y419100D01*
X88900Y419100D01*
X76200Y406400D01*
X76200Y368300D01*
X63500Y355600D01*
X63500Y279400D02*
X50800Y266700D01*
X63500Y279400D02*
X63500Y355600D01*
X152400Y377190D02*
X152400Y393700D01*
X148590Y373380D02*
X102870Y373380D01*
X76200Y346710D01*
X76200Y342900D01*
X148590Y373380D02*
X152400Y377190D01*
X177800Y363220D02*
X177800Y393700D01*
X177800Y363220D02*
X109220Y363220D01*
X101600Y355600D01*
X101600Y342900D01*
M02*
