G04 EAGLE Gerber RS-274X export*
G75*
%MOMM*%
%FSLAX34Y34*%
%LPD*%
%INSilkscreen Top*%
%IPPOS*%
%AMOC8*
5,1,8,0,0,1.08239X$1,22.5*%
G01*
%ADD10C,0.101600*%
%ADD11C,0.152400*%
%ADD12C,0.254000*%
%ADD13C,0.127000*%
%ADD14C,0.050800*%


D10*
X140208Y-5842D02*
X140208Y5842D01*
X140208Y649D02*
X146699Y649D01*
X146699Y5842D02*
X146699Y-5842D01*
X152423Y-5842D02*
X152423Y5842D01*
X152423Y-5842D02*
X157615Y-5842D01*
X162329Y-5842D02*
X167521Y-5842D01*
X162329Y-5842D02*
X162329Y5842D01*
X167521Y5842D01*
X166223Y649D02*
X162329Y649D01*
X172212Y5842D02*
X172212Y-5842D01*
X172212Y5842D02*
X175458Y5842D01*
X175571Y5840D01*
X175684Y5834D01*
X175797Y5824D01*
X175910Y5810D01*
X176022Y5793D01*
X176133Y5771D01*
X176243Y5746D01*
X176353Y5716D01*
X176461Y5683D01*
X176568Y5646D01*
X176674Y5606D01*
X176778Y5561D01*
X176881Y5513D01*
X176982Y5462D01*
X177081Y5407D01*
X177178Y5349D01*
X177273Y5287D01*
X177366Y5222D01*
X177456Y5154D01*
X177544Y5083D01*
X177630Y5008D01*
X177713Y4931D01*
X177793Y4851D01*
X177870Y4768D01*
X177945Y4682D01*
X178016Y4594D01*
X178084Y4504D01*
X178149Y4411D01*
X178211Y4316D01*
X178269Y4219D01*
X178324Y4120D01*
X178375Y4019D01*
X178423Y3916D01*
X178468Y3812D01*
X178508Y3706D01*
X178545Y3599D01*
X178578Y3491D01*
X178608Y3381D01*
X178633Y3271D01*
X178655Y3160D01*
X178672Y3048D01*
X178686Y2935D01*
X178696Y2822D01*
X178702Y2709D01*
X178704Y2596D01*
X178703Y2596D02*
X178703Y-2596D01*
X178704Y-2596D02*
X178702Y-2709D01*
X178696Y-2822D01*
X178686Y-2935D01*
X178672Y-3048D01*
X178655Y-3160D01*
X178633Y-3271D01*
X178608Y-3381D01*
X178578Y-3491D01*
X178545Y-3599D01*
X178508Y-3706D01*
X178468Y-3812D01*
X178423Y-3916D01*
X178375Y-4019D01*
X178324Y-4120D01*
X178269Y-4219D01*
X178211Y-4316D01*
X178149Y-4411D01*
X178084Y-4504D01*
X178016Y-4594D01*
X177945Y-4682D01*
X177870Y-4768D01*
X177793Y-4851D01*
X177713Y-4931D01*
X177630Y-5008D01*
X177544Y-5083D01*
X177456Y-5154D01*
X177366Y-5222D01*
X177273Y-5287D01*
X177178Y-5349D01*
X177081Y-5407D01*
X176982Y-5462D01*
X176881Y-5513D01*
X176778Y-5561D01*
X176674Y-5606D01*
X176568Y-5646D01*
X176461Y-5683D01*
X176353Y-5716D01*
X176243Y-5746D01*
X176133Y-5771D01*
X176022Y-5793D01*
X175910Y-5810D01*
X175797Y-5824D01*
X175684Y-5834D01*
X175571Y-5840D01*
X175458Y-5842D01*
X172212Y-5842D01*
X184023Y0D02*
X184026Y230D01*
X184034Y460D01*
X184048Y689D01*
X184067Y918D01*
X184092Y1147D01*
X184122Y1374D01*
X184157Y1602D01*
X184198Y1828D01*
X184244Y2053D01*
X184296Y2277D01*
X184353Y2499D01*
X184415Y2721D01*
X184483Y2940D01*
X184556Y3158D01*
X184634Y3375D01*
X184717Y3589D01*
X184805Y3801D01*
X184898Y4011D01*
X184997Y4219D01*
X184996Y4219D02*
X185029Y4309D01*
X185065Y4398D01*
X185105Y4486D01*
X185149Y4571D01*
X185196Y4655D01*
X185246Y4737D01*
X185300Y4817D01*
X185356Y4894D01*
X185416Y4970D01*
X185479Y5043D01*
X185544Y5113D01*
X185613Y5181D01*
X185684Y5245D01*
X185757Y5307D01*
X185833Y5366D01*
X185911Y5422D01*
X185992Y5475D01*
X186074Y5524D01*
X186158Y5570D01*
X186245Y5613D01*
X186332Y5652D01*
X186422Y5688D01*
X186512Y5720D01*
X186604Y5748D01*
X186697Y5773D01*
X186791Y5794D01*
X186885Y5811D01*
X186980Y5825D01*
X187076Y5834D01*
X187172Y5840D01*
X187268Y5842D01*
X187364Y5840D01*
X187460Y5834D01*
X187556Y5825D01*
X187651Y5811D01*
X187745Y5794D01*
X187839Y5773D01*
X187932Y5748D01*
X188024Y5720D01*
X188114Y5688D01*
X188204Y5652D01*
X188291Y5613D01*
X188378Y5570D01*
X188462Y5524D01*
X188544Y5475D01*
X188625Y5422D01*
X188703Y5366D01*
X188779Y5307D01*
X188852Y5245D01*
X188923Y5181D01*
X188992Y5113D01*
X189057Y5043D01*
X189120Y4970D01*
X189180Y4894D01*
X189236Y4817D01*
X189290Y4737D01*
X189340Y4655D01*
X189387Y4571D01*
X189431Y4486D01*
X189471Y4398D01*
X189507Y4309D01*
X189540Y4219D01*
X189541Y4219D02*
X189640Y4012D01*
X189733Y3802D01*
X189821Y3589D01*
X189904Y3375D01*
X189982Y3159D01*
X190055Y2941D01*
X190123Y2721D01*
X190185Y2500D01*
X190242Y2277D01*
X190294Y2053D01*
X190340Y1828D01*
X190381Y1602D01*
X190416Y1375D01*
X190446Y1147D01*
X190471Y918D01*
X190490Y689D01*
X190504Y460D01*
X190512Y230D01*
X190515Y0D01*
X184023Y0D02*
X184026Y-230D01*
X184034Y-460D01*
X184048Y-689D01*
X184067Y-918D01*
X184092Y-1147D01*
X184122Y-1375D01*
X184157Y-1602D01*
X184198Y-1828D01*
X184244Y-2053D01*
X184296Y-2277D01*
X184353Y-2500D01*
X184415Y-2721D01*
X184483Y-2941D01*
X184556Y-3159D01*
X184634Y-3375D01*
X184717Y-3589D01*
X184805Y-3801D01*
X184898Y-4012D01*
X184997Y-4219D01*
X184996Y-4219D02*
X185029Y-4309D01*
X185065Y-4398D01*
X185106Y-4486D01*
X185149Y-4571D01*
X185196Y-4655D01*
X185246Y-4737D01*
X185300Y-4817D01*
X185356Y-4894D01*
X185416Y-4970D01*
X185479Y-5043D01*
X185544Y-5113D01*
X185613Y-5181D01*
X185684Y-5245D01*
X185757Y-5307D01*
X185833Y-5366D01*
X185911Y-5422D01*
X185992Y-5475D01*
X186074Y-5524D01*
X186158Y-5570D01*
X186245Y-5613D01*
X186332Y-5652D01*
X186422Y-5688D01*
X186512Y-5720D01*
X186604Y-5748D01*
X186697Y-5773D01*
X186791Y-5794D01*
X186885Y-5811D01*
X186980Y-5825D01*
X187076Y-5834D01*
X187172Y-5840D01*
X187268Y-5842D01*
X189540Y-4219D02*
X189639Y-4012D01*
X189732Y-3801D01*
X189820Y-3589D01*
X189903Y-3375D01*
X189981Y-3159D01*
X190054Y-2941D01*
X190122Y-2721D01*
X190184Y-2500D01*
X190241Y-2277D01*
X190293Y-2053D01*
X190339Y-1828D01*
X190380Y-1602D01*
X190415Y-1375D01*
X190445Y-1147D01*
X190470Y-918D01*
X190489Y-689D01*
X190503Y-460D01*
X190511Y-230D01*
X190514Y0D01*
X189540Y-4219D02*
X189507Y-4309D01*
X189471Y-4398D01*
X189431Y-4486D01*
X189387Y-4571D01*
X189340Y-4655D01*
X189290Y-4737D01*
X189236Y-4817D01*
X189180Y-4894D01*
X189120Y-4970D01*
X189057Y-5043D01*
X188992Y-5113D01*
X188923Y-5181D01*
X188852Y-5245D01*
X188779Y-5307D01*
X188703Y-5366D01*
X188625Y-5422D01*
X188544Y-5475D01*
X188462Y-5524D01*
X188378Y-5570D01*
X188291Y-5613D01*
X188204Y-5652D01*
X188114Y-5688D01*
X188024Y-5720D01*
X187932Y-5748D01*
X187839Y-5773D01*
X187745Y-5794D01*
X187651Y-5811D01*
X187556Y-5825D01*
X187460Y-5834D01*
X187364Y-5840D01*
X187268Y-5842D01*
X184672Y-3246D02*
X189865Y3246D01*
X195453Y0D02*
X195456Y230D01*
X195464Y460D01*
X195478Y689D01*
X195497Y918D01*
X195522Y1147D01*
X195552Y1374D01*
X195587Y1602D01*
X195628Y1828D01*
X195674Y2053D01*
X195726Y2277D01*
X195783Y2499D01*
X195845Y2721D01*
X195913Y2940D01*
X195986Y3158D01*
X196064Y3375D01*
X196147Y3589D01*
X196235Y3801D01*
X196328Y4011D01*
X196427Y4219D01*
X196426Y4219D02*
X196459Y4309D01*
X196495Y4398D01*
X196535Y4486D01*
X196579Y4571D01*
X196626Y4655D01*
X196676Y4737D01*
X196730Y4817D01*
X196786Y4894D01*
X196846Y4970D01*
X196909Y5043D01*
X196974Y5113D01*
X197043Y5181D01*
X197114Y5245D01*
X197187Y5307D01*
X197263Y5366D01*
X197341Y5422D01*
X197422Y5475D01*
X197504Y5524D01*
X197588Y5570D01*
X197675Y5613D01*
X197762Y5652D01*
X197852Y5688D01*
X197942Y5720D01*
X198034Y5748D01*
X198127Y5773D01*
X198221Y5794D01*
X198315Y5811D01*
X198410Y5825D01*
X198506Y5834D01*
X198602Y5840D01*
X198698Y5842D01*
X198794Y5840D01*
X198890Y5834D01*
X198986Y5825D01*
X199081Y5811D01*
X199175Y5794D01*
X199269Y5773D01*
X199362Y5748D01*
X199454Y5720D01*
X199544Y5688D01*
X199634Y5652D01*
X199721Y5613D01*
X199808Y5570D01*
X199892Y5524D01*
X199974Y5475D01*
X200055Y5422D01*
X200133Y5366D01*
X200209Y5307D01*
X200282Y5245D01*
X200353Y5181D01*
X200422Y5113D01*
X200487Y5043D01*
X200550Y4970D01*
X200610Y4894D01*
X200666Y4817D01*
X200720Y4737D01*
X200770Y4655D01*
X200817Y4571D01*
X200861Y4486D01*
X200901Y4398D01*
X200937Y4309D01*
X200970Y4219D01*
X200971Y4219D02*
X201070Y4012D01*
X201163Y3802D01*
X201251Y3589D01*
X201334Y3375D01*
X201412Y3159D01*
X201485Y2941D01*
X201553Y2721D01*
X201615Y2500D01*
X201672Y2277D01*
X201724Y2053D01*
X201770Y1828D01*
X201811Y1602D01*
X201846Y1375D01*
X201876Y1147D01*
X201901Y918D01*
X201920Y689D01*
X201934Y460D01*
X201942Y230D01*
X201945Y0D01*
X195453Y0D02*
X195456Y-230D01*
X195464Y-460D01*
X195478Y-689D01*
X195497Y-918D01*
X195522Y-1147D01*
X195552Y-1375D01*
X195587Y-1602D01*
X195628Y-1828D01*
X195674Y-2053D01*
X195726Y-2277D01*
X195783Y-2500D01*
X195845Y-2721D01*
X195913Y-2941D01*
X195986Y-3159D01*
X196064Y-3375D01*
X196147Y-3589D01*
X196235Y-3801D01*
X196328Y-4012D01*
X196427Y-4219D01*
X196426Y-4219D02*
X196459Y-4309D01*
X196495Y-4398D01*
X196536Y-4486D01*
X196579Y-4571D01*
X196626Y-4655D01*
X196676Y-4737D01*
X196730Y-4817D01*
X196786Y-4894D01*
X196846Y-4970D01*
X196909Y-5043D01*
X196974Y-5113D01*
X197043Y-5181D01*
X197114Y-5245D01*
X197187Y-5307D01*
X197263Y-5366D01*
X197341Y-5422D01*
X197422Y-5475D01*
X197504Y-5524D01*
X197588Y-5570D01*
X197675Y-5613D01*
X197762Y-5652D01*
X197852Y-5688D01*
X197942Y-5720D01*
X198034Y-5748D01*
X198127Y-5773D01*
X198221Y-5794D01*
X198315Y-5811D01*
X198410Y-5825D01*
X198506Y-5834D01*
X198602Y-5840D01*
X198698Y-5842D01*
X200970Y-4219D02*
X201069Y-4012D01*
X201162Y-3801D01*
X201250Y-3589D01*
X201333Y-3375D01*
X201411Y-3159D01*
X201484Y-2941D01*
X201552Y-2721D01*
X201614Y-2500D01*
X201671Y-2277D01*
X201723Y-2053D01*
X201769Y-1828D01*
X201810Y-1602D01*
X201845Y-1375D01*
X201875Y-1147D01*
X201900Y-918D01*
X201919Y-689D01*
X201933Y-460D01*
X201941Y-230D01*
X201944Y0D01*
X200970Y-4219D02*
X200937Y-4309D01*
X200901Y-4398D01*
X200861Y-4486D01*
X200817Y-4571D01*
X200770Y-4655D01*
X200720Y-4737D01*
X200666Y-4817D01*
X200610Y-4894D01*
X200550Y-4970D01*
X200487Y-5043D01*
X200422Y-5113D01*
X200353Y-5181D01*
X200282Y-5245D01*
X200209Y-5307D01*
X200133Y-5366D01*
X200055Y-5422D01*
X199974Y-5475D01*
X199892Y-5524D01*
X199808Y-5570D01*
X199721Y-5613D01*
X199634Y-5652D01*
X199544Y-5688D01*
X199454Y-5720D01*
X199362Y-5748D01*
X199269Y-5773D01*
X199175Y-5794D01*
X199081Y-5811D01*
X198986Y-5825D01*
X198890Y-5834D01*
X198794Y-5840D01*
X198698Y-5842D01*
X196102Y-3246D02*
X201295Y3246D01*
X206883Y0D02*
X206886Y230D01*
X206894Y460D01*
X206908Y689D01*
X206927Y918D01*
X206952Y1147D01*
X206982Y1374D01*
X207017Y1602D01*
X207058Y1828D01*
X207104Y2053D01*
X207156Y2277D01*
X207213Y2499D01*
X207275Y2721D01*
X207343Y2940D01*
X207416Y3158D01*
X207494Y3375D01*
X207577Y3589D01*
X207665Y3801D01*
X207758Y4011D01*
X207857Y4219D01*
X207856Y4219D02*
X207889Y4309D01*
X207925Y4398D01*
X207965Y4486D01*
X208009Y4571D01*
X208056Y4655D01*
X208106Y4737D01*
X208160Y4817D01*
X208216Y4894D01*
X208276Y4970D01*
X208339Y5043D01*
X208404Y5113D01*
X208473Y5181D01*
X208544Y5245D01*
X208617Y5307D01*
X208693Y5366D01*
X208771Y5422D01*
X208852Y5475D01*
X208934Y5524D01*
X209018Y5570D01*
X209105Y5613D01*
X209192Y5652D01*
X209282Y5688D01*
X209372Y5720D01*
X209464Y5748D01*
X209557Y5773D01*
X209651Y5794D01*
X209745Y5811D01*
X209840Y5825D01*
X209936Y5834D01*
X210032Y5840D01*
X210128Y5842D01*
X210224Y5840D01*
X210320Y5834D01*
X210416Y5825D01*
X210511Y5811D01*
X210605Y5794D01*
X210699Y5773D01*
X210792Y5748D01*
X210884Y5720D01*
X210974Y5688D01*
X211064Y5652D01*
X211151Y5613D01*
X211238Y5570D01*
X211322Y5524D01*
X211404Y5475D01*
X211485Y5422D01*
X211563Y5366D01*
X211639Y5307D01*
X211712Y5245D01*
X211783Y5181D01*
X211852Y5113D01*
X211917Y5043D01*
X211980Y4970D01*
X212040Y4894D01*
X212096Y4817D01*
X212150Y4737D01*
X212200Y4655D01*
X212247Y4571D01*
X212291Y4486D01*
X212331Y4398D01*
X212367Y4309D01*
X212400Y4219D01*
X212499Y4012D01*
X212592Y3802D01*
X212680Y3589D01*
X212763Y3375D01*
X212841Y3159D01*
X212914Y2941D01*
X212982Y2721D01*
X213044Y2500D01*
X213101Y2277D01*
X213153Y2053D01*
X213199Y1828D01*
X213240Y1602D01*
X213275Y1375D01*
X213305Y1147D01*
X213330Y918D01*
X213349Y689D01*
X213363Y460D01*
X213371Y230D01*
X213374Y0D01*
X206883Y0D02*
X206886Y-230D01*
X206894Y-460D01*
X206908Y-689D01*
X206927Y-918D01*
X206952Y-1147D01*
X206982Y-1375D01*
X207017Y-1602D01*
X207058Y-1828D01*
X207104Y-2053D01*
X207156Y-2277D01*
X207213Y-2500D01*
X207275Y-2721D01*
X207343Y-2941D01*
X207416Y-3159D01*
X207494Y-3375D01*
X207577Y-3589D01*
X207665Y-3801D01*
X207758Y-4012D01*
X207857Y-4219D01*
X207856Y-4219D02*
X207889Y-4309D01*
X207925Y-4398D01*
X207966Y-4486D01*
X208009Y-4571D01*
X208056Y-4655D01*
X208106Y-4737D01*
X208160Y-4817D01*
X208216Y-4894D01*
X208276Y-4970D01*
X208339Y-5043D01*
X208404Y-5113D01*
X208473Y-5181D01*
X208544Y-5245D01*
X208617Y-5307D01*
X208693Y-5366D01*
X208771Y-5422D01*
X208852Y-5475D01*
X208934Y-5524D01*
X209018Y-5570D01*
X209105Y-5613D01*
X209192Y-5652D01*
X209282Y-5688D01*
X209372Y-5720D01*
X209464Y-5748D01*
X209557Y-5773D01*
X209651Y-5794D01*
X209745Y-5811D01*
X209840Y-5825D01*
X209936Y-5834D01*
X210032Y-5840D01*
X210128Y-5842D01*
X212400Y-4219D02*
X212499Y-4012D01*
X212592Y-3801D01*
X212680Y-3589D01*
X212763Y-3375D01*
X212841Y-3159D01*
X212914Y-2941D01*
X212982Y-2721D01*
X213044Y-2500D01*
X213101Y-2277D01*
X213153Y-2053D01*
X213199Y-1828D01*
X213240Y-1602D01*
X213275Y-1375D01*
X213305Y-1147D01*
X213330Y-918D01*
X213349Y-689D01*
X213363Y-460D01*
X213371Y-230D01*
X213374Y0D01*
X212400Y-4219D02*
X212367Y-4309D01*
X212331Y-4398D01*
X212291Y-4486D01*
X212247Y-4571D01*
X212200Y-4655D01*
X212150Y-4737D01*
X212096Y-4817D01*
X212040Y-4894D01*
X211980Y-4970D01*
X211917Y-5043D01*
X211852Y-5113D01*
X211783Y-5181D01*
X211712Y-5245D01*
X211639Y-5307D01*
X211563Y-5366D01*
X211485Y-5422D01*
X211404Y-5475D01*
X211322Y-5524D01*
X211238Y-5570D01*
X211151Y-5613D01*
X211064Y-5652D01*
X210974Y-5688D01*
X210884Y-5720D01*
X210792Y-5748D01*
X210699Y-5773D01*
X210605Y-5794D01*
X210511Y-5811D01*
X210416Y-5825D01*
X210320Y-5834D01*
X210224Y-5840D01*
X210128Y-5842D01*
X207532Y-3246D02*
X212725Y3246D01*
X218313Y3246D02*
X221558Y5842D01*
X221558Y-5842D01*
X218313Y-5842D02*
X224804Y-5842D01*
X229856Y-1298D02*
X237645Y-1298D01*
X242697Y0D02*
X242700Y230D01*
X242708Y460D01*
X242722Y689D01*
X242741Y918D01*
X242766Y1147D01*
X242796Y1374D01*
X242831Y1602D01*
X242872Y1828D01*
X242918Y2053D01*
X242970Y2277D01*
X243027Y2499D01*
X243089Y2721D01*
X243157Y2940D01*
X243230Y3158D01*
X243308Y3375D01*
X243391Y3589D01*
X243479Y3801D01*
X243572Y4011D01*
X243671Y4219D01*
X243670Y4219D02*
X243703Y4309D01*
X243739Y4398D01*
X243779Y4486D01*
X243823Y4571D01*
X243870Y4655D01*
X243920Y4737D01*
X243974Y4817D01*
X244030Y4894D01*
X244090Y4970D01*
X244153Y5043D01*
X244218Y5113D01*
X244287Y5181D01*
X244358Y5245D01*
X244431Y5307D01*
X244507Y5366D01*
X244585Y5422D01*
X244666Y5475D01*
X244748Y5524D01*
X244832Y5570D01*
X244919Y5613D01*
X245006Y5652D01*
X245096Y5688D01*
X245186Y5720D01*
X245278Y5748D01*
X245371Y5773D01*
X245465Y5794D01*
X245559Y5811D01*
X245654Y5825D01*
X245750Y5834D01*
X245846Y5840D01*
X245942Y5842D01*
X246038Y5840D01*
X246134Y5834D01*
X246230Y5825D01*
X246325Y5811D01*
X246419Y5794D01*
X246513Y5773D01*
X246606Y5748D01*
X246698Y5720D01*
X246788Y5688D01*
X246878Y5652D01*
X246965Y5613D01*
X247052Y5570D01*
X247136Y5524D01*
X247218Y5475D01*
X247299Y5422D01*
X247377Y5366D01*
X247453Y5307D01*
X247526Y5245D01*
X247597Y5181D01*
X247666Y5113D01*
X247731Y5043D01*
X247794Y4970D01*
X247854Y4894D01*
X247910Y4817D01*
X247964Y4737D01*
X248014Y4655D01*
X248061Y4571D01*
X248105Y4486D01*
X248145Y4398D01*
X248181Y4309D01*
X248214Y4219D01*
X248313Y4012D01*
X248406Y3802D01*
X248494Y3589D01*
X248577Y3375D01*
X248655Y3159D01*
X248728Y2941D01*
X248796Y2721D01*
X248858Y2500D01*
X248915Y2277D01*
X248967Y2053D01*
X249013Y1828D01*
X249054Y1602D01*
X249089Y1375D01*
X249119Y1147D01*
X249144Y918D01*
X249163Y689D01*
X249177Y460D01*
X249185Y230D01*
X249188Y0D01*
X242697Y0D02*
X242700Y-230D01*
X242708Y-460D01*
X242722Y-689D01*
X242741Y-918D01*
X242766Y-1147D01*
X242796Y-1375D01*
X242831Y-1602D01*
X242872Y-1828D01*
X242918Y-2053D01*
X242970Y-2277D01*
X243027Y-2500D01*
X243089Y-2721D01*
X243157Y-2941D01*
X243230Y-3159D01*
X243308Y-3375D01*
X243391Y-3589D01*
X243479Y-3801D01*
X243572Y-4012D01*
X243671Y-4219D01*
X243670Y-4219D02*
X243703Y-4309D01*
X243739Y-4398D01*
X243780Y-4486D01*
X243823Y-4571D01*
X243870Y-4655D01*
X243920Y-4737D01*
X243974Y-4817D01*
X244030Y-4894D01*
X244090Y-4970D01*
X244153Y-5043D01*
X244218Y-5113D01*
X244287Y-5181D01*
X244358Y-5245D01*
X244431Y-5307D01*
X244507Y-5366D01*
X244585Y-5422D01*
X244666Y-5475D01*
X244748Y-5524D01*
X244832Y-5570D01*
X244919Y-5613D01*
X245006Y-5652D01*
X245096Y-5688D01*
X245186Y-5720D01*
X245278Y-5748D01*
X245371Y-5773D01*
X245465Y-5794D01*
X245559Y-5811D01*
X245654Y-5825D01*
X245750Y-5834D01*
X245846Y-5840D01*
X245942Y-5842D01*
X248214Y-4219D02*
X248313Y-4012D01*
X248406Y-3801D01*
X248494Y-3589D01*
X248577Y-3375D01*
X248655Y-3159D01*
X248728Y-2941D01*
X248796Y-2721D01*
X248858Y-2500D01*
X248915Y-2277D01*
X248967Y-2053D01*
X249013Y-1828D01*
X249054Y-1602D01*
X249089Y-1375D01*
X249119Y-1147D01*
X249144Y-918D01*
X249163Y-689D01*
X249177Y-460D01*
X249185Y-230D01*
X249188Y0D01*
X248214Y-4219D02*
X248181Y-4309D01*
X248145Y-4398D01*
X248105Y-4486D01*
X248061Y-4571D01*
X248014Y-4655D01*
X247964Y-4737D01*
X247910Y-4817D01*
X247854Y-4894D01*
X247794Y-4970D01*
X247731Y-5043D01*
X247666Y-5113D01*
X247597Y-5181D01*
X247526Y-5245D01*
X247453Y-5307D01*
X247377Y-5366D01*
X247299Y-5422D01*
X247218Y-5475D01*
X247136Y-5524D01*
X247052Y-5570D01*
X246965Y-5613D01*
X246878Y-5652D01*
X246788Y-5688D01*
X246698Y-5720D01*
X246606Y-5748D01*
X246513Y-5773D01*
X246419Y-5794D01*
X246325Y-5811D01*
X246230Y-5825D01*
X246134Y-5834D01*
X246038Y-5840D01*
X245942Y-5842D01*
X243346Y-3246D02*
X248539Y3246D01*
X254127Y0D02*
X254130Y230D01*
X254138Y460D01*
X254152Y689D01*
X254171Y918D01*
X254196Y1147D01*
X254226Y1374D01*
X254261Y1602D01*
X254302Y1828D01*
X254348Y2053D01*
X254400Y2277D01*
X254457Y2499D01*
X254519Y2721D01*
X254587Y2940D01*
X254660Y3158D01*
X254738Y3375D01*
X254821Y3589D01*
X254909Y3801D01*
X255002Y4011D01*
X255101Y4219D01*
X255100Y4219D02*
X255133Y4309D01*
X255169Y4398D01*
X255209Y4486D01*
X255253Y4571D01*
X255300Y4655D01*
X255350Y4737D01*
X255404Y4817D01*
X255460Y4894D01*
X255520Y4970D01*
X255583Y5043D01*
X255648Y5113D01*
X255717Y5181D01*
X255788Y5245D01*
X255861Y5307D01*
X255937Y5366D01*
X256015Y5422D01*
X256096Y5475D01*
X256178Y5524D01*
X256262Y5570D01*
X256349Y5613D01*
X256436Y5652D01*
X256526Y5688D01*
X256616Y5720D01*
X256708Y5748D01*
X256801Y5773D01*
X256895Y5794D01*
X256989Y5811D01*
X257084Y5825D01*
X257180Y5834D01*
X257276Y5840D01*
X257372Y5842D01*
X257468Y5840D01*
X257564Y5834D01*
X257660Y5825D01*
X257755Y5811D01*
X257849Y5794D01*
X257943Y5773D01*
X258036Y5748D01*
X258128Y5720D01*
X258218Y5688D01*
X258308Y5652D01*
X258395Y5613D01*
X258482Y5570D01*
X258566Y5524D01*
X258648Y5475D01*
X258729Y5422D01*
X258807Y5366D01*
X258883Y5307D01*
X258956Y5245D01*
X259027Y5181D01*
X259096Y5113D01*
X259161Y5043D01*
X259224Y4970D01*
X259284Y4894D01*
X259340Y4817D01*
X259394Y4737D01*
X259444Y4655D01*
X259491Y4571D01*
X259535Y4486D01*
X259575Y4398D01*
X259611Y4309D01*
X259644Y4219D01*
X259743Y4012D01*
X259836Y3802D01*
X259924Y3589D01*
X260007Y3375D01*
X260085Y3159D01*
X260158Y2941D01*
X260226Y2721D01*
X260288Y2500D01*
X260345Y2277D01*
X260397Y2053D01*
X260443Y1828D01*
X260484Y1602D01*
X260519Y1375D01*
X260549Y1147D01*
X260574Y918D01*
X260593Y689D01*
X260607Y460D01*
X260615Y230D01*
X260618Y0D01*
X254126Y0D02*
X254129Y-230D01*
X254137Y-460D01*
X254151Y-689D01*
X254170Y-918D01*
X254195Y-1147D01*
X254225Y-1375D01*
X254260Y-1602D01*
X254301Y-1828D01*
X254347Y-2053D01*
X254399Y-2277D01*
X254456Y-2500D01*
X254518Y-2721D01*
X254586Y-2941D01*
X254659Y-3159D01*
X254737Y-3375D01*
X254820Y-3589D01*
X254908Y-3801D01*
X255001Y-4012D01*
X255100Y-4219D01*
X255133Y-4309D01*
X255169Y-4398D01*
X255210Y-4486D01*
X255253Y-4571D01*
X255300Y-4655D01*
X255350Y-4737D01*
X255404Y-4817D01*
X255460Y-4894D01*
X255520Y-4970D01*
X255583Y-5043D01*
X255648Y-5113D01*
X255717Y-5181D01*
X255788Y-5245D01*
X255861Y-5307D01*
X255937Y-5366D01*
X256015Y-5422D01*
X256096Y-5475D01*
X256178Y-5524D01*
X256262Y-5570D01*
X256349Y-5613D01*
X256436Y-5652D01*
X256526Y-5688D01*
X256616Y-5720D01*
X256708Y-5748D01*
X256801Y-5773D01*
X256895Y-5794D01*
X256989Y-5811D01*
X257084Y-5825D01*
X257180Y-5834D01*
X257276Y-5840D01*
X257372Y-5842D01*
X259644Y-4219D02*
X259743Y-4012D01*
X259836Y-3801D01*
X259924Y-3589D01*
X260007Y-3375D01*
X260085Y-3159D01*
X260158Y-2941D01*
X260226Y-2721D01*
X260288Y-2500D01*
X260345Y-2277D01*
X260397Y-2053D01*
X260443Y-1828D01*
X260484Y-1602D01*
X260519Y-1375D01*
X260549Y-1147D01*
X260574Y-918D01*
X260593Y-689D01*
X260607Y-460D01*
X260615Y-230D01*
X260618Y0D01*
X259644Y-4219D02*
X259611Y-4309D01*
X259575Y-4398D01*
X259535Y-4486D01*
X259491Y-4571D01*
X259444Y-4655D01*
X259394Y-4737D01*
X259340Y-4817D01*
X259284Y-4894D01*
X259224Y-4970D01*
X259161Y-5043D01*
X259096Y-5113D01*
X259027Y-5181D01*
X258956Y-5245D01*
X258883Y-5307D01*
X258807Y-5366D01*
X258729Y-5422D01*
X258648Y-5475D01*
X258566Y-5524D01*
X258482Y-5570D01*
X258395Y-5613D01*
X258308Y-5652D01*
X258218Y-5688D01*
X258128Y-5720D01*
X258036Y-5748D01*
X257943Y-5773D01*
X257849Y-5794D01*
X257755Y-5811D01*
X257660Y-5825D01*
X257564Y-5834D01*
X257468Y-5840D01*
X257372Y-5842D01*
X254776Y-3246D02*
X259969Y3246D01*
X265557Y3246D02*
X268802Y5842D01*
X268802Y-5842D01*
X265557Y-5842D02*
X272048Y-5842D01*
X140208Y-13208D02*
X140208Y-24892D01*
X140208Y-18401D02*
X146699Y-18401D01*
X146699Y-13208D02*
X146699Y-24892D01*
X152019Y-21646D02*
X152019Y-16454D01*
X152021Y-16341D01*
X152027Y-16228D01*
X152037Y-16115D01*
X152051Y-16002D01*
X152068Y-15890D01*
X152090Y-15779D01*
X152115Y-15669D01*
X152145Y-15559D01*
X152178Y-15451D01*
X152215Y-15344D01*
X152255Y-15238D01*
X152300Y-15134D01*
X152348Y-15031D01*
X152399Y-14930D01*
X152454Y-14831D01*
X152512Y-14734D01*
X152574Y-14639D01*
X152639Y-14546D01*
X152707Y-14456D01*
X152778Y-14368D01*
X152853Y-14282D01*
X152930Y-14199D01*
X153010Y-14119D01*
X153093Y-14042D01*
X153179Y-13967D01*
X153267Y-13896D01*
X153357Y-13828D01*
X153450Y-13763D01*
X153545Y-13701D01*
X153642Y-13643D01*
X153741Y-13588D01*
X153842Y-13537D01*
X153945Y-13489D01*
X154049Y-13444D01*
X154155Y-13404D01*
X154262Y-13367D01*
X154370Y-13334D01*
X154480Y-13304D01*
X154590Y-13279D01*
X154701Y-13257D01*
X154813Y-13240D01*
X154926Y-13226D01*
X155039Y-13216D01*
X155152Y-13210D01*
X155265Y-13208D01*
X155378Y-13210D01*
X155491Y-13216D01*
X155604Y-13226D01*
X155717Y-13240D01*
X155829Y-13257D01*
X155940Y-13279D01*
X156050Y-13304D01*
X156160Y-13334D01*
X156268Y-13367D01*
X156375Y-13404D01*
X156481Y-13444D01*
X156585Y-13489D01*
X156688Y-13537D01*
X156789Y-13588D01*
X156888Y-13643D01*
X156985Y-13701D01*
X157080Y-13763D01*
X157173Y-13828D01*
X157263Y-13896D01*
X157351Y-13967D01*
X157437Y-14042D01*
X157520Y-14119D01*
X157600Y-14199D01*
X157677Y-14282D01*
X157752Y-14368D01*
X157823Y-14456D01*
X157891Y-14546D01*
X157956Y-14639D01*
X158018Y-14734D01*
X158076Y-14831D01*
X158131Y-14930D01*
X158182Y-15031D01*
X158230Y-15134D01*
X158275Y-15238D01*
X158315Y-15344D01*
X158352Y-15451D01*
X158385Y-15559D01*
X158415Y-15669D01*
X158440Y-15779D01*
X158462Y-15890D01*
X158479Y-16002D01*
X158493Y-16115D01*
X158503Y-16228D01*
X158509Y-16341D01*
X158511Y-16454D01*
X158510Y-16454D02*
X158510Y-21646D01*
X158511Y-21646D02*
X158509Y-21759D01*
X158503Y-21872D01*
X158493Y-21985D01*
X158479Y-22098D01*
X158462Y-22210D01*
X158440Y-22321D01*
X158415Y-22431D01*
X158385Y-22541D01*
X158352Y-22649D01*
X158315Y-22756D01*
X158275Y-22862D01*
X158230Y-22966D01*
X158182Y-23069D01*
X158131Y-23170D01*
X158076Y-23269D01*
X158018Y-23366D01*
X157956Y-23461D01*
X157891Y-23554D01*
X157823Y-23644D01*
X157752Y-23732D01*
X157677Y-23818D01*
X157600Y-23901D01*
X157520Y-23981D01*
X157437Y-24058D01*
X157351Y-24133D01*
X157263Y-24204D01*
X157173Y-24272D01*
X157080Y-24337D01*
X156985Y-24399D01*
X156888Y-24457D01*
X156789Y-24512D01*
X156688Y-24563D01*
X156585Y-24611D01*
X156481Y-24656D01*
X156375Y-24696D01*
X156268Y-24733D01*
X156160Y-24766D01*
X156050Y-24796D01*
X155940Y-24821D01*
X155829Y-24843D01*
X155717Y-24860D01*
X155604Y-24874D01*
X155491Y-24884D01*
X155378Y-24890D01*
X155265Y-24892D01*
X155152Y-24890D01*
X155039Y-24884D01*
X154926Y-24874D01*
X154813Y-24860D01*
X154701Y-24843D01*
X154590Y-24821D01*
X154480Y-24796D01*
X154370Y-24766D01*
X154262Y-24733D01*
X154155Y-24696D01*
X154049Y-24656D01*
X153945Y-24611D01*
X153842Y-24563D01*
X153741Y-24512D01*
X153642Y-24457D01*
X153545Y-24399D01*
X153450Y-24337D01*
X153357Y-24272D01*
X153267Y-24204D01*
X153179Y-24133D01*
X153093Y-24058D01*
X153010Y-23981D01*
X152930Y-23901D01*
X152853Y-23818D01*
X152778Y-23732D01*
X152707Y-23644D01*
X152639Y-23554D01*
X152574Y-23461D01*
X152512Y-23366D01*
X152454Y-23269D01*
X152399Y-23170D01*
X152348Y-23069D01*
X152300Y-22966D01*
X152255Y-22862D01*
X152215Y-22756D01*
X152178Y-22649D01*
X152145Y-22541D01*
X152115Y-22431D01*
X152090Y-22321D01*
X152068Y-22210D01*
X152051Y-22098D01*
X152037Y-21985D01*
X152027Y-21872D01*
X152021Y-21759D01*
X152019Y-21646D01*
X163853Y-24892D02*
X163853Y-13208D01*
X163853Y-24892D02*
X169045Y-24892D01*
X173759Y-24892D02*
X173759Y-13208D01*
X173759Y-24892D02*
X178951Y-24892D01*
X186507Y-18725D02*
X182612Y-13208D01*
X186507Y-18725D02*
X190401Y-13208D01*
X186507Y-18725D02*
X186507Y-24892D01*
X195904Y-16129D02*
X195860Y-16054D01*
X195820Y-15978D01*
X195783Y-15900D01*
X195749Y-15820D01*
X195719Y-15739D01*
X195693Y-15656D01*
X195671Y-15573D01*
X195652Y-15488D01*
X195637Y-15403D01*
X195626Y-15317D01*
X195619Y-15231D01*
X195616Y-15145D01*
X195617Y-15058D01*
X195622Y-14972D01*
X195630Y-14886D01*
X195643Y-14800D01*
X195659Y-14715D01*
X195679Y-14631D01*
X195703Y-14548D01*
X195731Y-14466D01*
X195762Y-14385D01*
X195797Y-14306D01*
X195836Y-14229D01*
X195878Y-14153D01*
X195923Y-14080D01*
X195972Y-14008D01*
X196024Y-13939D01*
X196079Y-13872D01*
X196137Y-13808D01*
X196197Y-13746D01*
X196261Y-13688D01*
X196327Y-13632D01*
X196395Y-13579D01*
X196466Y-13529D01*
X196539Y-13483D01*
X196614Y-13440D01*
X196691Y-13400D01*
X196770Y-13364D01*
X196850Y-13332D01*
X196932Y-13303D01*
X197014Y-13278D01*
X197098Y-13257D01*
X197183Y-13239D01*
X197268Y-13226D01*
X197354Y-13216D01*
X197441Y-13210D01*
X197527Y-13208D01*
X195905Y-16129D02*
X201422Y-24892D01*
X199150Y-16129D02*
X199194Y-16054D01*
X199234Y-15978D01*
X199271Y-15900D01*
X199305Y-15820D01*
X199335Y-15739D01*
X199361Y-15656D01*
X199383Y-15573D01*
X199402Y-15488D01*
X199417Y-15403D01*
X199428Y-15317D01*
X199435Y-15231D01*
X199438Y-15145D01*
X199437Y-15058D01*
X199432Y-14972D01*
X199424Y-14886D01*
X199411Y-14800D01*
X199395Y-14715D01*
X199375Y-14631D01*
X199351Y-14548D01*
X199323Y-14466D01*
X199292Y-14386D01*
X199257Y-14306D01*
X199218Y-14229D01*
X199176Y-14153D01*
X199131Y-14080D01*
X199082Y-14008D01*
X199030Y-13939D01*
X198975Y-13872D01*
X198917Y-13808D01*
X198857Y-13746D01*
X198793Y-13688D01*
X198727Y-13632D01*
X198659Y-13579D01*
X198588Y-13529D01*
X198515Y-13483D01*
X198440Y-13440D01*
X198363Y-13400D01*
X198284Y-13364D01*
X198204Y-13332D01*
X198122Y-13303D01*
X198040Y-13278D01*
X197956Y-13257D01*
X197871Y-13239D01*
X197786Y-13226D01*
X197700Y-13216D01*
X197613Y-13210D01*
X197527Y-13208D01*
X194931Y-22945D02*
X194933Y-23032D01*
X194939Y-23120D01*
X194949Y-23206D01*
X194962Y-23293D01*
X194980Y-23378D01*
X195001Y-23463D01*
X195026Y-23547D01*
X195055Y-23629D01*
X195088Y-23710D01*
X195124Y-23790D01*
X195163Y-23868D01*
X195207Y-23944D01*
X195253Y-24018D01*
X195303Y-24089D01*
X195356Y-24159D01*
X195412Y-24226D01*
X195471Y-24290D01*
X195533Y-24352D01*
X195597Y-24411D01*
X195664Y-24467D01*
X195734Y-24520D01*
X195805Y-24570D01*
X195879Y-24616D01*
X195955Y-24660D01*
X196033Y-24699D01*
X196113Y-24735D01*
X196194Y-24768D01*
X196276Y-24797D01*
X196360Y-24822D01*
X196445Y-24843D01*
X196530Y-24861D01*
X196617Y-24874D01*
X196703Y-24884D01*
X196791Y-24890D01*
X196878Y-24892D01*
X194931Y-22945D02*
X194933Y-22870D01*
X194938Y-22796D01*
X194946Y-22722D01*
X194958Y-22648D01*
X194974Y-22575D01*
X194992Y-22503D01*
X195014Y-22432D01*
X195039Y-22362D01*
X195068Y-22293D01*
X195099Y-22225D01*
X195134Y-22159D01*
X195172Y-22095D01*
X195212Y-22032D01*
X195256Y-21971D01*
X195255Y-21971D02*
X199150Y-16129D01*
X197852Y-24567D02*
X197791Y-24611D01*
X197728Y-24651D01*
X197664Y-24689D01*
X197598Y-24724D01*
X197530Y-24755D01*
X197461Y-24784D01*
X197391Y-24809D01*
X197320Y-24831D01*
X197248Y-24849D01*
X197175Y-24865D01*
X197101Y-24877D01*
X197027Y-24885D01*
X196953Y-24890D01*
X196878Y-24892D01*
X197852Y-24567D02*
X202720Y-20997D01*
X208684Y-24892D02*
X211281Y-24892D01*
X208684Y-24892D02*
X208585Y-24890D01*
X208485Y-24884D01*
X208386Y-24875D01*
X208288Y-24862D01*
X208190Y-24845D01*
X208092Y-24824D01*
X207996Y-24799D01*
X207901Y-24771D01*
X207807Y-24739D01*
X207714Y-24704D01*
X207622Y-24665D01*
X207532Y-24622D01*
X207444Y-24577D01*
X207357Y-24527D01*
X207273Y-24475D01*
X207190Y-24419D01*
X207110Y-24361D01*
X207032Y-24299D01*
X206957Y-24234D01*
X206884Y-24166D01*
X206814Y-24096D01*
X206746Y-24023D01*
X206681Y-23948D01*
X206619Y-23870D01*
X206561Y-23790D01*
X206505Y-23707D01*
X206453Y-23623D01*
X206403Y-23536D01*
X206358Y-23448D01*
X206315Y-23358D01*
X206276Y-23266D01*
X206241Y-23173D01*
X206209Y-23079D01*
X206181Y-22984D01*
X206156Y-22888D01*
X206135Y-22790D01*
X206118Y-22692D01*
X206105Y-22594D01*
X206096Y-22495D01*
X206090Y-22395D01*
X206088Y-22296D01*
X206088Y-15804D01*
X206087Y-15804D02*
X206089Y-15705D01*
X206095Y-15605D01*
X206104Y-15506D01*
X206117Y-15408D01*
X206135Y-15310D01*
X206155Y-15212D01*
X206180Y-15116D01*
X206208Y-15020D01*
X206240Y-14926D01*
X206275Y-14833D01*
X206314Y-14742D01*
X206357Y-14652D01*
X206402Y-14563D01*
X206452Y-14477D01*
X206504Y-14392D01*
X206560Y-14310D01*
X206619Y-14230D01*
X206680Y-14152D01*
X206745Y-14076D01*
X206813Y-14003D01*
X206883Y-13933D01*
X206956Y-13865D01*
X207032Y-13800D01*
X207110Y-13739D01*
X207190Y-13680D01*
X207272Y-13624D01*
X207357Y-13572D01*
X207443Y-13523D01*
X207532Y-13477D01*
X207622Y-13434D01*
X207713Y-13395D01*
X207806Y-13360D01*
X207900Y-13328D01*
X207996Y-13300D01*
X208092Y-13275D01*
X208190Y-13255D01*
X208288Y-13237D01*
X208386Y-13224D01*
X208485Y-13215D01*
X208584Y-13209D01*
X208684Y-13207D01*
X208684Y-13208D02*
X211281Y-13208D01*
X215533Y-19699D02*
X215533Y-22296D01*
X215533Y-19699D02*
X215535Y-19598D01*
X215541Y-19498D01*
X215551Y-19398D01*
X215564Y-19298D01*
X215582Y-19199D01*
X215603Y-19100D01*
X215628Y-19003D01*
X215657Y-18906D01*
X215690Y-18811D01*
X215726Y-18717D01*
X215766Y-18625D01*
X215809Y-18534D01*
X215856Y-18445D01*
X215906Y-18358D01*
X215960Y-18272D01*
X216017Y-18189D01*
X216077Y-18109D01*
X216140Y-18030D01*
X216207Y-17954D01*
X216276Y-17881D01*
X216348Y-17811D01*
X216422Y-17743D01*
X216499Y-17678D01*
X216579Y-17617D01*
X216661Y-17558D01*
X216745Y-17503D01*
X216831Y-17451D01*
X216919Y-17402D01*
X217009Y-17357D01*
X217101Y-17315D01*
X217194Y-17277D01*
X217289Y-17243D01*
X217384Y-17212D01*
X217481Y-17185D01*
X217579Y-17162D01*
X217678Y-17142D01*
X217778Y-17127D01*
X217878Y-17115D01*
X217978Y-17107D01*
X218079Y-17103D01*
X218179Y-17103D01*
X218280Y-17107D01*
X218380Y-17115D01*
X218480Y-17127D01*
X218580Y-17142D01*
X218679Y-17162D01*
X218777Y-17185D01*
X218874Y-17212D01*
X218969Y-17243D01*
X219064Y-17277D01*
X219157Y-17315D01*
X219249Y-17357D01*
X219339Y-17402D01*
X219427Y-17451D01*
X219513Y-17503D01*
X219597Y-17558D01*
X219679Y-17617D01*
X219759Y-17678D01*
X219836Y-17743D01*
X219910Y-17811D01*
X219982Y-17881D01*
X220051Y-17954D01*
X220118Y-18030D01*
X220181Y-18109D01*
X220241Y-18189D01*
X220298Y-18272D01*
X220352Y-18358D01*
X220402Y-18445D01*
X220449Y-18534D01*
X220492Y-18625D01*
X220532Y-18717D01*
X220568Y-18811D01*
X220601Y-18906D01*
X220630Y-19003D01*
X220655Y-19100D01*
X220676Y-19199D01*
X220694Y-19298D01*
X220707Y-19398D01*
X220717Y-19498D01*
X220723Y-19598D01*
X220725Y-19699D01*
X220726Y-19699D02*
X220726Y-22296D01*
X220725Y-22296D02*
X220723Y-22397D01*
X220717Y-22497D01*
X220707Y-22597D01*
X220694Y-22697D01*
X220676Y-22796D01*
X220655Y-22895D01*
X220630Y-22992D01*
X220601Y-23089D01*
X220568Y-23184D01*
X220532Y-23278D01*
X220492Y-23370D01*
X220449Y-23461D01*
X220402Y-23550D01*
X220352Y-23637D01*
X220298Y-23723D01*
X220241Y-23806D01*
X220181Y-23886D01*
X220118Y-23965D01*
X220051Y-24041D01*
X219982Y-24114D01*
X219910Y-24184D01*
X219836Y-24252D01*
X219759Y-24317D01*
X219679Y-24378D01*
X219597Y-24437D01*
X219513Y-24492D01*
X219427Y-24544D01*
X219339Y-24593D01*
X219249Y-24638D01*
X219157Y-24680D01*
X219064Y-24718D01*
X218969Y-24752D01*
X218874Y-24783D01*
X218777Y-24810D01*
X218679Y-24833D01*
X218580Y-24853D01*
X218480Y-24868D01*
X218380Y-24880D01*
X218280Y-24888D01*
X218179Y-24892D01*
X218079Y-24892D01*
X217978Y-24888D01*
X217878Y-24880D01*
X217778Y-24868D01*
X217678Y-24853D01*
X217579Y-24833D01*
X217481Y-24810D01*
X217384Y-24783D01*
X217289Y-24752D01*
X217194Y-24718D01*
X217101Y-24680D01*
X217009Y-24638D01*
X216919Y-24593D01*
X216831Y-24544D01*
X216745Y-24492D01*
X216661Y-24437D01*
X216579Y-24378D01*
X216499Y-24317D01*
X216422Y-24252D01*
X216348Y-24184D01*
X216276Y-24114D01*
X216207Y-24041D01*
X216140Y-23965D01*
X216077Y-23886D01*
X216017Y-23806D01*
X215960Y-23723D01*
X215906Y-23637D01*
X215856Y-23550D01*
X215809Y-23461D01*
X215766Y-23370D01*
X215726Y-23278D01*
X215690Y-23184D01*
X215657Y-23089D01*
X215628Y-22992D01*
X215603Y-22895D01*
X215582Y-22796D01*
X215564Y-22697D01*
X215551Y-22597D01*
X215541Y-22497D01*
X215535Y-22397D01*
X215533Y-22296D01*
X225044Y-24243D02*
X225044Y-24892D01*
X225044Y-24243D02*
X225693Y-24243D01*
X225693Y-24892D01*
X225044Y-24892D01*
X229573Y-24892D02*
X230222Y-24892D01*
X229573Y-24892D02*
X229573Y-24243D01*
X230222Y-24243D01*
X230222Y-24892D01*
X229248Y-27488D01*
X235099Y-24892D02*
X235099Y-13208D01*
X235099Y-24892D02*
X240292Y-24892D01*
X243522Y-17103D02*
X247416Y-17103D01*
X244820Y-13208D02*
X244820Y-22945D01*
X244822Y-23032D01*
X244828Y-23120D01*
X244838Y-23206D01*
X244851Y-23293D01*
X244869Y-23378D01*
X244890Y-23463D01*
X244915Y-23547D01*
X244944Y-23629D01*
X244977Y-23710D01*
X245013Y-23790D01*
X245052Y-23868D01*
X245096Y-23944D01*
X245142Y-24018D01*
X245192Y-24089D01*
X245245Y-24159D01*
X245301Y-24226D01*
X245360Y-24290D01*
X245422Y-24352D01*
X245486Y-24411D01*
X245553Y-24467D01*
X245623Y-24520D01*
X245694Y-24570D01*
X245768Y-24616D01*
X245844Y-24660D01*
X245922Y-24699D01*
X246002Y-24735D01*
X246083Y-24768D01*
X246165Y-24797D01*
X246249Y-24822D01*
X246334Y-24843D01*
X246419Y-24861D01*
X246506Y-24874D01*
X246592Y-24884D01*
X246680Y-24890D01*
X246767Y-24892D01*
X247416Y-24892D01*
X256862Y-24892D02*
X256862Y-13208D01*
X256862Y-24892D02*
X253616Y-24892D01*
X253529Y-24890D01*
X253441Y-24884D01*
X253355Y-24874D01*
X253268Y-24861D01*
X253183Y-24843D01*
X253098Y-24822D01*
X253014Y-24797D01*
X252932Y-24768D01*
X252851Y-24735D01*
X252771Y-24699D01*
X252693Y-24660D01*
X252617Y-24616D01*
X252543Y-24570D01*
X252472Y-24520D01*
X252402Y-24467D01*
X252335Y-24411D01*
X252271Y-24352D01*
X252209Y-24290D01*
X252150Y-24226D01*
X252094Y-24159D01*
X252041Y-24089D01*
X251991Y-24018D01*
X251945Y-23944D01*
X251901Y-23868D01*
X251862Y-23790D01*
X251826Y-23710D01*
X251793Y-23629D01*
X251764Y-23547D01*
X251739Y-23463D01*
X251718Y-23378D01*
X251700Y-23293D01*
X251687Y-23206D01*
X251677Y-23120D01*
X251671Y-23032D01*
X251669Y-22945D01*
X251669Y-19050D01*
X251671Y-18963D01*
X251677Y-18875D01*
X251687Y-18789D01*
X251700Y-18702D01*
X251718Y-18617D01*
X251739Y-18532D01*
X251764Y-18448D01*
X251793Y-18366D01*
X251826Y-18285D01*
X251862Y-18205D01*
X251901Y-18127D01*
X251945Y-18051D01*
X251991Y-17977D01*
X252041Y-17906D01*
X252094Y-17836D01*
X252150Y-17769D01*
X252209Y-17705D01*
X252271Y-17643D01*
X252335Y-17584D01*
X252402Y-17528D01*
X252472Y-17475D01*
X252543Y-17425D01*
X252617Y-17379D01*
X252693Y-17335D01*
X252771Y-17296D01*
X252851Y-17260D01*
X252932Y-17227D01*
X253014Y-17198D01*
X253098Y-17173D01*
X253183Y-17152D01*
X253268Y-17134D01*
X253355Y-17121D01*
X253441Y-17111D01*
X253529Y-17105D01*
X253616Y-17103D01*
X256862Y-17103D01*
X261620Y-24243D02*
X261620Y-24892D01*
X261620Y-24243D02*
X262269Y-24243D01*
X262269Y-24892D01*
X261620Y-24892D01*
D11*
X254000Y283210D02*
X254000Y326390D01*
X279400Y326390D02*
X279400Y283210D01*
X276860Y328930D02*
X256540Y328930D01*
X256540Y280670D02*
X276860Y280670D01*
X254000Y326390D02*
X254002Y326490D01*
X254008Y326589D01*
X254018Y326689D01*
X254031Y326787D01*
X254049Y326886D01*
X254070Y326983D01*
X254095Y327079D01*
X254124Y327175D01*
X254157Y327269D01*
X254193Y327362D01*
X254233Y327453D01*
X254277Y327543D01*
X254324Y327631D01*
X254374Y327717D01*
X254428Y327801D01*
X254485Y327883D01*
X254545Y327962D01*
X254609Y328040D01*
X254675Y328114D01*
X254744Y328186D01*
X254816Y328255D01*
X254890Y328321D01*
X254968Y328385D01*
X255047Y328445D01*
X255129Y328502D01*
X255213Y328556D01*
X255299Y328606D01*
X255387Y328653D01*
X255477Y328697D01*
X255568Y328737D01*
X255661Y328773D01*
X255755Y328806D01*
X255851Y328835D01*
X255947Y328860D01*
X256044Y328881D01*
X256143Y328899D01*
X256241Y328912D01*
X256341Y328922D01*
X256440Y328928D01*
X256540Y328930D01*
X254000Y283210D02*
X254002Y283110D01*
X254008Y283011D01*
X254018Y282911D01*
X254031Y282813D01*
X254049Y282714D01*
X254070Y282617D01*
X254095Y282521D01*
X254124Y282425D01*
X254157Y282331D01*
X254193Y282238D01*
X254233Y282147D01*
X254277Y282057D01*
X254324Y281969D01*
X254374Y281883D01*
X254428Y281799D01*
X254485Y281717D01*
X254545Y281638D01*
X254609Y281560D01*
X254675Y281486D01*
X254744Y281414D01*
X254816Y281345D01*
X254890Y281279D01*
X254968Y281215D01*
X255047Y281155D01*
X255129Y281098D01*
X255213Y281044D01*
X255299Y280994D01*
X255387Y280947D01*
X255477Y280903D01*
X255568Y280863D01*
X255661Y280827D01*
X255755Y280794D01*
X255851Y280765D01*
X255947Y280740D01*
X256044Y280719D01*
X256143Y280701D01*
X256241Y280688D01*
X256341Y280678D01*
X256440Y280672D01*
X256540Y280670D01*
X279400Y326390D02*
X279398Y326490D01*
X279392Y326589D01*
X279382Y326689D01*
X279369Y326787D01*
X279351Y326886D01*
X279330Y326983D01*
X279305Y327079D01*
X279276Y327175D01*
X279243Y327269D01*
X279207Y327362D01*
X279167Y327453D01*
X279123Y327543D01*
X279076Y327631D01*
X279026Y327717D01*
X278972Y327801D01*
X278915Y327883D01*
X278855Y327962D01*
X278791Y328040D01*
X278725Y328114D01*
X278656Y328186D01*
X278584Y328255D01*
X278510Y328321D01*
X278432Y328385D01*
X278353Y328445D01*
X278271Y328502D01*
X278187Y328556D01*
X278101Y328606D01*
X278013Y328653D01*
X277923Y328697D01*
X277832Y328737D01*
X277739Y328773D01*
X277645Y328806D01*
X277549Y328835D01*
X277453Y328860D01*
X277356Y328881D01*
X277257Y328899D01*
X277159Y328912D01*
X277059Y328922D01*
X276960Y328928D01*
X276860Y328930D01*
X279400Y283210D02*
X279398Y283110D01*
X279392Y283011D01*
X279382Y282911D01*
X279369Y282813D01*
X279351Y282714D01*
X279330Y282617D01*
X279305Y282521D01*
X279276Y282425D01*
X279243Y282331D01*
X279207Y282238D01*
X279167Y282147D01*
X279123Y282057D01*
X279076Y281969D01*
X279026Y281883D01*
X278972Y281799D01*
X278915Y281717D01*
X278855Y281638D01*
X278791Y281560D01*
X278725Y281486D01*
X278656Y281414D01*
X278584Y281345D01*
X278510Y281279D01*
X278432Y281215D01*
X278353Y281155D01*
X278271Y281098D01*
X278187Y281044D01*
X278101Y280994D01*
X278013Y280947D01*
X277923Y280903D01*
X277832Y280863D01*
X277739Y280827D01*
X277645Y280794D01*
X277549Y280765D01*
X277453Y280740D01*
X277356Y280719D01*
X277257Y280701D01*
X277159Y280688D01*
X277059Y280678D01*
X276960Y280672D01*
X276860Y280670D01*
X266700Y307340D02*
X266700Y308610D01*
D12*
X266700Y307340D02*
X259080Y307340D01*
X266700Y307340D02*
X274320Y307340D01*
X266700Y302260D02*
X259080Y302260D01*
X266700Y302260D02*
X274320Y302260D01*
D11*
X266700Y302260D02*
X266700Y300990D01*
D13*
X250825Y287655D02*
X250825Y285115D01*
X250823Y285015D01*
X250817Y284916D01*
X250807Y284816D01*
X250794Y284718D01*
X250776Y284619D01*
X250755Y284522D01*
X250730Y284426D01*
X250701Y284330D01*
X250668Y284236D01*
X250632Y284143D01*
X250592Y284052D01*
X250548Y283962D01*
X250501Y283874D01*
X250451Y283788D01*
X250397Y283704D01*
X250340Y283622D01*
X250280Y283543D01*
X250216Y283465D01*
X250150Y283391D01*
X250081Y283319D01*
X250009Y283250D01*
X249935Y283184D01*
X249857Y283120D01*
X249778Y283060D01*
X249696Y283003D01*
X249612Y282949D01*
X249526Y282899D01*
X249438Y282852D01*
X249348Y282808D01*
X249257Y282768D01*
X249164Y282732D01*
X249070Y282699D01*
X248974Y282670D01*
X248878Y282645D01*
X248781Y282624D01*
X248682Y282606D01*
X248584Y282593D01*
X248484Y282583D01*
X248385Y282577D01*
X248285Y282575D01*
X241935Y282575D01*
X241835Y282577D01*
X241736Y282583D01*
X241636Y282593D01*
X241538Y282606D01*
X241439Y282624D01*
X241342Y282645D01*
X241246Y282670D01*
X241150Y282699D01*
X241056Y282732D01*
X240963Y282768D01*
X240872Y282808D01*
X240782Y282852D01*
X240694Y282899D01*
X240608Y282949D01*
X240524Y283003D01*
X240442Y283060D01*
X240363Y283120D01*
X240285Y283184D01*
X240211Y283250D01*
X240139Y283319D01*
X240070Y283391D01*
X240004Y283465D01*
X239940Y283543D01*
X239880Y283622D01*
X239823Y283704D01*
X239769Y283788D01*
X239719Y283874D01*
X239672Y283962D01*
X239628Y284052D01*
X239588Y284143D01*
X239552Y284236D01*
X239519Y284330D01*
X239490Y284426D01*
X239465Y284522D01*
X239444Y284619D01*
X239426Y284718D01*
X239413Y284816D01*
X239403Y284916D01*
X239397Y285015D01*
X239395Y285115D01*
X239395Y287655D01*
X241935Y292137D02*
X239395Y295312D01*
X250825Y295312D01*
X250825Y292137D02*
X250825Y298487D01*
D11*
X266700Y354330D02*
X266700Y359410D01*
X269240Y356870D02*
X264160Y356870D01*
X238760Y381000D02*
X238768Y381686D01*
X238794Y382371D01*
X238836Y383055D01*
X238895Y383739D01*
X238970Y384420D01*
X239062Y385100D01*
X239171Y385777D01*
X239297Y386451D01*
X239439Y387122D01*
X239597Y387789D01*
X239772Y388452D01*
X239963Y389111D01*
X240170Y389764D01*
X240393Y390413D01*
X240632Y391055D01*
X240887Y391692D01*
X241157Y392322D01*
X241443Y392946D01*
X241743Y393562D01*
X242059Y394171D01*
X242390Y394772D01*
X242735Y395364D01*
X243095Y395948D01*
X243469Y396523D01*
X243857Y397088D01*
X244258Y397644D01*
X244674Y398190D01*
X245102Y398725D01*
X245544Y399250D01*
X245998Y399763D01*
X246465Y400266D01*
X246943Y400757D01*
X247434Y401235D01*
X247937Y401702D01*
X248450Y402156D01*
X248975Y402598D01*
X249510Y403026D01*
X250056Y403442D01*
X250612Y403843D01*
X251177Y404231D01*
X251752Y404605D01*
X252336Y404965D01*
X252928Y405310D01*
X253529Y405641D01*
X254138Y405957D01*
X254754Y406257D01*
X255378Y406543D01*
X256008Y406813D01*
X256645Y407068D01*
X257287Y407307D01*
X257936Y407530D01*
X258589Y407737D01*
X259248Y407928D01*
X259911Y408103D01*
X260578Y408261D01*
X261249Y408403D01*
X261923Y408529D01*
X262600Y408638D01*
X263280Y408730D01*
X263961Y408805D01*
X264645Y408864D01*
X265329Y408906D01*
X266014Y408932D01*
X266700Y408940D01*
X267386Y408932D01*
X268071Y408906D01*
X268755Y408864D01*
X269439Y408805D01*
X270120Y408730D01*
X270800Y408638D01*
X271477Y408529D01*
X272151Y408403D01*
X272822Y408261D01*
X273489Y408103D01*
X274152Y407928D01*
X274811Y407737D01*
X275464Y407530D01*
X276113Y407307D01*
X276755Y407068D01*
X277392Y406813D01*
X278022Y406543D01*
X278646Y406257D01*
X279262Y405957D01*
X279871Y405641D01*
X280472Y405310D01*
X281064Y404965D01*
X281648Y404605D01*
X282223Y404231D01*
X282788Y403843D01*
X283344Y403442D01*
X283890Y403026D01*
X284425Y402598D01*
X284950Y402156D01*
X285463Y401702D01*
X285966Y401235D01*
X286457Y400757D01*
X286935Y400266D01*
X287402Y399763D01*
X287856Y399250D01*
X288298Y398725D01*
X288726Y398190D01*
X289142Y397644D01*
X289543Y397088D01*
X289931Y396523D01*
X290305Y395948D01*
X290665Y395364D01*
X291010Y394772D01*
X291341Y394171D01*
X291657Y393562D01*
X291957Y392946D01*
X292243Y392322D01*
X292513Y391692D01*
X292768Y391055D01*
X293007Y390413D01*
X293230Y389764D01*
X293437Y389111D01*
X293628Y388452D01*
X293803Y387789D01*
X293961Y387122D01*
X294103Y386451D01*
X294229Y385777D01*
X294338Y385100D01*
X294430Y384420D01*
X294505Y383739D01*
X294564Y383055D01*
X294606Y382371D01*
X294632Y381686D01*
X294640Y381000D01*
X294632Y380314D01*
X294606Y379629D01*
X294564Y378945D01*
X294505Y378261D01*
X294430Y377580D01*
X294338Y376900D01*
X294229Y376223D01*
X294103Y375549D01*
X293961Y374878D01*
X293803Y374211D01*
X293628Y373548D01*
X293437Y372889D01*
X293230Y372236D01*
X293007Y371587D01*
X292768Y370945D01*
X292513Y370308D01*
X292243Y369678D01*
X291957Y369054D01*
X291657Y368438D01*
X291341Y367829D01*
X291010Y367228D01*
X290665Y366636D01*
X290305Y366052D01*
X289931Y365477D01*
X289543Y364912D01*
X289142Y364356D01*
X288726Y363810D01*
X288298Y363275D01*
X287856Y362750D01*
X287402Y362237D01*
X286935Y361734D01*
X286457Y361243D01*
X285966Y360765D01*
X285463Y360298D01*
X284950Y359844D01*
X284425Y359402D01*
X283890Y358974D01*
X283344Y358558D01*
X282788Y358157D01*
X282223Y357769D01*
X281648Y357395D01*
X281064Y357035D01*
X280472Y356690D01*
X279871Y356359D01*
X279262Y356043D01*
X278646Y355743D01*
X278022Y355457D01*
X277392Y355187D01*
X276755Y354932D01*
X276113Y354693D01*
X275464Y354470D01*
X274811Y354263D01*
X274152Y354072D01*
X273489Y353897D01*
X272822Y353739D01*
X272151Y353597D01*
X271477Y353471D01*
X270800Y353362D01*
X270120Y353270D01*
X269439Y353195D01*
X268755Y353136D01*
X268071Y353094D01*
X267386Y353068D01*
X266700Y353060D01*
X266014Y353068D01*
X265329Y353094D01*
X264645Y353136D01*
X263961Y353195D01*
X263280Y353270D01*
X262600Y353362D01*
X261923Y353471D01*
X261249Y353597D01*
X260578Y353739D01*
X259911Y353897D01*
X259248Y354072D01*
X258589Y354263D01*
X257936Y354470D01*
X257287Y354693D01*
X256645Y354932D01*
X256008Y355187D01*
X255378Y355457D01*
X254754Y355743D01*
X254138Y356043D01*
X253529Y356359D01*
X252928Y356690D01*
X252336Y357035D01*
X251752Y357395D01*
X251177Y357769D01*
X250612Y358157D01*
X250056Y358558D01*
X249510Y358974D01*
X248975Y359402D01*
X248450Y359844D01*
X247937Y360298D01*
X247434Y360765D01*
X246943Y361243D01*
X246465Y361734D01*
X245998Y362237D01*
X245544Y362750D01*
X245102Y363275D01*
X244674Y363810D01*
X244258Y364356D01*
X243857Y364912D01*
X243469Y365477D01*
X243095Y366052D01*
X242735Y366636D01*
X242390Y367228D01*
X242059Y367829D01*
X241743Y368438D01*
X241443Y369054D01*
X241157Y369678D01*
X240887Y370308D01*
X240632Y370945D01*
X240393Y371587D01*
X240170Y372236D01*
X239963Y372889D01*
X239772Y373548D01*
X239597Y374211D01*
X239439Y374878D01*
X239297Y375549D01*
X239171Y376223D01*
X239062Y376900D01*
X238970Y377580D01*
X238895Y378261D01*
X238836Y378945D01*
X238794Y379629D01*
X238768Y380314D01*
X238760Y381000D01*
D13*
X303493Y394335D02*
X306033Y394335D01*
X303493Y394335D02*
X303393Y394337D01*
X303294Y394343D01*
X303194Y394353D01*
X303096Y394366D01*
X302997Y394384D01*
X302900Y394405D01*
X302804Y394430D01*
X302708Y394459D01*
X302614Y394492D01*
X302521Y394528D01*
X302430Y394568D01*
X302340Y394612D01*
X302252Y394659D01*
X302166Y394709D01*
X302082Y394763D01*
X302000Y394820D01*
X301921Y394880D01*
X301843Y394944D01*
X301769Y395010D01*
X301697Y395079D01*
X301628Y395151D01*
X301562Y395225D01*
X301498Y395303D01*
X301438Y395382D01*
X301381Y395464D01*
X301327Y395548D01*
X301277Y395634D01*
X301230Y395722D01*
X301186Y395812D01*
X301146Y395903D01*
X301110Y395996D01*
X301077Y396090D01*
X301048Y396186D01*
X301023Y396282D01*
X301002Y396379D01*
X300984Y396478D01*
X300971Y396576D01*
X300961Y396676D01*
X300955Y396775D01*
X300953Y396875D01*
X300953Y403225D01*
X300955Y403325D01*
X300961Y403424D01*
X300971Y403524D01*
X300984Y403622D01*
X301002Y403721D01*
X301023Y403818D01*
X301048Y403914D01*
X301077Y404010D01*
X301110Y404104D01*
X301146Y404197D01*
X301186Y404288D01*
X301230Y404378D01*
X301277Y404466D01*
X301327Y404552D01*
X301381Y404636D01*
X301438Y404718D01*
X301498Y404797D01*
X301562Y404875D01*
X301628Y404949D01*
X301697Y405021D01*
X301769Y405090D01*
X301843Y405156D01*
X301921Y405220D01*
X302000Y405280D01*
X302082Y405337D01*
X302166Y405391D01*
X302252Y405441D01*
X302340Y405488D01*
X302430Y405532D01*
X302521Y405572D01*
X302614Y405608D01*
X302708Y405641D01*
X302804Y405670D01*
X302900Y405695D01*
X302997Y405716D01*
X303096Y405734D01*
X303194Y405747D01*
X303294Y405757D01*
X303393Y405763D01*
X303493Y405765D01*
X306033Y405765D01*
X314008Y405766D02*
X314112Y405764D01*
X314217Y405758D01*
X314321Y405749D01*
X314424Y405736D01*
X314527Y405718D01*
X314629Y405698D01*
X314731Y405673D01*
X314831Y405645D01*
X314931Y405613D01*
X315029Y405577D01*
X315126Y405538D01*
X315221Y405496D01*
X315315Y405450D01*
X315407Y405400D01*
X315497Y405348D01*
X315585Y405292D01*
X315671Y405232D01*
X315755Y405170D01*
X315836Y405105D01*
X315915Y405037D01*
X315992Y404965D01*
X316065Y404892D01*
X316137Y404815D01*
X316205Y404736D01*
X316270Y404655D01*
X316332Y404571D01*
X316392Y404485D01*
X316448Y404397D01*
X316500Y404307D01*
X316550Y404215D01*
X316596Y404121D01*
X316638Y404026D01*
X316677Y403929D01*
X316713Y403831D01*
X316745Y403731D01*
X316773Y403631D01*
X316798Y403529D01*
X316818Y403427D01*
X316836Y403324D01*
X316849Y403221D01*
X316858Y403117D01*
X316864Y403012D01*
X316866Y402908D01*
X314008Y405765D02*
X313890Y405763D01*
X313771Y405757D01*
X313653Y405748D01*
X313536Y405735D01*
X313419Y405717D01*
X313302Y405697D01*
X313186Y405672D01*
X313071Y405644D01*
X312958Y405611D01*
X312845Y405576D01*
X312733Y405536D01*
X312623Y405494D01*
X312514Y405447D01*
X312406Y405397D01*
X312301Y405344D01*
X312197Y405287D01*
X312095Y405227D01*
X311995Y405164D01*
X311897Y405097D01*
X311801Y405028D01*
X311708Y404955D01*
X311617Y404879D01*
X311528Y404801D01*
X311442Y404719D01*
X311359Y404635D01*
X311278Y404549D01*
X311201Y404459D01*
X311126Y404368D01*
X311054Y404274D01*
X310985Y404177D01*
X310920Y404079D01*
X310857Y403978D01*
X310798Y403875D01*
X310742Y403771D01*
X310690Y403665D01*
X310641Y403557D01*
X310596Y403448D01*
X310554Y403337D01*
X310516Y403225D01*
X315913Y400686D02*
X315989Y400761D01*
X316064Y400840D01*
X316135Y400921D01*
X316204Y401005D01*
X316269Y401091D01*
X316331Y401179D01*
X316391Y401269D01*
X316447Y401361D01*
X316500Y401456D01*
X316549Y401552D01*
X316595Y401650D01*
X316638Y401749D01*
X316677Y401850D01*
X316712Y401952D01*
X316744Y402055D01*
X316772Y402159D01*
X316797Y402264D01*
X316818Y402371D01*
X316835Y402477D01*
X316848Y402584D01*
X316857Y402692D01*
X316863Y402800D01*
X316865Y402908D01*
X315913Y400685D02*
X310515Y394335D01*
X316865Y394335D01*
D11*
X241300Y275590D02*
X38100Y275590D01*
X38100Y334010D02*
X241300Y334010D01*
X38100Y334010D02*
X38100Y275590D01*
X241300Y275590D02*
X241300Y294640D01*
X241300Y314960D02*
X241300Y334010D01*
X241300Y314960D02*
X241053Y314957D01*
X240805Y314948D01*
X240558Y314933D01*
X240312Y314912D01*
X240066Y314885D01*
X239821Y314852D01*
X239576Y314813D01*
X239333Y314768D01*
X239091Y314717D01*
X238850Y314660D01*
X238611Y314598D01*
X238373Y314529D01*
X238137Y314455D01*
X237903Y314375D01*
X237671Y314290D01*
X237441Y314198D01*
X237213Y314102D01*
X236988Y313999D01*
X236765Y313892D01*
X236545Y313778D01*
X236328Y313660D01*
X236113Y313536D01*
X235902Y313407D01*
X235694Y313273D01*
X235489Y313134D01*
X235288Y312990D01*
X235090Y312842D01*
X234896Y312688D01*
X234706Y312530D01*
X234520Y312367D01*
X234338Y312200D01*
X234160Y312028D01*
X233986Y311852D01*
X233816Y311672D01*
X233651Y311487D01*
X233491Y311299D01*
X233335Y311107D01*
X233183Y310911D01*
X233037Y310712D01*
X232895Y310509D01*
X232759Y310302D01*
X232627Y310093D01*
X232501Y309880D01*
X232380Y309664D01*
X232264Y309446D01*
X232154Y309224D01*
X232049Y309000D01*
X231949Y308774D01*
X231855Y308545D01*
X231767Y308314D01*
X231684Y308080D01*
X231607Y307845D01*
X231536Y307608D01*
X231470Y307370D01*
X231411Y307130D01*
X231357Y306888D01*
X231309Y306645D01*
X231267Y306402D01*
X231231Y306157D01*
X231201Y305911D01*
X231177Y305665D01*
X231159Y305418D01*
X231147Y305171D01*
X231141Y304924D01*
X231141Y304676D01*
X231147Y304429D01*
X231159Y304182D01*
X231177Y303935D01*
X231201Y303689D01*
X231231Y303443D01*
X231267Y303198D01*
X231309Y302955D01*
X231357Y302712D01*
X231411Y302470D01*
X231470Y302230D01*
X231536Y301992D01*
X231607Y301755D01*
X231684Y301520D01*
X231767Y301286D01*
X231855Y301055D01*
X231949Y300826D01*
X232049Y300600D01*
X232154Y300376D01*
X232264Y300154D01*
X232380Y299936D01*
X232501Y299720D01*
X232627Y299507D01*
X232759Y299298D01*
X232895Y299091D01*
X233037Y298888D01*
X233183Y298689D01*
X233335Y298493D01*
X233491Y298301D01*
X233651Y298113D01*
X233816Y297928D01*
X233986Y297748D01*
X234160Y297572D01*
X234338Y297400D01*
X234520Y297233D01*
X234706Y297070D01*
X234896Y296912D01*
X235090Y296758D01*
X235288Y296610D01*
X235489Y296466D01*
X235694Y296327D01*
X235902Y296193D01*
X236113Y296064D01*
X236328Y295940D01*
X236545Y295822D01*
X236765Y295708D01*
X236988Y295601D01*
X237213Y295498D01*
X237441Y295402D01*
X237671Y295310D01*
X237903Y295225D01*
X238137Y295145D01*
X238373Y295071D01*
X238611Y295002D01*
X238850Y294940D01*
X239091Y294883D01*
X239333Y294832D01*
X239576Y294787D01*
X239821Y294748D01*
X240066Y294715D01*
X240312Y294688D01*
X240558Y294667D01*
X240805Y294652D01*
X241053Y294643D01*
X241300Y294640D01*
D13*
X245745Y311531D02*
X257175Y311531D01*
X257175Y310261D02*
X257175Y312801D01*
X245745Y312801D02*
X245745Y310261D01*
X257175Y320003D02*
X257175Y322543D01*
X257175Y320003D02*
X257173Y319903D01*
X257167Y319804D01*
X257157Y319704D01*
X257144Y319606D01*
X257126Y319507D01*
X257105Y319410D01*
X257080Y319314D01*
X257051Y319218D01*
X257018Y319124D01*
X256982Y319031D01*
X256942Y318940D01*
X256898Y318850D01*
X256851Y318762D01*
X256801Y318676D01*
X256747Y318592D01*
X256690Y318510D01*
X256630Y318431D01*
X256566Y318353D01*
X256500Y318279D01*
X256431Y318207D01*
X256359Y318138D01*
X256285Y318072D01*
X256207Y318008D01*
X256128Y317948D01*
X256046Y317891D01*
X255962Y317837D01*
X255876Y317787D01*
X255788Y317740D01*
X255698Y317696D01*
X255607Y317656D01*
X255514Y317620D01*
X255420Y317587D01*
X255324Y317558D01*
X255228Y317533D01*
X255131Y317512D01*
X255032Y317494D01*
X254934Y317481D01*
X254834Y317471D01*
X254735Y317465D01*
X254635Y317463D01*
X248285Y317463D01*
X248185Y317465D01*
X248086Y317471D01*
X247986Y317481D01*
X247888Y317494D01*
X247789Y317512D01*
X247692Y317533D01*
X247596Y317558D01*
X247500Y317587D01*
X247406Y317620D01*
X247313Y317656D01*
X247222Y317696D01*
X247132Y317740D01*
X247044Y317787D01*
X246958Y317837D01*
X246874Y317891D01*
X246792Y317948D01*
X246713Y318008D01*
X246635Y318072D01*
X246561Y318138D01*
X246489Y318207D01*
X246420Y318279D01*
X246354Y318353D01*
X246290Y318431D01*
X246230Y318510D01*
X246173Y318592D01*
X246119Y318676D01*
X246069Y318762D01*
X246022Y318850D01*
X245978Y318940D01*
X245938Y319031D01*
X245902Y319124D01*
X245869Y319218D01*
X245840Y319314D01*
X245815Y319410D01*
X245794Y319507D01*
X245776Y319606D01*
X245763Y319704D01*
X245753Y319804D01*
X245747Y319903D01*
X245745Y320003D01*
X245745Y322543D01*
X248285Y327025D02*
X245745Y330200D01*
X257175Y330200D01*
X257175Y327025D02*
X257175Y333375D01*
D11*
X54610Y158750D02*
X54510Y158752D01*
X54411Y158758D01*
X54311Y158768D01*
X54213Y158781D01*
X54114Y158799D01*
X54017Y158820D01*
X53921Y158845D01*
X53825Y158874D01*
X53731Y158907D01*
X53638Y158943D01*
X53547Y158983D01*
X53457Y159027D01*
X53369Y159074D01*
X53283Y159124D01*
X53199Y159178D01*
X53117Y159235D01*
X53038Y159295D01*
X52960Y159359D01*
X52886Y159425D01*
X52814Y159494D01*
X52745Y159566D01*
X52679Y159640D01*
X52615Y159718D01*
X52555Y159797D01*
X52498Y159879D01*
X52444Y159963D01*
X52394Y160049D01*
X52347Y160137D01*
X52303Y160227D01*
X52263Y160318D01*
X52227Y160411D01*
X52194Y160505D01*
X52165Y160601D01*
X52140Y160697D01*
X52119Y160794D01*
X52101Y160893D01*
X52088Y160991D01*
X52078Y161091D01*
X52072Y161190D01*
X52070Y161290D01*
X72390Y158750D02*
X72490Y158752D01*
X72589Y158758D01*
X72689Y158768D01*
X72787Y158781D01*
X72886Y158799D01*
X72983Y158820D01*
X73079Y158845D01*
X73175Y158874D01*
X73269Y158907D01*
X73362Y158943D01*
X73453Y158983D01*
X73543Y159027D01*
X73631Y159074D01*
X73717Y159124D01*
X73801Y159178D01*
X73883Y159235D01*
X73962Y159295D01*
X74040Y159359D01*
X74114Y159425D01*
X74186Y159494D01*
X74255Y159566D01*
X74321Y159640D01*
X74385Y159718D01*
X74445Y159797D01*
X74502Y159879D01*
X74556Y159963D01*
X74606Y160049D01*
X74653Y160137D01*
X74697Y160227D01*
X74737Y160318D01*
X74773Y160411D01*
X74806Y160505D01*
X74835Y160601D01*
X74860Y160697D01*
X74881Y160794D01*
X74899Y160893D01*
X74912Y160991D01*
X74922Y161091D01*
X74928Y161190D01*
X74930Y161290D01*
X74930Y219710D02*
X74928Y219810D01*
X74922Y219909D01*
X74912Y220009D01*
X74899Y220107D01*
X74881Y220206D01*
X74860Y220303D01*
X74835Y220399D01*
X74806Y220495D01*
X74773Y220589D01*
X74737Y220682D01*
X74697Y220773D01*
X74653Y220863D01*
X74606Y220951D01*
X74556Y221037D01*
X74502Y221121D01*
X74445Y221203D01*
X74385Y221282D01*
X74321Y221360D01*
X74255Y221434D01*
X74186Y221506D01*
X74114Y221575D01*
X74040Y221641D01*
X73962Y221705D01*
X73883Y221765D01*
X73801Y221822D01*
X73717Y221876D01*
X73631Y221926D01*
X73543Y221973D01*
X73453Y222017D01*
X73362Y222057D01*
X73269Y222093D01*
X73175Y222126D01*
X73079Y222155D01*
X72983Y222180D01*
X72886Y222201D01*
X72787Y222219D01*
X72689Y222232D01*
X72589Y222242D01*
X72490Y222248D01*
X72390Y222250D01*
X54610Y222250D02*
X54510Y222248D01*
X54411Y222242D01*
X54311Y222232D01*
X54213Y222219D01*
X54114Y222201D01*
X54017Y222180D01*
X53921Y222155D01*
X53825Y222126D01*
X53731Y222093D01*
X53638Y222057D01*
X53547Y222017D01*
X53457Y221973D01*
X53369Y221926D01*
X53283Y221876D01*
X53199Y221822D01*
X53117Y221765D01*
X53038Y221705D01*
X52960Y221641D01*
X52886Y221575D01*
X52814Y221506D01*
X52745Y221434D01*
X52679Y221360D01*
X52615Y221282D01*
X52555Y221203D01*
X52498Y221121D01*
X52444Y221037D01*
X52394Y220951D01*
X52347Y220863D01*
X52303Y220773D01*
X52263Y220682D01*
X52227Y220589D01*
X52194Y220495D01*
X52165Y220399D01*
X52140Y220303D01*
X52119Y220206D01*
X52101Y220107D01*
X52088Y220009D01*
X52078Y219909D01*
X52072Y219810D01*
X52070Y219710D01*
X52070Y165100D02*
X52070Y161290D01*
X52070Y165100D02*
X53340Y166370D01*
X74930Y165100D02*
X74930Y161290D01*
X74930Y165100D02*
X73660Y166370D01*
X53340Y214630D02*
X52070Y215900D01*
X53340Y214630D02*
X53340Y166370D01*
X73660Y214630D02*
X74930Y215900D01*
X73660Y214630D02*
X73660Y166370D01*
X52070Y215900D02*
X52070Y219710D01*
X74930Y219710D02*
X74930Y215900D01*
D13*
X48895Y165735D02*
X37465Y165735D01*
X37465Y168910D01*
X37467Y169021D01*
X37473Y169131D01*
X37482Y169242D01*
X37496Y169352D01*
X37513Y169461D01*
X37534Y169570D01*
X37559Y169678D01*
X37588Y169785D01*
X37620Y169891D01*
X37656Y169996D01*
X37696Y170099D01*
X37739Y170201D01*
X37786Y170302D01*
X37837Y170401D01*
X37890Y170498D01*
X37947Y170592D01*
X38008Y170685D01*
X38071Y170776D01*
X38138Y170865D01*
X38208Y170951D01*
X38281Y171034D01*
X38356Y171116D01*
X38434Y171194D01*
X38516Y171269D01*
X38599Y171342D01*
X38685Y171412D01*
X38774Y171479D01*
X38865Y171542D01*
X38958Y171603D01*
X39052Y171660D01*
X39149Y171713D01*
X39248Y171764D01*
X39349Y171811D01*
X39451Y171854D01*
X39554Y171894D01*
X39659Y171930D01*
X39765Y171962D01*
X39872Y171991D01*
X39980Y172016D01*
X40089Y172037D01*
X40198Y172054D01*
X40308Y172068D01*
X40419Y172077D01*
X40529Y172083D01*
X40640Y172085D01*
X40751Y172083D01*
X40861Y172077D01*
X40972Y172068D01*
X41082Y172054D01*
X41191Y172037D01*
X41300Y172016D01*
X41408Y171991D01*
X41515Y171962D01*
X41621Y171930D01*
X41726Y171894D01*
X41829Y171854D01*
X41931Y171811D01*
X42032Y171764D01*
X42131Y171713D01*
X42228Y171660D01*
X42322Y171603D01*
X42415Y171542D01*
X42506Y171479D01*
X42595Y171412D01*
X42681Y171342D01*
X42764Y171269D01*
X42846Y171194D01*
X42924Y171116D01*
X42999Y171034D01*
X43072Y170951D01*
X43142Y170865D01*
X43209Y170776D01*
X43272Y170685D01*
X43333Y170592D01*
X43390Y170498D01*
X43443Y170401D01*
X43494Y170302D01*
X43541Y170201D01*
X43584Y170099D01*
X43624Y169996D01*
X43660Y169891D01*
X43692Y169785D01*
X43721Y169678D01*
X43746Y169570D01*
X43767Y169461D01*
X43784Y169352D01*
X43798Y169242D01*
X43807Y169131D01*
X43813Y169021D01*
X43815Y168910D01*
X43815Y165735D01*
X43815Y169545D02*
X48895Y172085D01*
X40005Y177082D02*
X37465Y180257D01*
X48895Y180257D01*
X48895Y177082D02*
X48895Y183432D01*
D11*
X90170Y161290D02*
X90172Y161190D01*
X90178Y161091D01*
X90188Y160991D01*
X90201Y160893D01*
X90219Y160794D01*
X90240Y160697D01*
X90265Y160601D01*
X90294Y160505D01*
X90327Y160411D01*
X90363Y160318D01*
X90403Y160227D01*
X90447Y160137D01*
X90494Y160049D01*
X90544Y159963D01*
X90598Y159879D01*
X90655Y159797D01*
X90715Y159718D01*
X90779Y159640D01*
X90845Y159566D01*
X90914Y159494D01*
X90986Y159425D01*
X91060Y159359D01*
X91138Y159295D01*
X91217Y159235D01*
X91299Y159178D01*
X91383Y159124D01*
X91469Y159074D01*
X91557Y159027D01*
X91647Y158983D01*
X91738Y158943D01*
X91831Y158907D01*
X91925Y158874D01*
X92021Y158845D01*
X92117Y158820D01*
X92214Y158799D01*
X92313Y158781D01*
X92411Y158768D01*
X92511Y158758D01*
X92610Y158752D01*
X92710Y158750D01*
X110490Y158750D02*
X110590Y158752D01*
X110689Y158758D01*
X110789Y158768D01*
X110887Y158781D01*
X110986Y158799D01*
X111083Y158820D01*
X111179Y158845D01*
X111275Y158874D01*
X111369Y158907D01*
X111462Y158943D01*
X111553Y158983D01*
X111643Y159027D01*
X111731Y159074D01*
X111817Y159124D01*
X111901Y159178D01*
X111983Y159235D01*
X112062Y159295D01*
X112140Y159359D01*
X112214Y159425D01*
X112286Y159494D01*
X112355Y159566D01*
X112421Y159640D01*
X112485Y159718D01*
X112545Y159797D01*
X112602Y159879D01*
X112656Y159963D01*
X112706Y160049D01*
X112753Y160137D01*
X112797Y160227D01*
X112837Y160318D01*
X112873Y160411D01*
X112906Y160505D01*
X112935Y160601D01*
X112960Y160697D01*
X112981Y160794D01*
X112999Y160893D01*
X113012Y160991D01*
X113022Y161091D01*
X113028Y161190D01*
X113030Y161290D01*
X113030Y219710D02*
X113028Y219810D01*
X113022Y219909D01*
X113012Y220009D01*
X112999Y220107D01*
X112981Y220206D01*
X112960Y220303D01*
X112935Y220399D01*
X112906Y220495D01*
X112873Y220589D01*
X112837Y220682D01*
X112797Y220773D01*
X112753Y220863D01*
X112706Y220951D01*
X112656Y221037D01*
X112602Y221121D01*
X112545Y221203D01*
X112485Y221282D01*
X112421Y221360D01*
X112355Y221434D01*
X112286Y221506D01*
X112214Y221575D01*
X112140Y221641D01*
X112062Y221705D01*
X111983Y221765D01*
X111901Y221822D01*
X111817Y221876D01*
X111731Y221926D01*
X111643Y221973D01*
X111553Y222017D01*
X111462Y222057D01*
X111369Y222093D01*
X111275Y222126D01*
X111179Y222155D01*
X111083Y222180D01*
X110986Y222201D01*
X110887Y222219D01*
X110789Y222232D01*
X110689Y222242D01*
X110590Y222248D01*
X110490Y222250D01*
X92710Y222250D02*
X92610Y222248D01*
X92511Y222242D01*
X92411Y222232D01*
X92313Y222219D01*
X92214Y222201D01*
X92117Y222180D01*
X92021Y222155D01*
X91925Y222126D01*
X91831Y222093D01*
X91738Y222057D01*
X91647Y222017D01*
X91557Y221973D01*
X91469Y221926D01*
X91383Y221876D01*
X91299Y221822D01*
X91217Y221765D01*
X91138Y221705D01*
X91060Y221641D01*
X90986Y221575D01*
X90914Y221506D01*
X90845Y221434D01*
X90779Y221360D01*
X90715Y221282D01*
X90655Y221203D01*
X90598Y221121D01*
X90544Y221037D01*
X90494Y220951D01*
X90447Y220863D01*
X90403Y220773D01*
X90363Y220682D01*
X90327Y220589D01*
X90294Y220495D01*
X90265Y220399D01*
X90240Y220303D01*
X90219Y220206D01*
X90201Y220107D01*
X90188Y220009D01*
X90178Y219909D01*
X90172Y219810D01*
X90170Y219710D01*
X90170Y165100D02*
X90170Y161290D01*
X90170Y165100D02*
X91440Y166370D01*
X113030Y165100D02*
X113030Y161290D01*
X113030Y165100D02*
X111760Y166370D01*
X91440Y214630D02*
X90170Y215900D01*
X91440Y214630D02*
X91440Y166370D01*
X111760Y214630D02*
X113030Y215900D01*
X111760Y214630D02*
X111760Y166370D01*
X90170Y215900D02*
X90170Y219710D01*
X113030Y219710D02*
X113030Y215900D01*
D13*
X86995Y165735D02*
X75565Y165735D01*
X75565Y168910D01*
X75567Y169021D01*
X75573Y169131D01*
X75582Y169242D01*
X75596Y169352D01*
X75613Y169461D01*
X75634Y169570D01*
X75659Y169678D01*
X75688Y169785D01*
X75720Y169891D01*
X75756Y169996D01*
X75796Y170099D01*
X75839Y170201D01*
X75886Y170302D01*
X75937Y170401D01*
X75990Y170498D01*
X76047Y170592D01*
X76108Y170685D01*
X76171Y170776D01*
X76238Y170865D01*
X76308Y170951D01*
X76381Y171034D01*
X76456Y171116D01*
X76534Y171194D01*
X76616Y171269D01*
X76699Y171342D01*
X76785Y171412D01*
X76874Y171479D01*
X76965Y171542D01*
X77058Y171603D01*
X77153Y171660D01*
X77249Y171713D01*
X77348Y171764D01*
X77449Y171811D01*
X77551Y171854D01*
X77654Y171894D01*
X77759Y171930D01*
X77865Y171962D01*
X77972Y171991D01*
X78080Y172016D01*
X78189Y172037D01*
X78298Y172054D01*
X78408Y172068D01*
X78519Y172077D01*
X78629Y172083D01*
X78740Y172085D01*
X78851Y172083D01*
X78961Y172077D01*
X79072Y172068D01*
X79182Y172054D01*
X79291Y172037D01*
X79400Y172016D01*
X79508Y171991D01*
X79615Y171962D01*
X79721Y171930D01*
X79826Y171894D01*
X79929Y171854D01*
X80031Y171811D01*
X80132Y171764D01*
X80231Y171713D01*
X80328Y171660D01*
X80422Y171603D01*
X80515Y171542D01*
X80606Y171479D01*
X80695Y171412D01*
X80781Y171342D01*
X80864Y171269D01*
X80946Y171194D01*
X81024Y171116D01*
X81099Y171034D01*
X81172Y170951D01*
X81242Y170865D01*
X81309Y170776D01*
X81372Y170685D01*
X81433Y170592D01*
X81490Y170498D01*
X81543Y170401D01*
X81594Y170302D01*
X81641Y170201D01*
X81684Y170099D01*
X81724Y169996D01*
X81760Y169891D01*
X81792Y169785D01*
X81821Y169678D01*
X81846Y169570D01*
X81867Y169461D01*
X81884Y169352D01*
X81898Y169242D01*
X81907Y169131D01*
X81913Y169021D01*
X81915Y168910D01*
X81915Y165735D01*
X81915Y169545D02*
X86995Y172085D01*
X78423Y183433D02*
X78319Y183431D01*
X78214Y183425D01*
X78110Y183416D01*
X78007Y183403D01*
X77904Y183385D01*
X77802Y183365D01*
X77700Y183340D01*
X77600Y183312D01*
X77500Y183280D01*
X77402Y183244D01*
X77305Y183205D01*
X77210Y183163D01*
X77116Y183117D01*
X77024Y183067D01*
X76934Y183015D01*
X76846Y182959D01*
X76760Y182899D01*
X76676Y182837D01*
X76595Y182772D01*
X76516Y182704D01*
X76439Y182632D01*
X76366Y182559D01*
X76294Y182482D01*
X76226Y182403D01*
X76161Y182322D01*
X76099Y182238D01*
X76039Y182152D01*
X75983Y182064D01*
X75931Y181974D01*
X75881Y181882D01*
X75835Y181788D01*
X75793Y181693D01*
X75754Y181596D01*
X75718Y181498D01*
X75686Y181398D01*
X75658Y181298D01*
X75633Y181196D01*
X75613Y181094D01*
X75595Y180991D01*
X75582Y180888D01*
X75573Y180784D01*
X75567Y180679D01*
X75565Y180575D01*
X75567Y180457D01*
X75573Y180338D01*
X75582Y180220D01*
X75595Y180103D01*
X75613Y179986D01*
X75633Y179869D01*
X75658Y179753D01*
X75686Y179638D01*
X75719Y179525D01*
X75754Y179412D01*
X75794Y179300D01*
X75836Y179190D01*
X75883Y179081D01*
X75933Y178973D01*
X75986Y178868D01*
X76043Y178764D01*
X76103Y178662D01*
X76166Y178562D01*
X76233Y178464D01*
X76302Y178368D01*
X76375Y178275D01*
X76451Y178184D01*
X76529Y178095D01*
X76611Y178009D01*
X76695Y177926D01*
X76781Y177845D01*
X76871Y177768D01*
X76962Y177693D01*
X77056Y177621D01*
X77153Y177552D01*
X77251Y177487D01*
X77352Y177424D01*
X77455Y177365D01*
X77559Y177309D01*
X77665Y177257D01*
X77773Y177208D01*
X77882Y177163D01*
X77993Y177121D01*
X78105Y177083D01*
X80645Y182480D02*
X80570Y182556D01*
X80491Y182631D01*
X80410Y182702D01*
X80326Y182771D01*
X80240Y182836D01*
X80152Y182898D01*
X80062Y182958D01*
X79970Y183014D01*
X79875Y183067D01*
X79779Y183116D01*
X79681Y183162D01*
X79582Y183205D01*
X79481Y183244D01*
X79379Y183279D01*
X79276Y183311D01*
X79172Y183339D01*
X79067Y183364D01*
X78960Y183385D01*
X78854Y183402D01*
X78747Y183415D01*
X78639Y183424D01*
X78531Y183430D01*
X78423Y183432D01*
X80645Y182480D02*
X86995Y177082D01*
X86995Y183432D01*
D11*
X128270Y161290D02*
X128272Y161190D01*
X128278Y161091D01*
X128288Y160991D01*
X128301Y160893D01*
X128319Y160794D01*
X128340Y160697D01*
X128365Y160601D01*
X128394Y160505D01*
X128427Y160411D01*
X128463Y160318D01*
X128503Y160227D01*
X128547Y160137D01*
X128594Y160049D01*
X128644Y159963D01*
X128698Y159879D01*
X128755Y159797D01*
X128815Y159718D01*
X128879Y159640D01*
X128945Y159566D01*
X129014Y159494D01*
X129086Y159425D01*
X129160Y159359D01*
X129238Y159295D01*
X129317Y159235D01*
X129399Y159178D01*
X129483Y159124D01*
X129569Y159074D01*
X129657Y159027D01*
X129747Y158983D01*
X129838Y158943D01*
X129931Y158907D01*
X130025Y158874D01*
X130121Y158845D01*
X130217Y158820D01*
X130314Y158799D01*
X130413Y158781D01*
X130511Y158768D01*
X130611Y158758D01*
X130710Y158752D01*
X130810Y158750D01*
X148590Y158750D02*
X148690Y158752D01*
X148789Y158758D01*
X148889Y158768D01*
X148987Y158781D01*
X149086Y158799D01*
X149183Y158820D01*
X149279Y158845D01*
X149375Y158874D01*
X149469Y158907D01*
X149562Y158943D01*
X149653Y158983D01*
X149743Y159027D01*
X149831Y159074D01*
X149917Y159124D01*
X150001Y159178D01*
X150083Y159235D01*
X150162Y159295D01*
X150240Y159359D01*
X150314Y159425D01*
X150386Y159494D01*
X150455Y159566D01*
X150521Y159640D01*
X150585Y159718D01*
X150645Y159797D01*
X150702Y159879D01*
X150756Y159963D01*
X150806Y160049D01*
X150853Y160137D01*
X150897Y160227D01*
X150937Y160318D01*
X150973Y160411D01*
X151006Y160505D01*
X151035Y160601D01*
X151060Y160697D01*
X151081Y160794D01*
X151099Y160893D01*
X151112Y160991D01*
X151122Y161091D01*
X151128Y161190D01*
X151130Y161290D01*
X151130Y219710D02*
X151128Y219810D01*
X151122Y219909D01*
X151112Y220009D01*
X151099Y220107D01*
X151081Y220206D01*
X151060Y220303D01*
X151035Y220399D01*
X151006Y220495D01*
X150973Y220589D01*
X150937Y220682D01*
X150897Y220773D01*
X150853Y220863D01*
X150806Y220951D01*
X150756Y221037D01*
X150702Y221121D01*
X150645Y221203D01*
X150585Y221282D01*
X150521Y221360D01*
X150455Y221434D01*
X150386Y221506D01*
X150314Y221575D01*
X150240Y221641D01*
X150162Y221705D01*
X150083Y221765D01*
X150001Y221822D01*
X149917Y221876D01*
X149831Y221926D01*
X149743Y221973D01*
X149653Y222017D01*
X149562Y222057D01*
X149469Y222093D01*
X149375Y222126D01*
X149279Y222155D01*
X149183Y222180D01*
X149086Y222201D01*
X148987Y222219D01*
X148889Y222232D01*
X148789Y222242D01*
X148690Y222248D01*
X148590Y222250D01*
X130810Y222250D02*
X130710Y222248D01*
X130611Y222242D01*
X130511Y222232D01*
X130413Y222219D01*
X130314Y222201D01*
X130217Y222180D01*
X130121Y222155D01*
X130025Y222126D01*
X129931Y222093D01*
X129838Y222057D01*
X129747Y222017D01*
X129657Y221973D01*
X129569Y221926D01*
X129483Y221876D01*
X129399Y221822D01*
X129317Y221765D01*
X129238Y221705D01*
X129160Y221641D01*
X129086Y221575D01*
X129014Y221506D01*
X128945Y221434D01*
X128879Y221360D01*
X128815Y221282D01*
X128755Y221203D01*
X128698Y221121D01*
X128644Y221037D01*
X128594Y220951D01*
X128547Y220863D01*
X128503Y220773D01*
X128463Y220682D01*
X128427Y220589D01*
X128394Y220495D01*
X128365Y220399D01*
X128340Y220303D01*
X128319Y220206D01*
X128301Y220107D01*
X128288Y220009D01*
X128278Y219909D01*
X128272Y219810D01*
X128270Y219710D01*
X128270Y165100D02*
X128270Y161290D01*
X128270Y165100D02*
X129540Y166370D01*
X151130Y165100D02*
X151130Y161290D01*
X151130Y165100D02*
X149860Y166370D01*
X129540Y214630D02*
X128270Y215900D01*
X129540Y214630D02*
X129540Y166370D01*
X149860Y214630D02*
X151130Y215900D01*
X149860Y214630D02*
X149860Y166370D01*
X128270Y215900D02*
X128270Y219710D01*
X151130Y219710D02*
X151130Y215900D01*
D13*
X125095Y165735D02*
X113665Y165735D01*
X113665Y168910D01*
X113667Y169021D01*
X113673Y169131D01*
X113682Y169242D01*
X113696Y169352D01*
X113713Y169461D01*
X113734Y169570D01*
X113759Y169678D01*
X113788Y169785D01*
X113820Y169891D01*
X113856Y169996D01*
X113896Y170099D01*
X113939Y170201D01*
X113986Y170302D01*
X114037Y170401D01*
X114090Y170498D01*
X114147Y170592D01*
X114208Y170685D01*
X114271Y170776D01*
X114338Y170865D01*
X114408Y170951D01*
X114481Y171034D01*
X114556Y171116D01*
X114634Y171194D01*
X114716Y171269D01*
X114799Y171342D01*
X114885Y171412D01*
X114974Y171479D01*
X115065Y171542D01*
X115158Y171603D01*
X115253Y171660D01*
X115349Y171713D01*
X115448Y171764D01*
X115549Y171811D01*
X115651Y171854D01*
X115754Y171894D01*
X115859Y171930D01*
X115965Y171962D01*
X116072Y171991D01*
X116180Y172016D01*
X116289Y172037D01*
X116398Y172054D01*
X116508Y172068D01*
X116619Y172077D01*
X116729Y172083D01*
X116840Y172085D01*
X116951Y172083D01*
X117061Y172077D01*
X117172Y172068D01*
X117282Y172054D01*
X117391Y172037D01*
X117500Y172016D01*
X117608Y171991D01*
X117715Y171962D01*
X117821Y171930D01*
X117926Y171894D01*
X118029Y171854D01*
X118131Y171811D01*
X118232Y171764D01*
X118331Y171713D01*
X118428Y171660D01*
X118522Y171603D01*
X118615Y171542D01*
X118706Y171479D01*
X118795Y171412D01*
X118881Y171342D01*
X118964Y171269D01*
X119046Y171194D01*
X119124Y171116D01*
X119199Y171034D01*
X119272Y170951D01*
X119342Y170865D01*
X119409Y170776D01*
X119472Y170685D01*
X119533Y170592D01*
X119590Y170498D01*
X119643Y170401D01*
X119694Y170302D01*
X119741Y170201D01*
X119784Y170099D01*
X119824Y169996D01*
X119860Y169891D01*
X119892Y169785D01*
X119921Y169678D01*
X119946Y169570D01*
X119967Y169461D01*
X119984Y169352D01*
X119998Y169242D01*
X120007Y169131D01*
X120013Y169021D01*
X120015Y168910D01*
X120015Y165735D01*
X120015Y169545D02*
X125095Y172085D01*
X125095Y177082D02*
X125095Y180257D01*
X125093Y180368D01*
X125087Y180478D01*
X125078Y180589D01*
X125064Y180699D01*
X125047Y180808D01*
X125026Y180917D01*
X125001Y181025D01*
X124972Y181132D01*
X124940Y181238D01*
X124904Y181343D01*
X124864Y181446D01*
X124821Y181548D01*
X124774Y181649D01*
X124723Y181748D01*
X124670Y181845D01*
X124613Y181939D01*
X124552Y182032D01*
X124489Y182123D01*
X124422Y182212D01*
X124352Y182298D01*
X124279Y182381D01*
X124204Y182463D01*
X124126Y182541D01*
X124044Y182616D01*
X123961Y182689D01*
X123875Y182759D01*
X123786Y182826D01*
X123695Y182889D01*
X123602Y182950D01*
X123508Y183007D01*
X123411Y183060D01*
X123312Y183111D01*
X123211Y183158D01*
X123109Y183201D01*
X123006Y183241D01*
X122901Y183277D01*
X122795Y183309D01*
X122688Y183338D01*
X122580Y183363D01*
X122471Y183384D01*
X122362Y183401D01*
X122252Y183415D01*
X122141Y183424D01*
X122031Y183430D01*
X121920Y183432D01*
X121809Y183430D01*
X121699Y183424D01*
X121588Y183415D01*
X121478Y183401D01*
X121369Y183384D01*
X121260Y183363D01*
X121152Y183338D01*
X121045Y183309D01*
X120939Y183277D01*
X120834Y183241D01*
X120731Y183201D01*
X120629Y183158D01*
X120528Y183111D01*
X120429Y183060D01*
X120333Y183007D01*
X120238Y182950D01*
X120145Y182889D01*
X120054Y182826D01*
X119965Y182759D01*
X119879Y182689D01*
X119796Y182616D01*
X119714Y182541D01*
X119636Y182463D01*
X119561Y182381D01*
X119488Y182298D01*
X119418Y182212D01*
X119351Y182123D01*
X119288Y182032D01*
X119227Y181939D01*
X119170Y181845D01*
X119117Y181748D01*
X119066Y181649D01*
X119019Y181548D01*
X118976Y181446D01*
X118936Y181343D01*
X118900Y181238D01*
X118868Y181132D01*
X118839Y181025D01*
X118814Y180917D01*
X118793Y180808D01*
X118776Y180699D01*
X118762Y180589D01*
X118753Y180478D01*
X118747Y180368D01*
X118745Y180257D01*
X113665Y180892D02*
X113665Y177082D01*
X113665Y180892D02*
X113667Y180992D01*
X113673Y181091D01*
X113683Y181191D01*
X113696Y181289D01*
X113714Y181388D01*
X113735Y181485D01*
X113760Y181581D01*
X113789Y181677D01*
X113822Y181771D01*
X113858Y181864D01*
X113898Y181955D01*
X113942Y182045D01*
X113989Y182133D01*
X114039Y182219D01*
X114093Y182303D01*
X114150Y182385D01*
X114210Y182464D01*
X114274Y182542D01*
X114340Y182616D01*
X114409Y182688D01*
X114481Y182757D01*
X114555Y182823D01*
X114633Y182887D01*
X114712Y182947D01*
X114794Y183004D01*
X114878Y183058D01*
X114964Y183108D01*
X115052Y183155D01*
X115142Y183199D01*
X115233Y183239D01*
X115326Y183275D01*
X115420Y183308D01*
X115516Y183337D01*
X115612Y183362D01*
X115709Y183383D01*
X115808Y183401D01*
X115906Y183414D01*
X116006Y183424D01*
X116105Y183430D01*
X116205Y183432D01*
X116305Y183430D01*
X116404Y183424D01*
X116504Y183414D01*
X116602Y183401D01*
X116701Y183383D01*
X116798Y183362D01*
X116894Y183337D01*
X116990Y183308D01*
X117084Y183275D01*
X117177Y183239D01*
X117268Y183199D01*
X117358Y183155D01*
X117446Y183108D01*
X117532Y183058D01*
X117616Y183004D01*
X117698Y182947D01*
X117777Y182887D01*
X117855Y182823D01*
X117929Y182757D01*
X118001Y182688D01*
X118070Y182616D01*
X118136Y182542D01*
X118200Y182464D01*
X118260Y182385D01*
X118317Y182303D01*
X118371Y182219D01*
X118421Y182133D01*
X118468Y182045D01*
X118512Y181955D01*
X118552Y181864D01*
X118588Y181771D01*
X118621Y181677D01*
X118650Y181581D01*
X118675Y181485D01*
X118696Y181388D01*
X118714Y181289D01*
X118727Y181191D01*
X118737Y181091D01*
X118743Y180992D01*
X118745Y180892D01*
X118745Y178352D01*
D11*
X166370Y161290D02*
X166372Y161190D01*
X166378Y161091D01*
X166388Y160991D01*
X166401Y160893D01*
X166419Y160794D01*
X166440Y160697D01*
X166465Y160601D01*
X166494Y160505D01*
X166527Y160411D01*
X166563Y160318D01*
X166603Y160227D01*
X166647Y160137D01*
X166694Y160049D01*
X166744Y159963D01*
X166798Y159879D01*
X166855Y159797D01*
X166915Y159718D01*
X166979Y159640D01*
X167045Y159566D01*
X167114Y159494D01*
X167186Y159425D01*
X167260Y159359D01*
X167338Y159295D01*
X167417Y159235D01*
X167499Y159178D01*
X167583Y159124D01*
X167669Y159074D01*
X167757Y159027D01*
X167847Y158983D01*
X167938Y158943D01*
X168031Y158907D01*
X168125Y158874D01*
X168221Y158845D01*
X168317Y158820D01*
X168414Y158799D01*
X168513Y158781D01*
X168611Y158768D01*
X168711Y158758D01*
X168810Y158752D01*
X168910Y158750D01*
X186690Y158750D02*
X186790Y158752D01*
X186889Y158758D01*
X186989Y158768D01*
X187087Y158781D01*
X187186Y158799D01*
X187283Y158820D01*
X187379Y158845D01*
X187475Y158874D01*
X187569Y158907D01*
X187662Y158943D01*
X187753Y158983D01*
X187843Y159027D01*
X187931Y159074D01*
X188017Y159124D01*
X188101Y159178D01*
X188183Y159235D01*
X188262Y159295D01*
X188340Y159359D01*
X188414Y159425D01*
X188486Y159494D01*
X188555Y159566D01*
X188621Y159640D01*
X188685Y159718D01*
X188745Y159797D01*
X188802Y159879D01*
X188856Y159963D01*
X188906Y160049D01*
X188953Y160137D01*
X188997Y160227D01*
X189037Y160318D01*
X189073Y160411D01*
X189106Y160505D01*
X189135Y160601D01*
X189160Y160697D01*
X189181Y160794D01*
X189199Y160893D01*
X189212Y160991D01*
X189222Y161091D01*
X189228Y161190D01*
X189230Y161290D01*
X189230Y219710D02*
X189228Y219810D01*
X189222Y219909D01*
X189212Y220009D01*
X189199Y220107D01*
X189181Y220206D01*
X189160Y220303D01*
X189135Y220399D01*
X189106Y220495D01*
X189073Y220589D01*
X189037Y220682D01*
X188997Y220773D01*
X188953Y220863D01*
X188906Y220951D01*
X188856Y221037D01*
X188802Y221121D01*
X188745Y221203D01*
X188685Y221282D01*
X188621Y221360D01*
X188555Y221434D01*
X188486Y221506D01*
X188414Y221575D01*
X188340Y221641D01*
X188262Y221705D01*
X188183Y221765D01*
X188101Y221822D01*
X188017Y221876D01*
X187931Y221926D01*
X187843Y221973D01*
X187753Y222017D01*
X187662Y222057D01*
X187569Y222093D01*
X187475Y222126D01*
X187379Y222155D01*
X187283Y222180D01*
X187186Y222201D01*
X187087Y222219D01*
X186989Y222232D01*
X186889Y222242D01*
X186790Y222248D01*
X186690Y222250D01*
X168910Y222250D02*
X168810Y222248D01*
X168711Y222242D01*
X168611Y222232D01*
X168513Y222219D01*
X168414Y222201D01*
X168317Y222180D01*
X168221Y222155D01*
X168125Y222126D01*
X168031Y222093D01*
X167938Y222057D01*
X167847Y222017D01*
X167757Y221973D01*
X167669Y221926D01*
X167583Y221876D01*
X167499Y221822D01*
X167417Y221765D01*
X167338Y221705D01*
X167260Y221641D01*
X167186Y221575D01*
X167114Y221506D01*
X167045Y221434D01*
X166979Y221360D01*
X166915Y221282D01*
X166855Y221203D01*
X166798Y221121D01*
X166744Y221037D01*
X166694Y220951D01*
X166647Y220863D01*
X166603Y220773D01*
X166563Y220682D01*
X166527Y220589D01*
X166494Y220495D01*
X166465Y220399D01*
X166440Y220303D01*
X166419Y220206D01*
X166401Y220107D01*
X166388Y220009D01*
X166378Y219909D01*
X166372Y219810D01*
X166370Y219710D01*
X166370Y165100D02*
X166370Y161290D01*
X166370Y165100D02*
X167640Y166370D01*
X189230Y165100D02*
X189230Y161290D01*
X189230Y165100D02*
X187960Y166370D01*
X167640Y214630D02*
X166370Y215900D01*
X167640Y214630D02*
X167640Y166370D01*
X187960Y214630D02*
X189230Y215900D01*
X187960Y214630D02*
X187960Y166370D01*
X166370Y215900D02*
X166370Y219710D01*
X189230Y219710D02*
X189230Y215900D01*
D13*
X163195Y165735D02*
X151765Y165735D01*
X151765Y168910D01*
X151767Y169021D01*
X151773Y169131D01*
X151782Y169242D01*
X151796Y169352D01*
X151813Y169461D01*
X151834Y169570D01*
X151859Y169678D01*
X151888Y169785D01*
X151920Y169891D01*
X151956Y169996D01*
X151996Y170099D01*
X152039Y170201D01*
X152086Y170302D01*
X152137Y170401D01*
X152190Y170498D01*
X152247Y170592D01*
X152308Y170685D01*
X152371Y170776D01*
X152438Y170865D01*
X152508Y170951D01*
X152581Y171034D01*
X152656Y171116D01*
X152734Y171194D01*
X152816Y171269D01*
X152899Y171342D01*
X152985Y171412D01*
X153074Y171479D01*
X153165Y171542D01*
X153258Y171603D01*
X153353Y171660D01*
X153449Y171713D01*
X153548Y171764D01*
X153649Y171811D01*
X153751Y171854D01*
X153854Y171894D01*
X153959Y171930D01*
X154065Y171962D01*
X154172Y171991D01*
X154280Y172016D01*
X154389Y172037D01*
X154498Y172054D01*
X154608Y172068D01*
X154719Y172077D01*
X154829Y172083D01*
X154940Y172085D01*
X155051Y172083D01*
X155161Y172077D01*
X155272Y172068D01*
X155382Y172054D01*
X155491Y172037D01*
X155600Y172016D01*
X155708Y171991D01*
X155815Y171962D01*
X155921Y171930D01*
X156026Y171894D01*
X156129Y171854D01*
X156231Y171811D01*
X156332Y171764D01*
X156431Y171713D01*
X156528Y171660D01*
X156622Y171603D01*
X156715Y171542D01*
X156806Y171479D01*
X156895Y171412D01*
X156981Y171342D01*
X157064Y171269D01*
X157146Y171194D01*
X157224Y171116D01*
X157299Y171034D01*
X157372Y170951D01*
X157442Y170865D01*
X157509Y170776D01*
X157572Y170685D01*
X157633Y170592D01*
X157690Y170498D01*
X157743Y170401D01*
X157794Y170302D01*
X157841Y170201D01*
X157884Y170099D01*
X157924Y169996D01*
X157960Y169891D01*
X157992Y169785D01*
X158021Y169678D01*
X158046Y169570D01*
X158067Y169461D01*
X158084Y169352D01*
X158098Y169242D01*
X158107Y169131D01*
X158113Y169021D01*
X158115Y168910D01*
X158115Y165735D01*
X158115Y169545D02*
X163195Y172085D01*
X160655Y177082D02*
X151765Y179622D01*
X160655Y177082D02*
X160655Y183432D01*
X158115Y181527D02*
X163195Y181527D01*
D11*
X318770Y262890D02*
X318772Y262790D01*
X318778Y262691D01*
X318788Y262591D01*
X318801Y262493D01*
X318819Y262394D01*
X318840Y262297D01*
X318865Y262201D01*
X318894Y262105D01*
X318927Y262011D01*
X318963Y261918D01*
X319003Y261827D01*
X319047Y261737D01*
X319094Y261649D01*
X319144Y261563D01*
X319198Y261479D01*
X319255Y261397D01*
X319315Y261318D01*
X319379Y261240D01*
X319445Y261166D01*
X319514Y261094D01*
X319586Y261025D01*
X319660Y260959D01*
X319738Y260895D01*
X319817Y260835D01*
X319899Y260778D01*
X319983Y260724D01*
X320069Y260674D01*
X320157Y260627D01*
X320247Y260583D01*
X320338Y260543D01*
X320431Y260507D01*
X320525Y260474D01*
X320621Y260445D01*
X320717Y260420D01*
X320814Y260399D01*
X320913Y260381D01*
X321011Y260368D01*
X321111Y260358D01*
X321210Y260352D01*
X321310Y260350D01*
X339090Y260350D02*
X339190Y260352D01*
X339289Y260358D01*
X339389Y260368D01*
X339487Y260381D01*
X339586Y260399D01*
X339683Y260420D01*
X339779Y260445D01*
X339875Y260474D01*
X339969Y260507D01*
X340062Y260543D01*
X340153Y260583D01*
X340243Y260627D01*
X340331Y260674D01*
X340417Y260724D01*
X340501Y260778D01*
X340583Y260835D01*
X340662Y260895D01*
X340740Y260959D01*
X340814Y261025D01*
X340886Y261094D01*
X340955Y261166D01*
X341021Y261240D01*
X341085Y261318D01*
X341145Y261397D01*
X341202Y261479D01*
X341256Y261563D01*
X341306Y261649D01*
X341353Y261737D01*
X341397Y261827D01*
X341437Y261918D01*
X341473Y262011D01*
X341506Y262105D01*
X341535Y262201D01*
X341560Y262297D01*
X341581Y262394D01*
X341599Y262493D01*
X341612Y262591D01*
X341622Y262691D01*
X341628Y262790D01*
X341630Y262890D01*
X341630Y321310D02*
X341628Y321410D01*
X341622Y321509D01*
X341612Y321609D01*
X341599Y321707D01*
X341581Y321806D01*
X341560Y321903D01*
X341535Y321999D01*
X341506Y322095D01*
X341473Y322189D01*
X341437Y322282D01*
X341397Y322373D01*
X341353Y322463D01*
X341306Y322551D01*
X341256Y322637D01*
X341202Y322721D01*
X341145Y322803D01*
X341085Y322882D01*
X341021Y322960D01*
X340955Y323034D01*
X340886Y323106D01*
X340814Y323175D01*
X340740Y323241D01*
X340662Y323305D01*
X340583Y323365D01*
X340501Y323422D01*
X340417Y323476D01*
X340331Y323526D01*
X340243Y323573D01*
X340153Y323617D01*
X340062Y323657D01*
X339969Y323693D01*
X339875Y323726D01*
X339779Y323755D01*
X339683Y323780D01*
X339586Y323801D01*
X339487Y323819D01*
X339389Y323832D01*
X339289Y323842D01*
X339190Y323848D01*
X339090Y323850D01*
X321310Y323850D02*
X321210Y323848D01*
X321111Y323842D01*
X321011Y323832D01*
X320913Y323819D01*
X320814Y323801D01*
X320717Y323780D01*
X320621Y323755D01*
X320525Y323726D01*
X320431Y323693D01*
X320338Y323657D01*
X320247Y323617D01*
X320157Y323573D01*
X320069Y323526D01*
X319983Y323476D01*
X319899Y323422D01*
X319817Y323365D01*
X319738Y323305D01*
X319660Y323241D01*
X319586Y323175D01*
X319514Y323106D01*
X319445Y323034D01*
X319379Y322960D01*
X319315Y322882D01*
X319255Y322803D01*
X319198Y322721D01*
X319144Y322637D01*
X319094Y322551D01*
X319047Y322463D01*
X319003Y322373D01*
X318963Y322282D01*
X318927Y322189D01*
X318894Y322095D01*
X318865Y321999D01*
X318840Y321903D01*
X318819Y321806D01*
X318801Y321707D01*
X318788Y321609D01*
X318778Y321509D01*
X318772Y321410D01*
X318770Y321310D01*
X318770Y266700D02*
X318770Y262890D01*
X318770Y266700D02*
X320040Y267970D01*
X341630Y266700D02*
X341630Y262890D01*
X341630Y266700D02*
X340360Y267970D01*
X320040Y316230D02*
X318770Y317500D01*
X320040Y316230D02*
X320040Y267970D01*
X340360Y316230D02*
X341630Y317500D01*
X340360Y316230D02*
X340360Y267970D01*
X318770Y317500D02*
X318770Y321310D01*
X341630Y321310D02*
X341630Y317500D01*
D13*
X315595Y267335D02*
X304165Y267335D01*
X304165Y270510D01*
X304167Y270621D01*
X304173Y270731D01*
X304182Y270842D01*
X304196Y270952D01*
X304213Y271061D01*
X304234Y271170D01*
X304259Y271278D01*
X304288Y271385D01*
X304320Y271491D01*
X304356Y271596D01*
X304396Y271699D01*
X304439Y271801D01*
X304486Y271902D01*
X304537Y272001D01*
X304590Y272098D01*
X304647Y272192D01*
X304708Y272285D01*
X304771Y272376D01*
X304838Y272465D01*
X304908Y272551D01*
X304981Y272634D01*
X305056Y272716D01*
X305134Y272794D01*
X305216Y272869D01*
X305299Y272942D01*
X305385Y273012D01*
X305474Y273079D01*
X305565Y273142D01*
X305658Y273203D01*
X305753Y273260D01*
X305849Y273313D01*
X305948Y273364D01*
X306049Y273411D01*
X306151Y273454D01*
X306254Y273494D01*
X306359Y273530D01*
X306465Y273562D01*
X306572Y273591D01*
X306680Y273616D01*
X306789Y273637D01*
X306898Y273654D01*
X307008Y273668D01*
X307119Y273677D01*
X307229Y273683D01*
X307340Y273685D01*
X307451Y273683D01*
X307561Y273677D01*
X307672Y273668D01*
X307782Y273654D01*
X307891Y273637D01*
X308000Y273616D01*
X308108Y273591D01*
X308215Y273562D01*
X308321Y273530D01*
X308426Y273494D01*
X308529Y273454D01*
X308631Y273411D01*
X308732Y273364D01*
X308831Y273313D01*
X308928Y273260D01*
X309022Y273203D01*
X309115Y273142D01*
X309206Y273079D01*
X309295Y273012D01*
X309381Y272942D01*
X309464Y272869D01*
X309546Y272794D01*
X309624Y272716D01*
X309699Y272634D01*
X309772Y272551D01*
X309842Y272465D01*
X309909Y272376D01*
X309972Y272285D01*
X310033Y272192D01*
X310090Y272098D01*
X310143Y272001D01*
X310194Y271902D01*
X310241Y271801D01*
X310284Y271699D01*
X310324Y271596D01*
X310360Y271491D01*
X310392Y271385D01*
X310421Y271278D01*
X310446Y271170D01*
X310467Y271061D01*
X310484Y270952D01*
X310498Y270842D01*
X310507Y270731D01*
X310513Y270621D01*
X310515Y270510D01*
X310515Y267335D01*
X310515Y271145D02*
X315595Y273685D01*
X315595Y278682D02*
X315595Y282492D01*
X315593Y282592D01*
X315587Y282691D01*
X315577Y282791D01*
X315564Y282889D01*
X315546Y282988D01*
X315525Y283085D01*
X315500Y283181D01*
X315471Y283277D01*
X315438Y283371D01*
X315402Y283464D01*
X315362Y283555D01*
X315318Y283645D01*
X315271Y283733D01*
X315221Y283819D01*
X315167Y283903D01*
X315110Y283985D01*
X315050Y284064D01*
X314986Y284142D01*
X314920Y284216D01*
X314851Y284288D01*
X314779Y284357D01*
X314705Y284423D01*
X314627Y284487D01*
X314548Y284547D01*
X314466Y284604D01*
X314382Y284658D01*
X314296Y284708D01*
X314208Y284755D01*
X314118Y284799D01*
X314027Y284839D01*
X313934Y284875D01*
X313840Y284908D01*
X313744Y284937D01*
X313648Y284962D01*
X313551Y284983D01*
X313452Y285001D01*
X313354Y285014D01*
X313254Y285024D01*
X313155Y285030D01*
X313055Y285032D01*
X311785Y285032D01*
X311685Y285030D01*
X311586Y285024D01*
X311486Y285014D01*
X311388Y285001D01*
X311289Y284983D01*
X311192Y284962D01*
X311096Y284937D01*
X311000Y284908D01*
X310906Y284875D01*
X310813Y284839D01*
X310722Y284799D01*
X310632Y284755D01*
X310544Y284708D01*
X310458Y284658D01*
X310374Y284604D01*
X310292Y284547D01*
X310213Y284487D01*
X310135Y284423D01*
X310061Y284357D01*
X309989Y284288D01*
X309920Y284216D01*
X309854Y284142D01*
X309790Y284064D01*
X309730Y283985D01*
X309673Y283903D01*
X309619Y283819D01*
X309569Y283733D01*
X309522Y283645D01*
X309478Y283555D01*
X309438Y283464D01*
X309402Y283371D01*
X309369Y283277D01*
X309340Y283181D01*
X309315Y283085D01*
X309294Y282988D01*
X309276Y282889D01*
X309263Y282791D01*
X309253Y282691D01*
X309247Y282592D01*
X309245Y282492D01*
X309245Y278682D01*
X304165Y278682D01*
X304165Y285032D01*
D11*
X356870Y262890D02*
X356872Y262790D01*
X356878Y262691D01*
X356888Y262591D01*
X356901Y262493D01*
X356919Y262394D01*
X356940Y262297D01*
X356965Y262201D01*
X356994Y262105D01*
X357027Y262011D01*
X357063Y261918D01*
X357103Y261827D01*
X357147Y261737D01*
X357194Y261649D01*
X357244Y261563D01*
X357298Y261479D01*
X357355Y261397D01*
X357415Y261318D01*
X357479Y261240D01*
X357545Y261166D01*
X357614Y261094D01*
X357686Y261025D01*
X357760Y260959D01*
X357838Y260895D01*
X357917Y260835D01*
X357999Y260778D01*
X358083Y260724D01*
X358169Y260674D01*
X358257Y260627D01*
X358347Y260583D01*
X358438Y260543D01*
X358531Y260507D01*
X358625Y260474D01*
X358721Y260445D01*
X358817Y260420D01*
X358914Y260399D01*
X359013Y260381D01*
X359111Y260368D01*
X359211Y260358D01*
X359310Y260352D01*
X359410Y260350D01*
X377190Y260350D02*
X377290Y260352D01*
X377389Y260358D01*
X377489Y260368D01*
X377587Y260381D01*
X377686Y260399D01*
X377783Y260420D01*
X377879Y260445D01*
X377975Y260474D01*
X378069Y260507D01*
X378162Y260543D01*
X378253Y260583D01*
X378343Y260627D01*
X378431Y260674D01*
X378517Y260724D01*
X378601Y260778D01*
X378683Y260835D01*
X378762Y260895D01*
X378840Y260959D01*
X378914Y261025D01*
X378986Y261094D01*
X379055Y261166D01*
X379121Y261240D01*
X379185Y261318D01*
X379245Y261397D01*
X379302Y261479D01*
X379356Y261563D01*
X379406Y261649D01*
X379453Y261737D01*
X379497Y261827D01*
X379537Y261918D01*
X379573Y262011D01*
X379606Y262105D01*
X379635Y262201D01*
X379660Y262297D01*
X379681Y262394D01*
X379699Y262493D01*
X379712Y262591D01*
X379722Y262691D01*
X379728Y262790D01*
X379730Y262890D01*
X379730Y321310D02*
X379728Y321410D01*
X379722Y321509D01*
X379712Y321609D01*
X379699Y321707D01*
X379681Y321806D01*
X379660Y321903D01*
X379635Y321999D01*
X379606Y322095D01*
X379573Y322189D01*
X379537Y322282D01*
X379497Y322373D01*
X379453Y322463D01*
X379406Y322551D01*
X379356Y322637D01*
X379302Y322721D01*
X379245Y322803D01*
X379185Y322882D01*
X379121Y322960D01*
X379055Y323034D01*
X378986Y323106D01*
X378914Y323175D01*
X378840Y323241D01*
X378762Y323305D01*
X378683Y323365D01*
X378601Y323422D01*
X378517Y323476D01*
X378431Y323526D01*
X378343Y323573D01*
X378253Y323617D01*
X378162Y323657D01*
X378069Y323693D01*
X377975Y323726D01*
X377879Y323755D01*
X377783Y323780D01*
X377686Y323801D01*
X377587Y323819D01*
X377489Y323832D01*
X377389Y323842D01*
X377290Y323848D01*
X377190Y323850D01*
X359410Y323850D02*
X359310Y323848D01*
X359211Y323842D01*
X359111Y323832D01*
X359013Y323819D01*
X358914Y323801D01*
X358817Y323780D01*
X358721Y323755D01*
X358625Y323726D01*
X358531Y323693D01*
X358438Y323657D01*
X358347Y323617D01*
X358257Y323573D01*
X358169Y323526D01*
X358083Y323476D01*
X357999Y323422D01*
X357917Y323365D01*
X357838Y323305D01*
X357760Y323241D01*
X357686Y323175D01*
X357614Y323106D01*
X357545Y323034D01*
X357479Y322960D01*
X357415Y322882D01*
X357355Y322803D01*
X357298Y322721D01*
X357244Y322637D01*
X357194Y322551D01*
X357147Y322463D01*
X357103Y322373D01*
X357063Y322282D01*
X357027Y322189D01*
X356994Y322095D01*
X356965Y321999D01*
X356940Y321903D01*
X356919Y321806D01*
X356901Y321707D01*
X356888Y321609D01*
X356878Y321509D01*
X356872Y321410D01*
X356870Y321310D01*
X356870Y266700D02*
X356870Y262890D01*
X356870Y266700D02*
X358140Y267970D01*
X379730Y266700D02*
X379730Y262890D01*
X379730Y266700D02*
X378460Y267970D01*
X358140Y316230D02*
X356870Y317500D01*
X358140Y316230D02*
X358140Y267970D01*
X378460Y316230D02*
X379730Y317500D01*
X378460Y316230D02*
X378460Y267970D01*
X356870Y317500D02*
X356870Y321310D01*
X379730Y321310D02*
X379730Y317500D01*
D13*
X353695Y267335D02*
X342265Y267335D01*
X342265Y270510D01*
X342267Y270621D01*
X342273Y270731D01*
X342282Y270842D01*
X342296Y270952D01*
X342313Y271061D01*
X342334Y271170D01*
X342359Y271278D01*
X342388Y271385D01*
X342420Y271491D01*
X342456Y271596D01*
X342496Y271699D01*
X342539Y271801D01*
X342586Y271902D01*
X342637Y272001D01*
X342690Y272098D01*
X342747Y272192D01*
X342808Y272285D01*
X342871Y272376D01*
X342938Y272465D01*
X343008Y272551D01*
X343081Y272634D01*
X343156Y272716D01*
X343234Y272794D01*
X343316Y272869D01*
X343399Y272942D01*
X343485Y273012D01*
X343574Y273079D01*
X343665Y273142D01*
X343758Y273203D01*
X343853Y273260D01*
X343949Y273313D01*
X344048Y273364D01*
X344149Y273411D01*
X344251Y273454D01*
X344354Y273494D01*
X344459Y273530D01*
X344565Y273562D01*
X344672Y273591D01*
X344780Y273616D01*
X344889Y273637D01*
X344998Y273654D01*
X345108Y273668D01*
X345219Y273677D01*
X345329Y273683D01*
X345440Y273685D01*
X345551Y273683D01*
X345661Y273677D01*
X345772Y273668D01*
X345882Y273654D01*
X345991Y273637D01*
X346100Y273616D01*
X346208Y273591D01*
X346315Y273562D01*
X346421Y273530D01*
X346526Y273494D01*
X346629Y273454D01*
X346731Y273411D01*
X346832Y273364D01*
X346931Y273313D01*
X347028Y273260D01*
X347122Y273203D01*
X347215Y273142D01*
X347306Y273079D01*
X347395Y273012D01*
X347481Y272942D01*
X347564Y272869D01*
X347646Y272794D01*
X347724Y272716D01*
X347799Y272634D01*
X347872Y272551D01*
X347942Y272465D01*
X348009Y272376D01*
X348072Y272285D01*
X348133Y272192D01*
X348190Y272098D01*
X348243Y272001D01*
X348294Y271902D01*
X348341Y271801D01*
X348384Y271699D01*
X348424Y271596D01*
X348460Y271491D01*
X348492Y271385D01*
X348521Y271278D01*
X348546Y271170D01*
X348567Y271061D01*
X348584Y270952D01*
X348598Y270842D01*
X348607Y270731D01*
X348613Y270621D01*
X348615Y270510D01*
X348615Y267335D01*
X348615Y271145D02*
X353695Y273685D01*
X347345Y278682D02*
X347345Y282492D01*
X347347Y282592D01*
X347353Y282691D01*
X347363Y282791D01*
X347376Y282889D01*
X347394Y282988D01*
X347415Y283085D01*
X347440Y283181D01*
X347469Y283277D01*
X347502Y283371D01*
X347538Y283464D01*
X347578Y283555D01*
X347622Y283645D01*
X347669Y283733D01*
X347719Y283819D01*
X347773Y283903D01*
X347830Y283985D01*
X347890Y284064D01*
X347954Y284142D01*
X348020Y284216D01*
X348089Y284288D01*
X348161Y284357D01*
X348235Y284423D01*
X348313Y284487D01*
X348392Y284547D01*
X348474Y284604D01*
X348558Y284658D01*
X348644Y284708D01*
X348732Y284755D01*
X348822Y284799D01*
X348913Y284839D01*
X349006Y284875D01*
X349100Y284908D01*
X349196Y284937D01*
X349292Y284962D01*
X349389Y284983D01*
X349488Y285001D01*
X349586Y285014D01*
X349686Y285024D01*
X349785Y285030D01*
X349885Y285032D01*
X350520Y285032D01*
X350631Y285030D01*
X350741Y285024D01*
X350852Y285015D01*
X350962Y285001D01*
X351071Y284984D01*
X351180Y284963D01*
X351288Y284938D01*
X351395Y284909D01*
X351501Y284877D01*
X351606Y284841D01*
X351709Y284801D01*
X351811Y284758D01*
X351912Y284711D01*
X352011Y284660D01*
X352108Y284607D01*
X352202Y284550D01*
X352295Y284489D01*
X352386Y284426D01*
X352475Y284359D01*
X352561Y284289D01*
X352644Y284216D01*
X352726Y284141D01*
X352804Y284063D01*
X352879Y283981D01*
X352952Y283898D01*
X353022Y283812D01*
X353089Y283723D01*
X353152Y283632D01*
X353213Y283539D01*
X353270Y283444D01*
X353323Y283348D01*
X353374Y283249D01*
X353421Y283148D01*
X353464Y283046D01*
X353504Y282943D01*
X353540Y282838D01*
X353572Y282732D01*
X353601Y282625D01*
X353626Y282517D01*
X353647Y282408D01*
X353664Y282299D01*
X353678Y282189D01*
X353687Y282078D01*
X353693Y281968D01*
X353695Y281857D01*
X353693Y281746D01*
X353687Y281636D01*
X353678Y281525D01*
X353664Y281415D01*
X353647Y281306D01*
X353626Y281197D01*
X353601Y281089D01*
X353572Y280982D01*
X353540Y280876D01*
X353504Y280771D01*
X353464Y280668D01*
X353421Y280566D01*
X353374Y280465D01*
X353323Y280366D01*
X353270Y280269D01*
X353213Y280175D01*
X353152Y280082D01*
X353089Y279991D01*
X353022Y279902D01*
X352952Y279816D01*
X352879Y279733D01*
X352804Y279651D01*
X352726Y279573D01*
X352644Y279498D01*
X352561Y279425D01*
X352475Y279355D01*
X352386Y279288D01*
X352295Y279225D01*
X352202Y279164D01*
X352108Y279107D01*
X352011Y279054D01*
X351912Y279003D01*
X351811Y278956D01*
X351709Y278913D01*
X351606Y278873D01*
X351501Y278837D01*
X351395Y278805D01*
X351288Y278776D01*
X351180Y278751D01*
X351071Y278730D01*
X350962Y278713D01*
X350852Y278699D01*
X350741Y278690D01*
X350631Y278684D01*
X350520Y278682D01*
X347345Y278682D01*
X347205Y278684D01*
X347065Y278690D01*
X346925Y278699D01*
X346786Y278713D01*
X346647Y278730D01*
X346509Y278751D01*
X346371Y278776D01*
X346234Y278805D01*
X346098Y278837D01*
X345963Y278874D01*
X345829Y278914D01*
X345696Y278957D01*
X345564Y279005D01*
X345433Y279055D01*
X345304Y279110D01*
X345177Y279168D01*
X345051Y279229D01*
X344927Y279294D01*
X344805Y279363D01*
X344685Y279434D01*
X344567Y279509D01*
X344450Y279587D01*
X344336Y279669D01*
X344225Y279753D01*
X344116Y279841D01*
X344009Y279931D01*
X343904Y280025D01*
X343803Y280121D01*
X343704Y280220D01*
X343608Y280321D01*
X343514Y280426D01*
X343424Y280533D01*
X343336Y280642D01*
X343252Y280753D01*
X343170Y280867D01*
X343092Y280984D01*
X343017Y281102D01*
X342946Y281222D01*
X342877Y281344D01*
X342812Y281468D01*
X342751Y281594D01*
X342693Y281721D01*
X342638Y281850D01*
X342588Y281981D01*
X342540Y282113D01*
X342497Y282246D01*
X342457Y282380D01*
X342420Y282515D01*
X342388Y282651D01*
X342359Y282788D01*
X342334Y282926D01*
X342313Y283064D01*
X342296Y283203D01*
X342282Y283342D01*
X342273Y283482D01*
X342267Y283622D01*
X342265Y283762D01*
D11*
X68580Y58420D02*
X68580Y55880D01*
X83820Y55880D01*
X83820Y58420D01*
X83820Y119380D02*
X83820Y121920D01*
X68580Y121920D01*
X68580Y119380D01*
D14*
X104140Y101600D02*
X106680Y101600D01*
X104140Y101600D02*
X104140Y76200D01*
X106680Y76200D01*
X48260Y77470D02*
X48260Y101600D01*
X48260Y77470D02*
X45720Y77470D01*
X45720Y101600D02*
X48260Y101600D01*
D11*
X45720Y101600D02*
X45720Y110490D01*
X106680Y76200D02*
X106680Y67310D01*
X106680Y76200D02*
X106680Y101600D01*
X106680Y110490D01*
X45720Y101600D02*
X45720Y77470D01*
X45720Y67310D01*
X66040Y58420D02*
X68580Y58420D01*
X83820Y58420D02*
X86360Y58420D01*
X68580Y119380D02*
X66040Y119380D01*
X83820Y119380D02*
X86360Y119380D01*
X58420Y88900D02*
X58425Y89336D01*
X58441Y89772D01*
X58468Y90208D01*
X58506Y90643D01*
X58554Y91076D01*
X58612Y91509D01*
X58682Y91940D01*
X58762Y92369D01*
X58852Y92796D01*
X58953Y93220D01*
X59064Y93642D01*
X59186Y94061D01*
X59317Y94477D01*
X59459Y94890D01*
X59611Y95299D01*
X59773Y95704D01*
X59945Y96105D01*
X60127Y96502D01*
X60318Y96894D01*
X60519Y97281D01*
X60730Y97664D01*
X60950Y98041D01*
X61179Y98412D01*
X61416Y98778D01*
X61663Y99138D01*
X61919Y99492D01*
X62183Y99839D01*
X62456Y100180D01*
X62737Y100513D01*
X63026Y100840D01*
X63323Y101160D01*
X63628Y101472D01*
X63940Y101777D01*
X64260Y102074D01*
X64587Y102363D01*
X64920Y102644D01*
X65261Y102917D01*
X65608Y103181D01*
X65962Y103437D01*
X66322Y103684D01*
X66688Y103921D01*
X67059Y104150D01*
X67436Y104370D01*
X67819Y104581D01*
X68206Y104782D01*
X68598Y104973D01*
X68995Y105155D01*
X69396Y105327D01*
X69801Y105489D01*
X70210Y105641D01*
X70623Y105783D01*
X71039Y105914D01*
X71458Y106036D01*
X71880Y106147D01*
X72304Y106248D01*
X72731Y106338D01*
X73160Y106418D01*
X73591Y106488D01*
X74024Y106546D01*
X74457Y106594D01*
X74892Y106632D01*
X75328Y106659D01*
X75764Y106675D01*
X76200Y106680D01*
X76636Y106675D01*
X77072Y106659D01*
X77508Y106632D01*
X77943Y106594D01*
X78376Y106546D01*
X78809Y106488D01*
X79240Y106418D01*
X79669Y106338D01*
X80096Y106248D01*
X80520Y106147D01*
X80942Y106036D01*
X81361Y105914D01*
X81777Y105783D01*
X82190Y105641D01*
X82599Y105489D01*
X83004Y105327D01*
X83405Y105155D01*
X83802Y104973D01*
X84194Y104782D01*
X84581Y104581D01*
X84964Y104370D01*
X85341Y104150D01*
X85712Y103921D01*
X86078Y103684D01*
X86438Y103437D01*
X86792Y103181D01*
X87139Y102917D01*
X87480Y102644D01*
X87813Y102363D01*
X88140Y102074D01*
X88460Y101777D01*
X88772Y101472D01*
X89077Y101160D01*
X89374Y100840D01*
X89663Y100513D01*
X89944Y100180D01*
X90217Y99839D01*
X90481Y99492D01*
X90737Y99138D01*
X90984Y98778D01*
X91221Y98412D01*
X91450Y98041D01*
X91670Y97664D01*
X91881Y97281D01*
X92082Y96894D01*
X92273Y96502D01*
X92455Y96105D01*
X92627Y95704D01*
X92789Y95299D01*
X92941Y94890D01*
X93083Y94477D01*
X93214Y94061D01*
X93336Y93642D01*
X93447Y93220D01*
X93548Y92796D01*
X93638Y92369D01*
X93718Y91940D01*
X93788Y91509D01*
X93846Y91076D01*
X93894Y90643D01*
X93932Y90208D01*
X93959Y89772D01*
X93975Y89336D01*
X93980Y88900D01*
X93975Y88464D01*
X93959Y88028D01*
X93932Y87592D01*
X93894Y87157D01*
X93846Y86724D01*
X93788Y86291D01*
X93718Y85860D01*
X93638Y85431D01*
X93548Y85004D01*
X93447Y84580D01*
X93336Y84158D01*
X93214Y83739D01*
X93083Y83323D01*
X92941Y82910D01*
X92789Y82501D01*
X92627Y82096D01*
X92455Y81695D01*
X92273Y81298D01*
X92082Y80906D01*
X91881Y80519D01*
X91670Y80136D01*
X91450Y79759D01*
X91221Y79388D01*
X90984Y79022D01*
X90737Y78662D01*
X90481Y78308D01*
X90217Y77961D01*
X89944Y77620D01*
X89663Y77287D01*
X89374Y76960D01*
X89077Y76640D01*
X88772Y76328D01*
X88460Y76023D01*
X88140Y75726D01*
X87813Y75437D01*
X87480Y75156D01*
X87139Y74883D01*
X86792Y74619D01*
X86438Y74363D01*
X86078Y74116D01*
X85712Y73879D01*
X85341Y73650D01*
X84964Y73430D01*
X84581Y73219D01*
X84194Y73018D01*
X83802Y72827D01*
X83405Y72645D01*
X83004Y72473D01*
X82599Y72311D01*
X82190Y72159D01*
X81777Y72017D01*
X81361Y71886D01*
X80942Y71764D01*
X80520Y71653D01*
X80096Y71552D01*
X79669Y71462D01*
X79240Y71382D01*
X78809Y71312D01*
X78376Y71254D01*
X77943Y71206D01*
X77508Y71168D01*
X77072Y71141D01*
X76636Y71125D01*
X76200Y71120D01*
X75764Y71125D01*
X75328Y71141D01*
X74892Y71168D01*
X74457Y71206D01*
X74024Y71254D01*
X73591Y71312D01*
X73160Y71382D01*
X72731Y71462D01*
X72304Y71552D01*
X71880Y71653D01*
X71458Y71764D01*
X71039Y71886D01*
X70623Y72017D01*
X70210Y72159D01*
X69801Y72311D01*
X69396Y72473D01*
X68995Y72645D01*
X68598Y72827D01*
X68206Y73018D01*
X67819Y73219D01*
X67436Y73430D01*
X67059Y73650D01*
X66688Y73879D01*
X66322Y74116D01*
X65962Y74363D01*
X65608Y74619D01*
X65261Y74883D01*
X64920Y75156D01*
X64587Y75437D01*
X64260Y75726D01*
X63940Y76023D01*
X63628Y76328D01*
X63323Y76640D01*
X63026Y76960D01*
X62737Y77287D01*
X62456Y77620D01*
X62183Y77961D01*
X61919Y78308D01*
X61663Y78662D01*
X61416Y79022D01*
X61179Y79388D01*
X60950Y79759D01*
X60730Y80136D01*
X60519Y80519D01*
X60318Y80906D01*
X60127Y81298D01*
X59945Y81695D01*
X59773Y82096D01*
X59611Y82501D01*
X59459Y82910D01*
X59317Y83323D01*
X59186Y83739D01*
X59064Y84158D01*
X58953Y84580D01*
X58852Y85004D01*
X58762Y85431D01*
X58682Y85860D01*
X58612Y86291D01*
X58554Y86724D01*
X58506Y87157D01*
X58468Y87592D01*
X58441Y88028D01*
X58425Y88464D01*
X58420Y88900D01*
X73660Y88900D02*
X73662Y89000D01*
X73668Y89101D01*
X73678Y89200D01*
X73692Y89300D01*
X73709Y89399D01*
X73731Y89497D01*
X73757Y89594D01*
X73786Y89690D01*
X73819Y89784D01*
X73856Y89878D01*
X73896Y89970D01*
X73940Y90060D01*
X73988Y90148D01*
X74039Y90235D01*
X74093Y90319D01*
X74151Y90401D01*
X74212Y90481D01*
X74276Y90558D01*
X74343Y90633D01*
X74413Y90705D01*
X74486Y90774D01*
X74561Y90840D01*
X74639Y90904D01*
X74719Y90964D01*
X74802Y91021D01*
X74887Y91074D01*
X74974Y91124D01*
X75063Y91171D01*
X75153Y91214D01*
X75245Y91254D01*
X75339Y91290D01*
X75434Y91322D01*
X75530Y91350D01*
X75628Y91375D01*
X75726Y91395D01*
X75825Y91412D01*
X75925Y91425D01*
X76024Y91434D01*
X76125Y91439D01*
X76225Y91440D01*
X76325Y91437D01*
X76426Y91430D01*
X76525Y91419D01*
X76625Y91404D01*
X76723Y91386D01*
X76821Y91363D01*
X76918Y91336D01*
X77013Y91306D01*
X77108Y91272D01*
X77201Y91234D01*
X77292Y91193D01*
X77382Y91148D01*
X77470Y91100D01*
X77556Y91048D01*
X77640Y90993D01*
X77721Y90934D01*
X77800Y90872D01*
X77877Y90808D01*
X77951Y90740D01*
X78022Y90669D01*
X78091Y90596D01*
X78156Y90520D01*
X78219Y90441D01*
X78278Y90360D01*
X78334Y90277D01*
X78387Y90192D01*
X78436Y90104D01*
X78482Y90015D01*
X78524Y89924D01*
X78563Y89831D01*
X78598Y89737D01*
X78629Y89642D01*
X78657Y89545D01*
X78680Y89448D01*
X78700Y89349D01*
X78716Y89250D01*
X78728Y89151D01*
X78736Y89050D01*
X78740Y88950D01*
X78740Y88850D01*
X78736Y88750D01*
X78728Y88649D01*
X78716Y88550D01*
X78700Y88451D01*
X78680Y88352D01*
X78657Y88255D01*
X78629Y88158D01*
X78598Y88063D01*
X78563Y87969D01*
X78524Y87876D01*
X78482Y87785D01*
X78436Y87696D01*
X78387Y87608D01*
X78334Y87523D01*
X78278Y87440D01*
X78219Y87359D01*
X78156Y87280D01*
X78091Y87204D01*
X78022Y87131D01*
X77951Y87060D01*
X77877Y86992D01*
X77800Y86928D01*
X77721Y86866D01*
X77640Y86807D01*
X77556Y86752D01*
X77470Y86700D01*
X77382Y86652D01*
X77292Y86607D01*
X77201Y86566D01*
X77108Y86528D01*
X77013Y86494D01*
X76918Y86464D01*
X76821Y86437D01*
X76723Y86414D01*
X76625Y86396D01*
X76525Y86381D01*
X76426Y86370D01*
X76325Y86363D01*
X76225Y86360D01*
X76125Y86361D01*
X76024Y86366D01*
X75925Y86375D01*
X75825Y86388D01*
X75726Y86405D01*
X75628Y86425D01*
X75530Y86450D01*
X75434Y86478D01*
X75339Y86510D01*
X75245Y86546D01*
X75153Y86586D01*
X75063Y86629D01*
X74974Y86676D01*
X74887Y86726D01*
X74802Y86779D01*
X74719Y86836D01*
X74639Y86896D01*
X74561Y86960D01*
X74486Y87026D01*
X74413Y87095D01*
X74343Y87167D01*
X74276Y87242D01*
X74212Y87319D01*
X74151Y87399D01*
X74093Y87481D01*
X74039Y87565D01*
X73988Y87652D01*
X73940Y87740D01*
X73896Y87830D01*
X73856Y87922D01*
X73819Y88016D01*
X73786Y88110D01*
X73757Y88206D01*
X73731Y88303D01*
X73709Y88401D01*
X73692Y88500D01*
X73678Y88600D01*
X73668Y88699D01*
X73662Y88800D01*
X73660Y88900D01*
D13*
X74295Y37465D02*
X74293Y37365D01*
X74287Y37266D01*
X74277Y37166D01*
X74264Y37068D01*
X74246Y36969D01*
X74225Y36872D01*
X74200Y36776D01*
X74171Y36680D01*
X74138Y36586D01*
X74102Y36493D01*
X74062Y36402D01*
X74018Y36312D01*
X73971Y36224D01*
X73921Y36138D01*
X73867Y36054D01*
X73810Y35972D01*
X73750Y35893D01*
X73686Y35815D01*
X73620Y35741D01*
X73551Y35669D01*
X73479Y35600D01*
X73405Y35534D01*
X73327Y35470D01*
X73248Y35410D01*
X73166Y35353D01*
X73082Y35299D01*
X72996Y35249D01*
X72908Y35202D01*
X72818Y35158D01*
X72727Y35118D01*
X72634Y35082D01*
X72540Y35049D01*
X72444Y35020D01*
X72348Y34995D01*
X72251Y34974D01*
X72152Y34956D01*
X72054Y34943D01*
X71954Y34933D01*
X71855Y34927D01*
X71755Y34925D01*
X71614Y34927D01*
X71473Y34932D01*
X71332Y34942D01*
X71191Y34955D01*
X71051Y34971D01*
X70911Y34992D01*
X70772Y35016D01*
X70633Y35044D01*
X70496Y35075D01*
X70359Y35110D01*
X70223Y35148D01*
X70088Y35190D01*
X69955Y35236D01*
X69822Y35285D01*
X69691Y35338D01*
X69562Y35394D01*
X69433Y35453D01*
X69307Y35516D01*
X69182Y35582D01*
X69059Y35651D01*
X68938Y35724D01*
X68819Y35800D01*
X68701Y35879D01*
X68586Y35960D01*
X68474Y36045D01*
X68363Y36133D01*
X68255Y36224D01*
X68149Y36317D01*
X68046Y36414D01*
X67945Y36513D01*
X68263Y43815D02*
X68265Y43915D01*
X68271Y44014D01*
X68281Y44114D01*
X68294Y44212D01*
X68312Y44311D01*
X68333Y44408D01*
X68358Y44504D01*
X68387Y44600D01*
X68420Y44694D01*
X68456Y44787D01*
X68496Y44878D01*
X68540Y44968D01*
X68587Y45056D01*
X68637Y45142D01*
X68691Y45226D01*
X68748Y45308D01*
X68808Y45387D01*
X68872Y45465D01*
X68938Y45539D01*
X69007Y45611D01*
X69079Y45680D01*
X69153Y45746D01*
X69231Y45810D01*
X69310Y45870D01*
X69392Y45927D01*
X69476Y45981D01*
X69562Y46031D01*
X69650Y46078D01*
X69740Y46122D01*
X69831Y46162D01*
X69924Y46198D01*
X70018Y46231D01*
X70114Y46260D01*
X70210Y46285D01*
X70307Y46306D01*
X70406Y46324D01*
X70504Y46337D01*
X70604Y46347D01*
X70703Y46353D01*
X70803Y46355D01*
X70803Y46356D02*
X70936Y46354D01*
X71069Y46349D01*
X71202Y46339D01*
X71335Y46326D01*
X71467Y46309D01*
X71599Y46289D01*
X71730Y46265D01*
X71860Y46237D01*
X71990Y46206D01*
X72118Y46171D01*
X72246Y46132D01*
X72372Y46090D01*
X72497Y46044D01*
X72621Y45995D01*
X72744Y45943D01*
X72865Y45887D01*
X72984Y45827D01*
X73102Y45765D01*
X73217Y45699D01*
X73331Y45630D01*
X73443Y45557D01*
X73553Y45482D01*
X73661Y45403D01*
X69532Y41592D02*
X69448Y41644D01*
X69365Y41699D01*
X69285Y41758D01*
X69207Y41819D01*
X69132Y41883D01*
X69059Y41951D01*
X68988Y42021D01*
X68921Y42093D01*
X68856Y42168D01*
X68794Y42246D01*
X68735Y42326D01*
X68679Y42408D01*
X68627Y42492D01*
X68578Y42578D01*
X68532Y42666D01*
X68489Y42756D01*
X68450Y42847D01*
X68415Y42940D01*
X68383Y43034D01*
X68355Y43129D01*
X68330Y43225D01*
X68310Y43322D01*
X68292Y43420D01*
X68279Y43518D01*
X68270Y43617D01*
X68264Y43716D01*
X68262Y43815D01*
X73025Y39688D02*
X73109Y39636D01*
X73192Y39581D01*
X73272Y39522D01*
X73350Y39461D01*
X73425Y39397D01*
X73498Y39329D01*
X73569Y39259D01*
X73636Y39187D01*
X73701Y39112D01*
X73763Y39034D01*
X73822Y38954D01*
X73878Y38872D01*
X73930Y38788D01*
X73979Y38702D01*
X74025Y38614D01*
X74068Y38524D01*
X74107Y38433D01*
X74142Y38340D01*
X74174Y38246D01*
X74202Y38151D01*
X74227Y38055D01*
X74247Y37958D01*
X74265Y37860D01*
X74278Y37762D01*
X74287Y37663D01*
X74293Y37564D01*
X74295Y37465D01*
X73025Y39688D02*
X69533Y41593D01*
X78994Y43815D02*
X82169Y46355D01*
X82169Y34925D01*
X78994Y34925D02*
X85344Y34925D01*
D11*
X144780Y55880D02*
X144780Y58420D01*
X144780Y55880D02*
X160020Y55880D01*
X160020Y58420D01*
X160020Y119380D02*
X160020Y121920D01*
X144780Y121920D01*
X144780Y119380D01*
D14*
X180340Y101600D02*
X182880Y101600D01*
X180340Y101600D02*
X180340Y76200D01*
X182880Y76200D01*
X124460Y77470D02*
X124460Y101600D01*
X124460Y77470D02*
X121920Y77470D01*
X121920Y101600D02*
X124460Y101600D01*
D11*
X121920Y101600D02*
X121920Y110490D01*
X182880Y76200D02*
X182880Y67310D01*
X182880Y76200D02*
X182880Y101600D01*
X182880Y110490D01*
X121920Y101600D02*
X121920Y77470D01*
X121920Y67310D01*
X142240Y58420D02*
X144780Y58420D01*
X160020Y58420D02*
X162560Y58420D01*
X144780Y119380D02*
X142240Y119380D01*
X160020Y119380D02*
X162560Y119380D01*
X134620Y88900D02*
X134625Y89336D01*
X134641Y89772D01*
X134668Y90208D01*
X134706Y90643D01*
X134754Y91076D01*
X134812Y91509D01*
X134882Y91940D01*
X134962Y92369D01*
X135052Y92796D01*
X135153Y93220D01*
X135264Y93642D01*
X135386Y94061D01*
X135517Y94477D01*
X135659Y94890D01*
X135811Y95299D01*
X135973Y95704D01*
X136145Y96105D01*
X136327Y96502D01*
X136518Y96894D01*
X136719Y97281D01*
X136930Y97664D01*
X137150Y98041D01*
X137379Y98412D01*
X137616Y98778D01*
X137863Y99138D01*
X138119Y99492D01*
X138383Y99839D01*
X138656Y100180D01*
X138937Y100513D01*
X139226Y100840D01*
X139523Y101160D01*
X139828Y101472D01*
X140140Y101777D01*
X140460Y102074D01*
X140787Y102363D01*
X141120Y102644D01*
X141461Y102917D01*
X141808Y103181D01*
X142162Y103437D01*
X142522Y103684D01*
X142888Y103921D01*
X143259Y104150D01*
X143636Y104370D01*
X144019Y104581D01*
X144406Y104782D01*
X144798Y104973D01*
X145195Y105155D01*
X145596Y105327D01*
X146001Y105489D01*
X146410Y105641D01*
X146823Y105783D01*
X147239Y105914D01*
X147658Y106036D01*
X148080Y106147D01*
X148504Y106248D01*
X148931Y106338D01*
X149360Y106418D01*
X149791Y106488D01*
X150224Y106546D01*
X150657Y106594D01*
X151092Y106632D01*
X151528Y106659D01*
X151964Y106675D01*
X152400Y106680D01*
X152836Y106675D01*
X153272Y106659D01*
X153708Y106632D01*
X154143Y106594D01*
X154576Y106546D01*
X155009Y106488D01*
X155440Y106418D01*
X155869Y106338D01*
X156296Y106248D01*
X156720Y106147D01*
X157142Y106036D01*
X157561Y105914D01*
X157977Y105783D01*
X158390Y105641D01*
X158799Y105489D01*
X159204Y105327D01*
X159605Y105155D01*
X160002Y104973D01*
X160394Y104782D01*
X160781Y104581D01*
X161164Y104370D01*
X161541Y104150D01*
X161912Y103921D01*
X162278Y103684D01*
X162638Y103437D01*
X162992Y103181D01*
X163339Y102917D01*
X163680Y102644D01*
X164013Y102363D01*
X164340Y102074D01*
X164660Y101777D01*
X164972Y101472D01*
X165277Y101160D01*
X165574Y100840D01*
X165863Y100513D01*
X166144Y100180D01*
X166417Y99839D01*
X166681Y99492D01*
X166937Y99138D01*
X167184Y98778D01*
X167421Y98412D01*
X167650Y98041D01*
X167870Y97664D01*
X168081Y97281D01*
X168282Y96894D01*
X168473Y96502D01*
X168655Y96105D01*
X168827Y95704D01*
X168989Y95299D01*
X169141Y94890D01*
X169283Y94477D01*
X169414Y94061D01*
X169536Y93642D01*
X169647Y93220D01*
X169748Y92796D01*
X169838Y92369D01*
X169918Y91940D01*
X169988Y91509D01*
X170046Y91076D01*
X170094Y90643D01*
X170132Y90208D01*
X170159Y89772D01*
X170175Y89336D01*
X170180Y88900D01*
X170175Y88464D01*
X170159Y88028D01*
X170132Y87592D01*
X170094Y87157D01*
X170046Y86724D01*
X169988Y86291D01*
X169918Y85860D01*
X169838Y85431D01*
X169748Y85004D01*
X169647Y84580D01*
X169536Y84158D01*
X169414Y83739D01*
X169283Y83323D01*
X169141Y82910D01*
X168989Y82501D01*
X168827Y82096D01*
X168655Y81695D01*
X168473Y81298D01*
X168282Y80906D01*
X168081Y80519D01*
X167870Y80136D01*
X167650Y79759D01*
X167421Y79388D01*
X167184Y79022D01*
X166937Y78662D01*
X166681Y78308D01*
X166417Y77961D01*
X166144Y77620D01*
X165863Y77287D01*
X165574Y76960D01*
X165277Y76640D01*
X164972Y76328D01*
X164660Y76023D01*
X164340Y75726D01*
X164013Y75437D01*
X163680Y75156D01*
X163339Y74883D01*
X162992Y74619D01*
X162638Y74363D01*
X162278Y74116D01*
X161912Y73879D01*
X161541Y73650D01*
X161164Y73430D01*
X160781Y73219D01*
X160394Y73018D01*
X160002Y72827D01*
X159605Y72645D01*
X159204Y72473D01*
X158799Y72311D01*
X158390Y72159D01*
X157977Y72017D01*
X157561Y71886D01*
X157142Y71764D01*
X156720Y71653D01*
X156296Y71552D01*
X155869Y71462D01*
X155440Y71382D01*
X155009Y71312D01*
X154576Y71254D01*
X154143Y71206D01*
X153708Y71168D01*
X153272Y71141D01*
X152836Y71125D01*
X152400Y71120D01*
X151964Y71125D01*
X151528Y71141D01*
X151092Y71168D01*
X150657Y71206D01*
X150224Y71254D01*
X149791Y71312D01*
X149360Y71382D01*
X148931Y71462D01*
X148504Y71552D01*
X148080Y71653D01*
X147658Y71764D01*
X147239Y71886D01*
X146823Y72017D01*
X146410Y72159D01*
X146001Y72311D01*
X145596Y72473D01*
X145195Y72645D01*
X144798Y72827D01*
X144406Y73018D01*
X144019Y73219D01*
X143636Y73430D01*
X143259Y73650D01*
X142888Y73879D01*
X142522Y74116D01*
X142162Y74363D01*
X141808Y74619D01*
X141461Y74883D01*
X141120Y75156D01*
X140787Y75437D01*
X140460Y75726D01*
X140140Y76023D01*
X139828Y76328D01*
X139523Y76640D01*
X139226Y76960D01*
X138937Y77287D01*
X138656Y77620D01*
X138383Y77961D01*
X138119Y78308D01*
X137863Y78662D01*
X137616Y79022D01*
X137379Y79388D01*
X137150Y79759D01*
X136930Y80136D01*
X136719Y80519D01*
X136518Y80906D01*
X136327Y81298D01*
X136145Y81695D01*
X135973Y82096D01*
X135811Y82501D01*
X135659Y82910D01*
X135517Y83323D01*
X135386Y83739D01*
X135264Y84158D01*
X135153Y84580D01*
X135052Y85004D01*
X134962Y85431D01*
X134882Y85860D01*
X134812Y86291D01*
X134754Y86724D01*
X134706Y87157D01*
X134668Y87592D01*
X134641Y88028D01*
X134625Y88464D01*
X134620Y88900D01*
X149860Y88900D02*
X149862Y89000D01*
X149868Y89101D01*
X149878Y89200D01*
X149892Y89300D01*
X149909Y89399D01*
X149931Y89497D01*
X149957Y89594D01*
X149986Y89690D01*
X150019Y89784D01*
X150056Y89878D01*
X150096Y89970D01*
X150140Y90060D01*
X150188Y90148D01*
X150239Y90235D01*
X150293Y90319D01*
X150351Y90401D01*
X150412Y90481D01*
X150476Y90558D01*
X150543Y90633D01*
X150613Y90705D01*
X150686Y90774D01*
X150761Y90840D01*
X150839Y90904D01*
X150919Y90964D01*
X151002Y91021D01*
X151087Y91074D01*
X151174Y91124D01*
X151263Y91171D01*
X151353Y91214D01*
X151445Y91254D01*
X151539Y91290D01*
X151634Y91322D01*
X151730Y91350D01*
X151828Y91375D01*
X151926Y91395D01*
X152025Y91412D01*
X152125Y91425D01*
X152224Y91434D01*
X152325Y91439D01*
X152425Y91440D01*
X152525Y91437D01*
X152626Y91430D01*
X152725Y91419D01*
X152825Y91404D01*
X152923Y91386D01*
X153021Y91363D01*
X153118Y91336D01*
X153213Y91306D01*
X153308Y91272D01*
X153401Y91234D01*
X153492Y91193D01*
X153582Y91148D01*
X153670Y91100D01*
X153756Y91048D01*
X153840Y90993D01*
X153921Y90934D01*
X154000Y90872D01*
X154077Y90808D01*
X154151Y90740D01*
X154222Y90669D01*
X154291Y90596D01*
X154356Y90520D01*
X154419Y90441D01*
X154478Y90360D01*
X154534Y90277D01*
X154587Y90192D01*
X154636Y90104D01*
X154682Y90015D01*
X154724Y89924D01*
X154763Y89831D01*
X154798Y89737D01*
X154829Y89642D01*
X154857Y89545D01*
X154880Y89448D01*
X154900Y89349D01*
X154916Y89250D01*
X154928Y89151D01*
X154936Y89050D01*
X154940Y88950D01*
X154940Y88850D01*
X154936Y88750D01*
X154928Y88649D01*
X154916Y88550D01*
X154900Y88451D01*
X154880Y88352D01*
X154857Y88255D01*
X154829Y88158D01*
X154798Y88063D01*
X154763Y87969D01*
X154724Y87876D01*
X154682Y87785D01*
X154636Y87696D01*
X154587Y87608D01*
X154534Y87523D01*
X154478Y87440D01*
X154419Y87359D01*
X154356Y87280D01*
X154291Y87204D01*
X154222Y87131D01*
X154151Y87060D01*
X154077Y86992D01*
X154000Y86928D01*
X153921Y86866D01*
X153840Y86807D01*
X153756Y86752D01*
X153670Y86700D01*
X153582Y86652D01*
X153492Y86607D01*
X153401Y86566D01*
X153308Y86528D01*
X153213Y86494D01*
X153118Y86464D01*
X153021Y86437D01*
X152923Y86414D01*
X152825Y86396D01*
X152725Y86381D01*
X152626Y86370D01*
X152525Y86363D01*
X152425Y86360D01*
X152325Y86361D01*
X152224Y86366D01*
X152125Y86375D01*
X152025Y86388D01*
X151926Y86405D01*
X151828Y86425D01*
X151730Y86450D01*
X151634Y86478D01*
X151539Y86510D01*
X151445Y86546D01*
X151353Y86586D01*
X151263Y86629D01*
X151174Y86676D01*
X151087Y86726D01*
X151002Y86779D01*
X150919Y86836D01*
X150839Y86896D01*
X150761Y86960D01*
X150686Y87026D01*
X150613Y87095D01*
X150543Y87167D01*
X150476Y87242D01*
X150412Y87319D01*
X150351Y87399D01*
X150293Y87481D01*
X150239Y87565D01*
X150188Y87652D01*
X150140Y87740D01*
X150096Y87830D01*
X150056Y87922D01*
X150019Y88016D01*
X149986Y88110D01*
X149957Y88206D01*
X149931Y88303D01*
X149909Y88401D01*
X149892Y88500D01*
X149878Y88600D01*
X149868Y88699D01*
X149862Y88800D01*
X149860Y88900D01*
D13*
X147955Y37465D02*
X147953Y37365D01*
X147947Y37266D01*
X147937Y37166D01*
X147924Y37068D01*
X147906Y36969D01*
X147885Y36872D01*
X147860Y36776D01*
X147831Y36680D01*
X147798Y36586D01*
X147762Y36493D01*
X147722Y36402D01*
X147678Y36312D01*
X147631Y36224D01*
X147581Y36138D01*
X147527Y36054D01*
X147470Y35972D01*
X147410Y35893D01*
X147346Y35815D01*
X147280Y35741D01*
X147211Y35669D01*
X147139Y35600D01*
X147065Y35534D01*
X146987Y35470D01*
X146908Y35410D01*
X146826Y35353D01*
X146742Y35299D01*
X146656Y35249D01*
X146568Y35202D01*
X146478Y35158D01*
X146387Y35118D01*
X146294Y35082D01*
X146200Y35049D01*
X146104Y35020D01*
X146008Y34995D01*
X145911Y34974D01*
X145812Y34956D01*
X145714Y34943D01*
X145614Y34933D01*
X145515Y34927D01*
X145415Y34925D01*
X145274Y34927D01*
X145133Y34932D01*
X144992Y34942D01*
X144851Y34955D01*
X144711Y34971D01*
X144571Y34992D01*
X144432Y35016D01*
X144293Y35044D01*
X144156Y35075D01*
X144019Y35110D01*
X143883Y35148D01*
X143748Y35190D01*
X143615Y35236D01*
X143482Y35285D01*
X143351Y35338D01*
X143222Y35394D01*
X143093Y35453D01*
X142967Y35516D01*
X142842Y35582D01*
X142719Y35651D01*
X142598Y35724D01*
X142479Y35800D01*
X142361Y35879D01*
X142246Y35960D01*
X142134Y36045D01*
X142023Y36133D01*
X141915Y36224D01*
X141809Y36317D01*
X141706Y36414D01*
X141605Y36513D01*
X141923Y43815D02*
X141925Y43915D01*
X141931Y44014D01*
X141941Y44114D01*
X141954Y44212D01*
X141972Y44311D01*
X141993Y44408D01*
X142018Y44504D01*
X142047Y44600D01*
X142080Y44694D01*
X142116Y44787D01*
X142156Y44878D01*
X142200Y44968D01*
X142247Y45056D01*
X142297Y45142D01*
X142351Y45226D01*
X142408Y45308D01*
X142468Y45387D01*
X142532Y45465D01*
X142598Y45539D01*
X142667Y45611D01*
X142739Y45680D01*
X142813Y45746D01*
X142891Y45810D01*
X142970Y45870D01*
X143052Y45927D01*
X143136Y45981D01*
X143222Y46031D01*
X143310Y46078D01*
X143400Y46122D01*
X143491Y46162D01*
X143584Y46198D01*
X143678Y46231D01*
X143774Y46260D01*
X143870Y46285D01*
X143967Y46306D01*
X144066Y46324D01*
X144164Y46337D01*
X144264Y46347D01*
X144363Y46353D01*
X144463Y46355D01*
X144463Y46356D02*
X144596Y46354D01*
X144729Y46349D01*
X144862Y46339D01*
X144995Y46326D01*
X145127Y46309D01*
X145259Y46289D01*
X145390Y46265D01*
X145520Y46237D01*
X145650Y46206D01*
X145778Y46171D01*
X145906Y46132D01*
X146032Y46090D01*
X146157Y46044D01*
X146281Y45995D01*
X146404Y45943D01*
X146525Y45887D01*
X146644Y45827D01*
X146762Y45765D01*
X146877Y45699D01*
X146991Y45630D01*
X147103Y45557D01*
X147213Y45482D01*
X147321Y45403D01*
X143192Y41592D02*
X143108Y41644D01*
X143025Y41699D01*
X142945Y41758D01*
X142867Y41819D01*
X142792Y41883D01*
X142719Y41951D01*
X142648Y42021D01*
X142581Y42093D01*
X142516Y42168D01*
X142454Y42246D01*
X142395Y42326D01*
X142339Y42408D01*
X142287Y42492D01*
X142238Y42578D01*
X142192Y42666D01*
X142149Y42756D01*
X142110Y42847D01*
X142075Y42940D01*
X142043Y43034D01*
X142015Y43129D01*
X141990Y43225D01*
X141970Y43322D01*
X141952Y43420D01*
X141939Y43518D01*
X141930Y43617D01*
X141924Y43716D01*
X141922Y43815D01*
X146685Y39688D02*
X146769Y39636D01*
X146852Y39581D01*
X146932Y39522D01*
X147010Y39461D01*
X147085Y39397D01*
X147158Y39329D01*
X147229Y39259D01*
X147296Y39187D01*
X147361Y39112D01*
X147423Y39034D01*
X147482Y38954D01*
X147538Y38872D01*
X147590Y38788D01*
X147639Y38702D01*
X147685Y38614D01*
X147728Y38524D01*
X147767Y38433D01*
X147802Y38340D01*
X147834Y38246D01*
X147862Y38151D01*
X147887Y38055D01*
X147907Y37958D01*
X147925Y37860D01*
X147938Y37762D01*
X147947Y37663D01*
X147953Y37564D01*
X147955Y37465D01*
X146685Y39688D02*
X143193Y41593D01*
X156147Y46356D02*
X156251Y46354D01*
X156356Y46348D01*
X156460Y46339D01*
X156563Y46326D01*
X156666Y46308D01*
X156768Y46288D01*
X156870Y46263D01*
X156970Y46235D01*
X157070Y46203D01*
X157168Y46167D01*
X157265Y46128D01*
X157360Y46086D01*
X157454Y46040D01*
X157546Y45990D01*
X157636Y45938D01*
X157724Y45882D01*
X157810Y45822D01*
X157894Y45760D01*
X157975Y45695D01*
X158054Y45627D01*
X158131Y45555D01*
X158204Y45482D01*
X158276Y45405D01*
X158344Y45326D01*
X158409Y45245D01*
X158471Y45161D01*
X158531Y45075D01*
X158587Y44987D01*
X158639Y44897D01*
X158689Y44805D01*
X158735Y44711D01*
X158777Y44616D01*
X158816Y44519D01*
X158852Y44421D01*
X158884Y44321D01*
X158912Y44221D01*
X158937Y44119D01*
X158957Y44017D01*
X158975Y43914D01*
X158988Y43811D01*
X158997Y43707D01*
X159003Y43602D01*
X159005Y43498D01*
X156147Y46355D02*
X156029Y46353D01*
X155910Y46347D01*
X155792Y46338D01*
X155675Y46325D01*
X155558Y46307D01*
X155441Y46287D01*
X155325Y46262D01*
X155210Y46234D01*
X155097Y46201D01*
X154984Y46166D01*
X154872Y46126D01*
X154762Y46084D01*
X154653Y46037D01*
X154545Y45987D01*
X154440Y45934D01*
X154336Y45877D01*
X154234Y45817D01*
X154134Y45754D01*
X154036Y45687D01*
X153940Y45618D01*
X153847Y45545D01*
X153756Y45469D01*
X153667Y45391D01*
X153581Y45309D01*
X153498Y45225D01*
X153417Y45139D01*
X153340Y45049D01*
X153265Y44958D01*
X153193Y44864D01*
X153124Y44767D01*
X153059Y44669D01*
X152996Y44568D01*
X152937Y44465D01*
X152881Y44361D01*
X152829Y44255D01*
X152780Y44147D01*
X152735Y44038D01*
X152693Y43927D01*
X152655Y43815D01*
X158052Y41276D02*
X158128Y41351D01*
X158203Y41430D01*
X158274Y41511D01*
X158343Y41595D01*
X158408Y41681D01*
X158470Y41769D01*
X158530Y41859D01*
X158586Y41951D01*
X158639Y42046D01*
X158688Y42142D01*
X158734Y42240D01*
X158777Y42339D01*
X158816Y42440D01*
X158851Y42542D01*
X158883Y42645D01*
X158911Y42749D01*
X158936Y42854D01*
X158957Y42961D01*
X158974Y43067D01*
X158987Y43174D01*
X158996Y43282D01*
X159002Y43390D01*
X159004Y43498D01*
X158052Y41275D02*
X152654Y34925D01*
X159004Y34925D01*
D11*
X261620Y119380D02*
X261620Y121920D01*
X246380Y121920D01*
X246380Y119380D01*
X246380Y58420D02*
X246380Y55880D01*
X261620Y55880D01*
X261620Y58420D01*
D14*
X226060Y76200D02*
X223520Y76200D01*
X226060Y76200D02*
X226060Y101600D01*
X223520Y101600D01*
X281940Y100330D02*
X281940Y76200D01*
X281940Y100330D02*
X284480Y100330D01*
X284480Y76200D02*
X281940Y76200D01*
D11*
X284480Y76200D02*
X284480Y67310D01*
X223520Y101600D02*
X223520Y110490D01*
X223520Y101600D02*
X223520Y76200D01*
X223520Y67310D01*
X284480Y76200D02*
X284480Y100330D01*
X284480Y110490D01*
X264160Y119380D02*
X261620Y119380D01*
X246380Y119380D02*
X243840Y119380D01*
X261620Y58420D02*
X264160Y58420D01*
X246380Y58420D02*
X243840Y58420D01*
X236220Y88900D02*
X236225Y89336D01*
X236241Y89772D01*
X236268Y90208D01*
X236306Y90643D01*
X236354Y91076D01*
X236412Y91509D01*
X236482Y91940D01*
X236562Y92369D01*
X236652Y92796D01*
X236753Y93220D01*
X236864Y93642D01*
X236986Y94061D01*
X237117Y94477D01*
X237259Y94890D01*
X237411Y95299D01*
X237573Y95704D01*
X237745Y96105D01*
X237927Y96502D01*
X238118Y96894D01*
X238319Y97281D01*
X238530Y97664D01*
X238750Y98041D01*
X238979Y98412D01*
X239216Y98778D01*
X239463Y99138D01*
X239719Y99492D01*
X239983Y99839D01*
X240256Y100180D01*
X240537Y100513D01*
X240826Y100840D01*
X241123Y101160D01*
X241428Y101472D01*
X241740Y101777D01*
X242060Y102074D01*
X242387Y102363D01*
X242720Y102644D01*
X243061Y102917D01*
X243408Y103181D01*
X243762Y103437D01*
X244122Y103684D01*
X244488Y103921D01*
X244859Y104150D01*
X245236Y104370D01*
X245619Y104581D01*
X246006Y104782D01*
X246398Y104973D01*
X246795Y105155D01*
X247196Y105327D01*
X247601Y105489D01*
X248010Y105641D01*
X248423Y105783D01*
X248839Y105914D01*
X249258Y106036D01*
X249680Y106147D01*
X250104Y106248D01*
X250531Y106338D01*
X250960Y106418D01*
X251391Y106488D01*
X251824Y106546D01*
X252257Y106594D01*
X252692Y106632D01*
X253128Y106659D01*
X253564Y106675D01*
X254000Y106680D01*
X254436Y106675D01*
X254872Y106659D01*
X255308Y106632D01*
X255743Y106594D01*
X256176Y106546D01*
X256609Y106488D01*
X257040Y106418D01*
X257469Y106338D01*
X257896Y106248D01*
X258320Y106147D01*
X258742Y106036D01*
X259161Y105914D01*
X259577Y105783D01*
X259990Y105641D01*
X260399Y105489D01*
X260804Y105327D01*
X261205Y105155D01*
X261602Y104973D01*
X261994Y104782D01*
X262381Y104581D01*
X262764Y104370D01*
X263141Y104150D01*
X263512Y103921D01*
X263878Y103684D01*
X264238Y103437D01*
X264592Y103181D01*
X264939Y102917D01*
X265280Y102644D01*
X265613Y102363D01*
X265940Y102074D01*
X266260Y101777D01*
X266572Y101472D01*
X266877Y101160D01*
X267174Y100840D01*
X267463Y100513D01*
X267744Y100180D01*
X268017Y99839D01*
X268281Y99492D01*
X268537Y99138D01*
X268784Y98778D01*
X269021Y98412D01*
X269250Y98041D01*
X269470Y97664D01*
X269681Y97281D01*
X269882Y96894D01*
X270073Y96502D01*
X270255Y96105D01*
X270427Y95704D01*
X270589Y95299D01*
X270741Y94890D01*
X270883Y94477D01*
X271014Y94061D01*
X271136Y93642D01*
X271247Y93220D01*
X271348Y92796D01*
X271438Y92369D01*
X271518Y91940D01*
X271588Y91509D01*
X271646Y91076D01*
X271694Y90643D01*
X271732Y90208D01*
X271759Y89772D01*
X271775Y89336D01*
X271780Y88900D01*
X271775Y88464D01*
X271759Y88028D01*
X271732Y87592D01*
X271694Y87157D01*
X271646Y86724D01*
X271588Y86291D01*
X271518Y85860D01*
X271438Y85431D01*
X271348Y85004D01*
X271247Y84580D01*
X271136Y84158D01*
X271014Y83739D01*
X270883Y83323D01*
X270741Y82910D01*
X270589Y82501D01*
X270427Y82096D01*
X270255Y81695D01*
X270073Y81298D01*
X269882Y80906D01*
X269681Y80519D01*
X269470Y80136D01*
X269250Y79759D01*
X269021Y79388D01*
X268784Y79022D01*
X268537Y78662D01*
X268281Y78308D01*
X268017Y77961D01*
X267744Y77620D01*
X267463Y77287D01*
X267174Y76960D01*
X266877Y76640D01*
X266572Y76328D01*
X266260Y76023D01*
X265940Y75726D01*
X265613Y75437D01*
X265280Y75156D01*
X264939Y74883D01*
X264592Y74619D01*
X264238Y74363D01*
X263878Y74116D01*
X263512Y73879D01*
X263141Y73650D01*
X262764Y73430D01*
X262381Y73219D01*
X261994Y73018D01*
X261602Y72827D01*
X261205Y72645D01*
X260804Y72473D01*
X260399Y72311D01*
X259990Y72159D01*
X259577Y72017D01*
X259161Y71886D01*
X258742Y71764D01*
X258320Y71653D01*
X257896Y71552D01*
X257469Y71462D01*
X257040Y71382D01*
X256609Y71312D01*
X256176Y71254D01*
X255743Y71206D01*
X255308Y71168D01*
X254872Y71141D01*
X254436Y71125D01*
X254000Y71120D01*
X253564Y71125D01*
X253128Y71141D01*
X252692Y71168D01*
X252257Y71206D01*
X251824Y71254D01*
X251391Y71312D01*
X250960Y71382D01*
X250531Y71462D01*
X250104Y71552D01*
X249680Y71653D01*
X249258Y71764D01*
X248839Y71886D01*
X248423Y72017D01*
X248010Y72159D01*
X247601Y72311D01*
X247196Y72473D01*
X246795Y72645D01*
X246398Y72827D01*
X246006Y73018D01*
X245619Y73219D01*
X245236Y73430D01*
X244859Y73650D01*
X244488Y73879D01*
X244122Y74116D01*
X243762Y74363D01*
X243408Y74619D01*
X243061Y74883D01*
X242720Y75156D01*
X242387Y75437D01*
X242060Y75726D01*
X241740Y76023D01*
X241428Y76328D01*
X241123Y76640D01*
X240826Y76960D01*
X240537Y77287D01*
X240256Y77620D01*
X239983Y77961D01*
X239719Y78308D01*
X239463Y78662D01*
X239216Y79022D01*
X238979Y79388D01*
X238750Y79759D01*
X238530Y80136D01*
X238319Y80519D01*
X238118Y80906D01*
X237927Y81298D01*
X237745Y81695D01*
X237573Y82096D01*
X237411Y82501D01*
X237259Y82910D01*
X237117Y83323D01*
X236986Y83739D01*
X236864Y84158D01*
X236753Y84580D01*
X236652Y85004D01*
X236562Y85431D01*
X236482Y85860D01*
X236412Y86291D01*
X236354Y86724D01*
X236306Y87157D01*
X236268Y87592D01*
X236241Y88028D01*
X236225Y88464D01*
X236220Y88900D01*
X251460Y88900D02*
X251462Y89000D01*
X251468Y89101D01*
X251478Y89200D01*
X251492Y89300D01*
X251509Y89399D01*
X251531Y89497D01*
X251557Y89594D01*
X251586Y89690D01*
X251619Y89784D01*
X251656Y89878D01*
X251696Y89970D01*
X251740Y90060D01*
X251788Y90148D01*
X251839Y90235D01*
X251893Y90319D01*
X251951Y90401D01*
X252012Y90481D01*
X252076Y90558D01*
X252143Y90633D01*
X252213Y90705D01*
X252286Y90774D01*
X252361Y90840D01*
X252439Y90904D01*
X252519Y90964D01*
X252602Y91021D01*
X252687Y91074D01*
X252774Y91124D01*
X252863Y91171D01*
X252953Y91214D01*
X253045Y91254D01*
X253139Y91290D01*
X253234Y91322D01*
X253330Y91350D01*
X253428Y91375D01*
X253526Y91395D01*
X253625Y91412D01*
X253725Y91425D01*
X253824Y91434D01*
X253925Y91439D01*
X254025Y91440D01*
X254125Y91437D01*
X254226Y91430D01*
X254325Y91419D01*
X254425Y91404D01*
X254523Y91386D01*
X254621Y91363D01*
X254718Y91336D01*
X254813Y91306D01*
X254908Y91272D01*
X255001Y91234D01*
X255092Y91193D01*
X255182Y91148D01*
X255270Y91100D01*
X255356Y91048D01*
X255440Y90993D01*
X255521Y90934D01*
X255600Y90872D01*
X255677Y90808D01*
X255751Y90740D01*
X255822Y90669D01*
X255891Y90596D01*
X255956Y90520D01*
X256019Y90441D01*
X256078Y90360D01*
X256134Y90277D01*
X256187Y90192D01*
X256236Y90104D01*
X256282Y90015D01*
X256324Y89924D01*
X256363Y89831D01*
X256398Y89737D01*
X256429Y89642D01*
X256457Y89545D01*
X256480Y89448D01*
X256500Y89349D01*
X256516Y89250D01*
X256528Y89151D01*
X256536Y89050D01*
X256540Y88950D01*
X256540Y88850D01*
X256536Y88750D01*
X256528Y88649D01*
X256516Y88550D01*
X256500Y88451D01*
X256480Y88352D01*
X256457Y88255D01*
X256429Y88158D01*
X256398Y88063D01*
X256363Y87969D01*
X256324Y87876D01*
X256282Y87785D01*
X256236Y87696D01*
X256187Y87608D01*
X256134Y87523D01*
X256078Y87440D01*
X256019Y87359D01*
X255956Y87280D01*
X255891Y87204D01*
X255822Y87131D01*
X255751Y87060D01*
X255677Y86992D01*
X255600Y86928D01*
X255521Y86866D01*
X255440Y86807D01*
X255356Y86752D01*
X255270Y86700D01*
X255182Y86652D01*
X255092Y86607D01*
X255001Y86566D01*
X254908Y86528D01*
X254813Y86494D01*
X254718Y86464D01*
X254621Y86437D01*
X254523Y86414D01*
X254425Y86396D01*
X254325Y86381D01*
X254226Y86370D01*
X254125Y86363D01*
X254025Y86360D01*
X253925Y86361D01*
X253824Y86366D01*
X253725Y86375D01*
X253625Y86388D01*
X253526Y86405D01*
X253428Y86425D01*
X253330Y86450D01*
X253234Y86478D01*
X253139Y86510D01*
X253045Y86546D01*
X252953Y86586D01*
X252863Y86629D01*
X252774Y86676D01*
X252687Y86726D01*
X252602Y86779D01*
X252519Y86836D01*
X252439Y86896D01*
X252361Y86960D01*
X252286Y87026D01*
X252213Y87095D01*
X252143Y87167D01*
X252076Y87242D01*
X252012Y87319D01*
X251951Y87399D01*
X251893Y87481D01*
X251839Y87565D01*
X251788Y87652D01*
X251740Y87740D01*
X251696Y87830D01*
X251656Y87922D01*
X251619Y88016D01*
X251586Y88110D01*
X251557Y88206D01*
X251531Y88303D01*
X251509Y88401D01*
X251492Y88500D01*
X251478Y88600D01*
X251468Y88699D01*
X251462Y88800D01*
X251460Y88900D01*
D13*
X251206Y37465D02*
X251204Y37365D01*
X251198Y37266D01*
X251188Y37166D01*
X251175Y37068D01*
X251157Y36969D01*
X251136Y36872D01*
X251111Y36776D01*
X251082Y36680D01*
X251049Y36586D01*
X251013Y36493D01*
X250973Y36402D01*
X250929Y36312D01*
X250882Y36224D01*
X250832Y36138D01*
X250778Y36054D01*
X250721Y35972D01*
X250661Y35893D01*
X250597Y35815D01*
X250531Y35741D01*
X250462Y35669D01*
X250390Y35600D01*
X250316Y35534D01*
X250238Y35470D01*
X250159Y35410D01*
X250077Y35353D01*
X249993Y35299D01*
X249907Y35249D01*
X249819Y35202D01*
X249729Y35158D01*
X249638Y35118D01*
X249545Y35082D01*
X249451Y35049D01*
X249355Y35020D01*
X249259Y34995D01*
X249162Y34974D01*
X249063Y34956D01*
X248965Y34943D01*
X248865Y34933D01*
X248766Y34927D01*
X248666Y34925D01*
X248525Y34927D01*
X248384Y34932D01*
X248243Y34942D01*
X248102Y34955D01*
X247962Y34971D01*
X247822Y34992D01*
X247683Y35016D01*
X247544Y35044D01*
X247407Y35075D01*
X247270Y35110D01*
X247134Y35148D01*
X246999Y35190D01*
X246866Y35236D01*
X246733Y35285D01*
X246602Y35338D01*
X246473Y35394D01*
X246344Y35453D01*
X246218Y35516D01*
X246093Y35582D01*
X245970Y35651D01*
X245849Y35724D01*
X245730Y35800D01*
X245612Y35879D01*
X245497Y35960D01*
X245385Y36045D01*
X245274Y36133D01*
X245166Y36224D01*
X245060Y36317D01*
X244957Y36414D01*
X244856Y36513D01*
X245174Y43815D02*
X245176Y43915D01*
X245182Y44014D01*
X245192Y44114D01*
X245205Y44212D01*
X245223Y44311D01*
X245244Y44408D01*
X245269Y44504D01*
X245298Y44600D01*
X245331Y44694D01*
X245367Y44787D01*
X245407Y44878D01*
X245451Y44968D01*
X245498Y45056D01*
X245548Y45142D01*
X245602Y45226D01*
X245659Y45308D01*
X245719Y45387D01*
X245783Y45465D01*
X245849Y45539D01*
X245918Y45611D01*
X245990Y45680D01*
X246064Y45746D01*
X246142Y45810D01*
X246221Y45870D01*
X246303Y45927D01*
X246387Y45981D01*
X246473Y46031D01*
X246561Y46078D01*
X246651Y46122D01*
X246742Y46162D01*
X246835Y46198D01*
X246929Y46231D01*
X247025Y46260D01*
X247121Y46285D01*
X247218Y46306D01*
X247317Y46324D01*
X247415Y46337D01*
X247515Y46347D01*
X247614Y46353D01*
X247714Y46355D01*
X247714Y46356D02*
X247847Y46354D01*
X247980Y46349D01*
X248113Y46339D01*
X248246Y46326D01*
X248378Y46309D01*
X248510Y46289D01*
X248641Y46265D01*
X248771Y46237D01*
X248901Y46206D01*
X249029Y46171D01*
X249157Y46132D01*
X249283Y46090D01*
X249408Y46044D01*
X249532Y45995D01*
X249655Y45943D01*
X249776Y45887D01*
X249895Y45827D01*
X250013Y45765D01*
X250128Y45699D01*
X250242Y45630D01*
X250354Y45557D01*
X250464Y45482D01*
X250572Y45403D01*
X246443Y41592D02*
X246359Y41644D01*
X246276Y41699D01*
X246196Y41758D01*
X246118Y41819D01*
X246043Y41883D01*
X245970Y41951D01*
X245899Y42021D01*
X245832Y42093D01*
X245767Y42168D01*
X245705Y42246D01*
X245646Y42326D01*
X245590Y42408D01*
X245538Y42492D01*
X245489Y42578D01*
X245443Y42666D01*
X245400Y42756D01*
X245361Y42847D01*
X245326Y42940D01*
X245294Y43034D01*
X245266Y43129D01*
X245241Y43225D01*
X245221Y43322D01*
X245203Y43420D01*
X245190Y43518D01*
X245181Y43617D01*
X245175Y43716D01*
X245173Y43815D01*
X249936Y39688D02*
X250020Y39636D01*
X250103Y39581D01*
X250183Y39522D01*
X250261Y39461D01*
X250336Y39397D01*
X250409Y39329D01*
X250480Y39259D01*
X250547Y39187D01*
X250612Y39112D01*
X250674Y39034D01*
X250733Y38954D01*
X250789Y38872D01*
X250841Y38788D01*
X250890Y38702D01*
X250936Y38614D01*
X250979Y38524D01*
X251018Y38433D01*
X251053Y38340D01*
X251085Y38246D01*
X251113Y38151D01*
X251138Y38055D01*
X251158Y37958D01*
X251176Y37860D01*
X251189Y37762D01*
X251198Y37663D01*
X251204Y37564D01*
X251206Y37465D01*
X249936Y39688D02*
X246444Y41593D01*
X255905Y34925D02*
X259080Y34925D01*
X259191Y34927D01*
X259301Y34933D01*
X259412Y34942D01*
X259522Y34956D01*
X259631Y34973D01*
X259740Y34994D01*
X259848Y35019D01*
X259955Y35048D01*
X260061Y35080D01*
X260166Y35116D01*
X260269Y35156D01*
X260371Y35199D01*
X260472Y35246D01*
X260571Y35297D01*
X260667Y35350D01*
X260762Y35407D01*
X260855Y35468D01*
X260946Y35531D01*
X261035Y35598D01*
X261121Y35668D01*
X261204Y35741D01*
X261286Y35816D01*
X261364Y35894D01*
X261439Y35976D01*
X261512Y36059D01*
X261582Y36145D01*
X261649Y36234D01*
X261712Y36325D01*
X261773Y36418D01*
X261830Y36512D01*
X261883Y36609D01*
X261934Y36708D01*
X261981Y36809D01*
X262024Y36911D01*
X262064Y37014D01*
X262100Y37119D01*
X262132Y37225D01*
X262161Y37332D01*
X262186Y37440D01*
X262207Y37549D01*
X262224Y37658D01*
X262238Y37768D01*
X262247Y37879D01*
X262253Y37989D01*
X262255Y38100D01*
X262253Y38211D01*
X262247Y38321D01*
X262238Y38432D01*
X262224Y38542D01*
X262207Y38651D01*
X262186Y38760D01*
X262161Y38868D01*
X262132Y38975D01*
X262100Y39081D01*
X262064Y39186D01*
X262024Y39289D01*
X261981Y39391D01*
X261934Y39492D01*
X261883Y39591D01*
X261830Y39687D01*
X261773Y39782D01*
X261712Y39875D01*
X261649Y39966D01*
X261582Y40055D01*
X261512Y40141D01*
X261439Y40224D01*
X261364Y40306D01*
X261286Y40384D01*
X261204Y40459D01*
X261121Y40532D01*
X261035Y40602D01*
X260946Y40669D01*
X260855Y40732D01*
X260762Y40793D01*
X260668Y40850D01*
X260571Y40903D01*
X260472Y40954D01*
X260371Y41001D01*
X260269Y41044D01*
X260166Y41084D01*
X260061Y41120D01*
X259955Y41152D01*
X259848Y41181D01*
X259740Y41206D01*
X259631Y41227D01*
X259522Y41244D01*
X259412Y41258D01*
X259301Y41267D01*
X259191Y41273D01*
X259080Y41275D01*
X259715Y46355D02*
X255905Y46355D01*
X259715Y46355D02*
X259815Y46353D01*
X259914Y46347D01*
X260014Y46337D01*
X260112Y46324D01*
X260211Y46306D01*
X260308Y46285D01*
X260404Y46260D01*
X260500Y46231D01*
X260594Y46198D01*
X260687Y46162D01*
X260778Y46122D01*
X260868Y46078D01*
X260956Y46031D01*
X261042Y45981D01*
X261126Y45927D01*
X261208Y45870D01*
X261287Y45810D01*
X261365Y45746D01*
X261439Y45680D01*
X261511Y45611D01*
X261580Y45539D01*
X261646Y45465D01*
X261710Y45387D01*
X261770Y45308D01*
X261827Y45226D01*
X261881Y45142D01*
X261931Y45056D01*
X261978Y44968D01*
X262022Y44878D01*
X262062Y44787D01*
X262098Y44694D01*
X262131Y44600D01*
X262160Y44504D01*
X262185Y44408D01*
X262206Y44311D01*
X262224Y44212D01*
X262237Y44114D01*
X262247Y44014D01*
X262253Y43915D01*
X262255Y43815D01*
X262253Y43715D01*
X262247Y43616D01*
X262237Y43516D01*
X262224Y43418D01*
X262206Y43319D01*
X262185Y43222D01*
X262160Y43126D01*
X262131Y43030D01*
X262098Y42936D01*
X262062Y42843D01*
X262022Y42752D01*
X261978Y42662D01*
X261931Y42574D01*
X261881Y42488D01*
X261827Y42404D01*
X261770Y42322D01*
X261710Y42243D01*
X261646Y42165D01*
X261580Y42091D01*
X261511Y42019D01*
X261439Y41950D01*
X261365Y41884D01*
X261287Y41820D01*
X261208Y41760D01*
X261126Y41703D01*
X261042Y41649D01*
X260956Y41599D01*
X260868Y41552D01*
X260778Y41508D01*
X260687Y41468D01*
X260594Y41432D01*
X260500Y41399D01*
X260404Y41370D01*
X260308Y41345D01*
X260211Y41324D01*
X260112Y41306D01*
X260014Y41293D01*
X259914Y41283D01*
X259815Y41277D01*
X259715Y41275D01*
X257175Y41275D01*
D11*
X223520Y185420D02*
X220980Y185420D01*
X220980Y170180D01*
X223520Y170180D01*
X284480Y170180D02*
X287020Y170180D01*
X287020Y185420D01*
X284480Y185420D01*
D14*
X266700Y149860D02*
X266700Y147320D01*
X266700Y149860D02*
X241300Y149860D01*
X241300Y147320D01*
X242570Y205740D02*
X266700Y205740D01*
X242570Y205740D02*
X242570Y208280D01*
X266700Y208280D02*
X266700Y205740D01*
D11*
X266700Y208280D02*
X275590Y208280D01*
X241300Y147320D02*
X232410Y147320D01*
X241300Y147320D02*
X266700Y147320D01*
X275590Y147320D01*
X266700Y208280D02*
X242570Y208280D01*
X232410Y208280D01*
X223520Y187960D02*
X223520Y185420D01*
X223520Y170180D02*
X223520Y167640D01*
X284480Y185420D02*
X284480Y187960D01*
X284480Y170180D02*
X284480Y167640D01*
X236220Y177800D02*
X236225Y178236D01*
X236241Y178672D01*
X236268Y179108D01*
X236306Y179543D01*
X236354Y179976D01*
X236412Y180409D01*
X236482Y180840D01*
X236562Y181269D01*
X236652Y181696D01*
X236753Y182120D01*
X236864Y182542D01*
X236986Y182961D01*
X237117Y183377D01*
X237259Y183790D01*
X237411Y184199D01*
X237573Y184604D01*
X237745Y185005D01*
X237927Y185402D01*
X238118Y185794D01*
X238319Y186181D01*
X238530Y186564D01*
X238750Y186941D01*
X238979Y187312D01*
X239216Y187678D01*
X239463Y188038D01*
X239719Y188392D01*
X239983Y188739D01*
X240256Y189080D01*
X240537Y189413D01*
X240826Y189740D01*
X241123Y190060D01*
X241428Y190372D01*
X241740Y190677D01*
X242060Y190974D01*
X242387Y191263D01*
X242720Y191544D01*
X243061Y191817D01*
X243408Y192081D01*
X243762Y192337D01*
X244122Y192584D01*
X244488Y192821D01*
X244859Y193050D01*
X245236Y193270D01*
X245619Y193481D01*
X246006Y193682D01*
X246398Y193873D01*
X246795Y194055D01*
X247196Y194227D01*
X247601Y194389D01*
X248010Y194541D01*
X248423Y194683D01*
X248839Y194814D01*
X249258Y194936D01*
X249680Y195047D01*
X250104Y195148D01*
X250531Y195238D01*
X250960Y195318D01*
X251391Y195388D01*
X251824Y195446D01*
X252257Y195494D01*
X252692Y195532D01*
X253128Y195559D01*
X253564Y195575D01*
X254000Y195580D01*
X254436Y195575D01*
X254872Y195559D01*
X255308Y195532D01*
X255743Y195494D01*
X256176Y195446D01*
X256609Y195388D01*
X257040Y195318D01*
X257469Y195238D01*
X257896Y195148D01*
X258320Y195047D01*
X258742Y194936D01*
X259161Y194814D01*
X259577Y194683D01*
X259990Y194541D01*
X260399Y194389D01*
X260804Y194227D01*
X261205Y194055D01*
X261602Y193873D01*
X261994Y193682D01*
X262381Y193481D01*
X262764Y193270D01*
X263141Y193050D01*
X263512Y192821D01*
X263878Y192584D01*
X264238Y192337D01*
X264592Y192081D01*
X264939Y191817D01*
X265280Y191544D01*
X265613Y191263D01*
X265940Y190974D01*
X266260Y190677D01*
X266572Y190372D01*
X266877Y190060D01*
X267174Y189740D01*
X267463Y189413D01*
X267744Y189080D01*
X268017Y188739D01*
X268281Y188392D01*
X268537Y188038D01*
X268784Y187678D01*
X269021Y187312D01*
X269250Y186941D01*
X269470Y186564D01*
X269681Y186181D01*
X269882Y185794D01*
X270073Y185402D01*
X270255Y185005D01*
X270427Y184604D01*
X270589Y184199D01*
X270741Y183790D01*
X270883Y183377D01*
X271014Y182961D01*
X271136Y182542D01*
X271247Y182120D01*
X271348Y181696D01*
X271438Y181269D01*
X271518Y180840D01*
X271588Y180409D01*
X271646Y179976D01*
X271694Y179543D01*
X271732Y179108D01*
X271759Y178672D01*
X271775Y178236D01*
X271780Y177800D01*
X271775Y177364D01*
X271759Y176928D01*
X271732Y176492D01*
X271694Y176057D01*
X271646Y175624D01*
X271588Y175191D01*
X271518Y174760D01*
X271438Y174331D01*
X271348Y173904D01*
X271247Y173480D01*
X271136Y173058D01*
X271014Y172639D01*
X270883Y172223D01*
X270741Y171810D01*
X270589Y171401D01*
X270427Y170996D01*
X270255Y170595D01*
X270073Y170198D01*
X269882Y169806D01*
X269681Y169419D01*
X269470Y169036D01*
X269250Y168659D01*
X269021Y168288D01*
X268784Y167922D01*
X268537Y167562D01*
X268281Y167208D01*
X268017Y166861D01*
X267744Y166520D01*
X267463Y166187D01*
X267174Y165860D01*
X266877Y165540D01*
X266572Y165228D01*
X266260Y164923D01*
X265940Y164626D01*
X265613Y164337D01*
X265280Y164056D01*
X264939Y163783D01*
X264592Y163519D01*
X264238Y163263D01*
X263878Y163016D01*
X263512Y162779D01*
X263141Y162550D01*
X262764Y162330D01*
X262381Y162119D01*
X261994Y161918D01*
X261602Y161727D01*
X261205Y161545D01*
X260804Y161373D01*
X260399Y161211D01*
X259990Y161059D01*
X259577Y160917D01*
X259161Y160786D01*
X258742Y160664D01*
X258320Y160553D01*
X257896Y160452D01*
X257469Y160362D01*
X257040Y160282D01*
X256609Y160212D01*
X256176Y160154D01*
X255743Y160106D01*
X255308Y160068D01*
X254872Y160041D01*
X254436Y160025D01*
X254000Y160020D01*
X253564Y160025D01*
X253128Y160041D01*
X252692Y160068D01*
X252257Y160106D01*
X251824Y160154D01*
X251391Y160212D01*
X250960Y160282D01*
X250531Y160362D01*
X250104Y160452D01*
X249680Y160553D01*
X249258Y160664D01*
X248839Y160786D01*
X248423Y160917D01*
X248010Y161059D01*
X247601Y161211D01*
X247196Y161373D01*
X246795Y161545D01*
X246398Y161727D01*
X246006Y161918D01*
X245619Y162119D01*
X245236Y162330D01*
X244859Y162550D01*
X244488Y162779D01*
X244122Y163016D01*
X243762Y163263D01*
X243408Y163519D01*
X243061Y163783D01*
X242720Y164056D01*
X242387Y164337D01*
X242060Y164626D01*
X241740Y164923D01*
X241428Y165228D01*
X241123Y165540D01*
X240826Y165860D01*
X240537Y166187D01*
X240256Y166520D01*
X239983Y166861D01*
X239719Y167208D01*
X239463Y167562D01*
X239216Y167922D01*
X238979Y168288D01*
X238750Y168659D01*
X238530Y169036D01*
X238319Y169419D01*
X238118Y169806D01*
X237927Y170198D01*
X237745Y170595D01*
X237573Y170996D01*
X237411Y171401D01*
X237259Y171810D01*
X237117Y172223D01*
X236986Y172639D01*
X236864Y173058D01*
X236753Y173480D01*
X236652Y173904D01*
X236562Y174331D01*
X236482Y174760D01*
X236412Y175191D01*
X236354Y175624D01*
X236306Y176057D01*
X236268Y176492D01*
X236241Y176928D01*
X236225Y177364D01*
X236220Y177800D01*
X251460Y177800D02*
X251462Y177900D01*
X251468Y178001D01*
X251478Y178100D01*
X251492Y178200D01*
X251509Y178299D01*
X251531Y178397D01*
X251557Y178494D01*
X251586Y178590D01*
X251619Y178684D01*
X251656Y178778D01*
X251696Y178870D01*
X251740Y178960D01*
X251788Y179048D01*
X251839Y179135D01*
X251893Y179219D01*
X251951Y179301D01*
X252012Y179381D01*
X252076Y179458D01*
X252143Y179533D01*
X252213Y179605D01*
X252286Y179674D01*
X252361Y179740D01*
X252439Y179804D01*
X252519Y179864D01*
X252602Y179921D01*
X252687Y179974D01*
X252774Y180024D01*
X252863Y180071D01*
X252953Y180114D01*
X253045Y180154D01*
X253139Y180190D01*
X253234Y180222D01*
X253330Y180250D01*
X253428Y180275D01*
X253526Y180295D01*
X253625Y180312D01*
X253725Y180325D01*
X253824Y180334D01*
X253925Y180339D01*
X254025Y180340D01*
X254125Y180337D01*
X254226Y180330D01*
X254325Y180319D01*
X254425Y180304D01*
X254523Y180286D01*
X254621Y180263D01*
X254718Y180236D01*
X254813Y180206D01*
X254908Y180172D01*
X255001Y180134D01*
X255092Y180093D01*
X255182Y180048D01*
X255270Y180000D01*
X255356Y179948D01*
X255440Y179893D01*
X255521Y179834D01*
X255600Y179772D01*
X255677Y179708D01*
X255751Y179640D01*
X255822Y179569D01*
X255891Y179496D01*
X255956Y179420D01*
X256019Y179341D01*
X256078Y179260D01*
X256134Y179177D01*
X256187Y179092D01*
X256236Y179004D01*
X256282Y178915D01*
X256324Y178824D01*
X256363Y178731D01*
X256398Y178637D01*
X256429Y178542D01*
X256457Y178445D01*
X256480Y178348D01*
X256500Y178249D01*
X256516Y178150D01*
X256528Y178051D01*
X256536Y177950D01*
X256540Y177850D01*
X256540Y177750D01*
X256536Y177650D01*
X256528Y177549D01*
X256516Y177450D01*
X256500Y177351D01*
X256480Y177252D01*
X256457Y177155D01*
X256429Y177058D01*
X256398Y176963D01*
X256363Y176869D01*
X256324Y176776D01*
X256282Y176685D01*
X256236Y176596D01*
X256187Y176508D01*
X256134Y176423D01*
X256078Y176340D01*
X256019Y176259D01*
X255956Y176180D01*
X255891Y176104D01*
X255822Y176031D01*
X255751Y175960D01*
X255677Y175892D01*
X255600Y175828D01*
X255521Y175766D01*
X255440Y175707D01*
X255356Y175652D01*
X255270Y175600D01*
X255182Y175552D01*
X255092Y175507D01*
X255001Y175466D01*
X254908Y175428D01*
X254813Y175394D01*
X254718Y175364D01*
X254621Y175337D01*
X254523Y175314D01*
X254425Y175296D01*
X254325Y175281D01*
X254226Y175270D01*
X254125Y175263D01*
X254025Y175260D01*
X253925Y175261D01*
X253824Y175266D01*
X253725Y175275D01*
X253625Y175288D01*
X253526Y175305D01*
X253428Y175325D01*
X253330Y175350D01*
X253234Y175378D01*
X253139Y175410D01*
X253045Y175446D01*
X252953Y175486D01*
X252863Y175529D01*
X252774Y175576D01*
X252687Y175626D01*
X252602Y175679D01*
X252519Y175736D01*
X252439Y175796D01*
X252361Y175860D01*
X252286Y175926D01*
X252213Y175995D01*
X252143Y176067D01*
X252076Y176142D01*
X252012Y176219D01*
X251951Y176299D01*
X251893Y176381D01*
X251839Y176465D01*
X251788Y176552D01*
X251740Y176640D01*
X251696Y176730D01*
X251656Y176822D01*
X251619Y176916D01*
X251586Y177010D01*
X251557Y177106D01*
X251531Y177203D01*
X251509Y177301D01*
X251492Y177400D01*
X251478Y177500D01*
X251468Y177599D01*
X251462Y177700D01*
X251460Y177800D01*
D13*
X251206Y211455D02*
X251306Y211457D01*
X251405Y211463D01*
X251505Y211473D01*
X251603Y211486D01*
X251702Y211504D01*
X251799Y211525D01*
X251895Y211550D01*
X251991Y211579D01*
X252085Y211612D01*
X252178Y211648D01*
X252269Y211688D01*
X252359Y211732D01*
X252447Y211779D01*
X252533Y211829D01*
X252617Y211883D01*
X252699Y211940D01*
X252778Y212000D01*
X252856Y212064D01*
X252930Y212130D01*
X253002Y212199D01*
X253071Y212271D01*
X253137Y212345D01*
X253201Y212423D01*
X253261Y212502D01*
X253318Y212584D01*
X253372Y212668D01*
X253422Y212754D01*
X253469Y212842D01*
X253513Y212932D01*
X253553Y213023D01*
X253589Y213116D01*
X253622Y213210D01*
X253651Y213306D01*
X253676Y213402D01*
X253697Y213499D01*
X253715Y213598D01*
X253728Y213696D01*
X253738Y213796D01*
X253744Y213895D01*
X253746Y213995D01*
X251206Y211455D02*
X251065Y211457D01*
X250924Y211462D01*
X250783Y211472D01*
X250642Y211485D01*
X250502Y211501D01*
X250362Y211522D01*
X250223Y211546D01*
X250084Y211574D01*
X249947Y211605D01*
X249810Y211640D01*
X249674Y211678D01*
X249539Y211720D01*
X249406Y211766D01*
X249273Y211815D01*
X249142Y211868D01*
X249013Y211924D01*
X248884Y211983D01*
X248758Y212046D01*
X248633Y212112D01*
X248510Y212181D01*
X248389Y212254D01*
X248270Y212330D01*
X248152Y212409D01*
X248037Y212490D01*
X247925Y212575D01*
X247814Y212663D01*
X247706Y212754D01*
X247600Y212847D01*
X247497Y212944D01*
X247396Y213043D01*
X247714Y220345D02*
X247716Y220445D01*
X247722Y220544D01*
X247732Y220644D01*
X247745Y220742D01*
X247763Y220841D01*
X247784Y220938D01*
X247809Y221034D01*
X247838Y221130D01*
X247871Y221224D01*
X247907Y221317D01*
X247947Y221408D01*
X247991Y221498D01*
X248038Y221586D01*
X248088Y221672D01*
X248142Y221756D01*
X248199Y221838D01*
X248259Y221917D01*
X248323Y221995D01*
X248389Y222069D01*
X248458Y222141D01*
X248530Y222210D01*
X248604Y222276D01*
X248682Y222340D01*
X248761Y222400D01*
X248843Y222457D01*
X248927Y222511D01*
X249013Y222561D01*
X249101Y222608D01*
X249191Y222652D01*
X249282Y222692D01*
X249375Y222728D01*
X249469Y222761D01*
X249565Y222790D01*
X249661Y222815D01*
X249758Y222836D01*
X249857Y222854D01*
X249955Y222867D01*
X250055Y222877D01*
X250154Y222883D01*
X250254Y222885D01*
X250254Y222886D02*
X250387Y222884D01*
X250520Y222879D01*
X250653Y222869D01*
X250786Y222856D01*
X250918Y222839D01*
X251050Y222819D01*
X251181Y222795D01*
X251311Y222767D01*
X251441Y222736D01*
X251569Y222701D01*
X251697Y222662D01*
X251823Y222620D01*
X251948Y222574D01*
X252072Y222525D01*
X252195Y222473D01*
X252316Y222417D01*
X252435Y222357D01*
X252553Y222295D01*
X252668Y222229D01*
X252782Y222160D01*
X252894Y222087D01*
X253004Y222012D01*
X253112Y221933D01*
X248983Y218122D02*
X248899Y218174D01*
X248816Y218229D01*
X248736Y218288D01*
X248658Y218349D01*
X248583Y218413D01*
X248510Y218481D01*
X248439Y218551D01*
X248372Y218623D01*
X248307Y218698D01*
X248245Y218776D01*
X248186Y218856D01*
X248130Y218938D01*
X248078Y219022D01*
X248029Y219108D01*
X247983Y219196D01*
X247940Y219286D01*
X247901Y219377D01*
X247866Y219470D01*
X247834Y219564D01*
X247806Y219659D01*
X247781Y219755D01*
X247761Y219852D01*
X247743Y219950D01*
X247730Y220048D01*
X247721Y220147D01*
X247715Y220246D01*
X247713Y220345D01*
X252476Y216218D02*
X252560Y216166D01*
X252643Y216111D01*
X252723Y216052D01*
X252801Y215991D01*
X252876Y215927D01*
X252949Y215859D01*
X253020Y215789D01*
X253087Y215717D01*
X253152Y215642D01*
X253214Y215564D01*
X253273Y215484D01*
X253329Y215402D01*
X253381Y215318D01*
X253430Y215232D01*
X253476Y215144D01*
X253519Y215054D01*
X253558Y214963D01*
X253593Y214870D01*
X253625Y214776D01*
X253653Y214681D01*
X253678Y214585D01*
X253698Y214488D01*
X253716Y214390D01*
X253729Y214292D01*
X253738Y214193D01*
X253744Y214094D01*
X253746Y213995D01*
X252476Y216218D02*
X248984Y218123D01*
X258445Y213995D02*
X260985Y222885D01*
X258445Y213995D02*
X264795Y213995D01*
X262890Y216535D02*
X262890Y211455D01*
D11*
X347980Y58420D02*
X347980Y55880D01*
X363220Y55880D01*
X363220Y58420D01*
X363220Y119380D02*
X363220Y121920D01*
X347980Y121920D01*
X347980Y119380D01*
D14*
X383540Y101600D02*
X386080Y101600D01*
X383540Y101600D02*
X383540Y76200D01*
X386080Y76200D01*
X327660Y77470D02*
X327660Y101600D01*
X327660Y77470D02*
X325120Y77470D01*
X325120Y101600D02*
X327660Y101600D01*
D11*
X325120Y101600D02*
X325120Y110490D01*
X386080Y76200D02*
X386080Y67310D01*
X386080Y76200D02*
X386080Y101600D01*
X386080Y110490D01*
X325120Y101600D02*
X325120Y77470D01*
X325120Y67310D01*
X345440Y58420D02*
X347980Y58420D01*
X363220Y58420D02*
X365760Y58420D01*
X347980Y119380D02*
X345440Y119380D01*
X363220Y119380D02*
X365760Y119380D01*
X337820Y88900D02*
X337825Y89336D01*
X337841Y89772D01*
X337868Y90208D01*
X337906Y90643D01*
X337954Y91076D01*
X338012Y91509D01*
X338082Y91940D01*
X338162Y92369D01*
X338252Y92796D01*
X338353Y93220D01*
X338464Y93642D01*
X338586Y94061D01*
X338717Y94477D01*
X338859Y94890D01*
X339011Y95299D01*
X339173Y95704D01*
X339345Y96105D01*
X339527Y96502D01*
X339718Y96894D01*
X339919Y97281D01*
X340130Y97664D01*
X340350Y98041D01*
X340579Y98412D01*
X340816Y98778D01*
X341063Y99138D01*
X341319Y99492D01*
X341583Y99839D01*
X341856Y100180D01*
X342137Y100513D01*
X342426Y100840D01*
X342723Y101160D01*
X343028Y101472D01*
X343340Y101777D01*
X343660Y102074D01*
X343987Y102363D01*
X344320Y102644D01*
X344661Y102917D01*
X345008Y103181D01*
X345362Y103437D01*
X345722Y103684D01*
X346088Y103921D01*
X346459Y104150D01*
X346836Y104370D01*
X347219Y104581D01*
X347606Y104782D01*
X347998Y104973D01*
X348395Y105155D01*
X348796Y105327D01*
X349201Y105489D01*
X349610Y105641D01*
X350023Y105783D01*
X350439Y105914D01*
X350858Y106036D01*
X351280Y106147D01*
X351704Y106248D01*
X352131Y106338D01*
X352560Y106418D01*
X352991Y106488D01*
X353424Y106546D01*
X353857Y106594D01*
X354292Y106632D01*
X354728Y106659D01*
X355164Y106675D01*
X355600Y106680D01*
X356036Y106675D01*
X356472Y106659D01*
X356908Y106632D01*
X357343Y106594D01*
X357776Y106546D01*
X358209Y106488D01*
X358640Y106418D01*
X359069Y106338D01*
X359496Y106248D01*
X359920Y106147D01*
X360342Y106036D01*
X360761Y105914D01*
X361177Y105783D01*
X361590Y105641D01*
X361999Y105489D01*
X362404Y105327D01*
X362805Y105155D01*
X363202Y104973D01*
X363594Y104782D01*
X363981Y104581D01*
X364364Y104370D01*
X364741Y104150D01*
X365112Y103921D01*
X365478Y103684D01*
X365838Y103437D01*
X366192Y103181D01*
X366539Y102917D01*
X366880Y102644D01*
X367213Y102363D01*
X367540Y102074D01*
X367860Y101777D01*
X368172Y101472D01*
X368477Y101160D01*
X368774Y100840D01*
X369063Y100513D01*
X369344Y100180D01*
X369617Y99839D01*
X369881Y99492D01*
X370137Y99138D01*
X370384Y98778D01*
X370621Y98412D01*
X370850Y98041D01*
X371070Y97664D01*
X371281Y97281D01*
X371482Y96894D01*
X371673Y96502D01*
X371855Y96105D01*
X372027Y95704D01*
X372189Y95299D01*
X372341Y94890D01*
X372483Y94477D01*
X372614Y94061D01*
X372736Y93642D01*
X372847Y93220D01*
X372948Y92796D01*
X373038Y92369D01*
X373118Y91940D01*
X373188Y91509D01*
X373246Y91076D01*
X373294Y90643D01*
X373332Y90208D01*
X373359Y89772D01*
X373375Y89336D01*
X373380Y88900D01*
X373375Y88464D01*
X373359Y88028D01*
X373332Y87592D01*
X373294Y87157D01*
X373246Y86724D01*
X373188Y86291D01*
X373118Y85860D01*
X373038Y85431D01*
X372948Y85004D01*
X372847Y84580D01*
X372736Y84158D01*
X372614Y83739D01*
X372483Y83323D01*
X372341Y82910D01*
X372189Y82501D01*
X372027Y82096D01*
X371855Y81695D01*
X371673Y81298D01*
X371482Y80906D01*
X371281Y80519D01*
X371070Y80136D01*
X370850Y79759D01*
X370621Y79388D01*
X370384Y79022D01*
X370137Y78662D01*
X369881Y78308D01*
X369617Y77961D01*
X369344Y77620D01*
X369063Y77287D01*
X368774Y76960D01*
X368477Y76640D01*
X368172Y76328D01*
X367860Y76023D01*
X367540Y75726D01*
X367213Y75437D01*
X366880Y75156D01*
X366539Y74883D01*
X366192Y74619D01*
X365838Y74363D01*
X365478Y74116D01*
X365112Y73879D01*
X364741Y73650D01*
X364364Y73430D01*
X363981Y73219D01*
X363594Y73018D01*
X363202Y72827D01*
X362805Y72645D01*
X362404Y72473D01*
X361999Y72311D01*
X361590Y72159D01*
X361177Y72017D01*
X360761Y71886D01*
X360342Y71764D01*
X359920Y71653D01*
X359496Y71552D01*
X359069Y71462D01*
X358640Y71382D01*
X358209Y71312D01*
X357776Y71254D01*
X357343Y71206D01*
X356908Y71168D01*
X356472Y71141D01*
X356036Y71125D01*
X355600Y71120D01*
X355164Y71125D01*
X354728Y71141D01*
X354292Y71168D01*
X353857Y71206D01*
X353424Y71254D01*
X352991Y71312D01*
X352560Y71382D01*
X352131Y71462D01*
X351704Y71552D01*
X351280Y71653D01*
X350858Y71764D01*
X350439Y71886D01*
X350023Y72017D01*
X349610Y72159D01*
X349201Y72311D01*
X348796Y72473D01*
X348395Y72645D01*
X347998Y72827D01*
X347606Y73018D01*
X347219Y73219D01*
X346836Y73430D01*
X346459Y73650D01*
X346088Y73879D01*
X345722Y74116D01*
X345362Y74363D01*
X345008Y74619D01*
X344661Y74883D01*
X344320Y75156D01*
X343987Y75437D01*
X343660Y75726D01*
X343340Y76023D01*
X343028Y76328D01*
X342723Y76640D01*
X342426Y76960D01*
X342137Y77287D01*
X341856Y77620D01*
X341583Y77961D01*
X341319Y78308D01*
X341063Y78662D01*
X340816Y79022D01*
X340579Y79388D01*
X340350Y79759D01*
X340130Y80136D01*
X339919Y80519D01*
X339718Y80906D01*
X339527Y81298D01*
X339345Y81695D01*
X339173Y82096D01*
X339011Y82501D01*
X338859Y82910D01*
X338717Y83323D01*
X338586Y83739D01*
X338464Y84158D01*
X338353Y84580D01*
X338252Y85004D01*
X338162Y85431D01*
X338082Y85860D01*
X338012Y86291D01*
X337954Y86724D01*
X337906Y87157D01*
X337868Y87592D01*
X337841Y88028D01*
X337825Y88464D01*
X337820Y88900D01*
X353060Y88900D02*
X353062Y89000D01*
X353068Y89101D01*
X353078Y89200D01*
X353092Y89300D01*
X353109Y89399D01*
X353131Y89497D01*
X353157Y89594D01*
X353186Y89690D01*
X353219Y89784D01*
X353256Y89878D01*
X353296Y89970D01*
X353340Y90060D01*
X353388Y90148D01*
X353439Y90235D01*
X353493Y90319D01*
X353551Y90401D01*
X353612Y90481D01*
X353676Y90558D01*
X353743Y90633D01*
X353813Y90705D01*
X353886Y90774D01*
X353961Y90840D01*
X354039Y90904D01*
X354119Y90964D01*
X354202Y91021D01*
X354287Y91074D01*
X354374Y91124D01*
X354463Y91171D01*
X354553Y91214D01*
X354645Y91254D01*
X354739Y91290D01*
X354834Y91322D01*
X354930Y91350D01*
X355028Y91375D01*
X355126Y91395D01*
X355225Y91412D01*
X355325Y91425D01*
X355424Y91434D01*
X355525Y91439D01*
X355625Y91440D01*
X355725Y91437D01*
X355826Y91430D01*
X355925Y91419D01*
X356025Y91404D01*
X356123Y91386D01*
X356221Y91363D01*
X356318Y91336D01*
X356413Y91306D01*
X356508Y91272D01*
X356601Y91234D01*
X356692Y91193D01*
X356782Y91148D01*
X356870Y91100D01*
X356956Y91048D01*
X357040Y90993D01*
X357121Y90934D01*
X357200Y90872D01*
X357277Y90808D01*
X357351Y90740D01*
X357422Y90669D01*
X357491Y90596D01*
X357556Y90520D01*
X357619Y90441D01*
X357678Y90360D01*
X357734Y90277D01*
X357787Y90192D01*
X357836Y90104D01*
X357882Y90015D01*
X357924Y89924D01*
X357963Y89831D01*
X357998Y89737D01*
X358029Y89642D01*
X358057Y89545D01*
X358080Y89448D01*
X358100Y89349D01*
X358116Y89250D01*
X358128Y89151D01*
X358136Y89050D01*
X358140Y88950D01*
X358140Y88850D01*
X358136Y88750D01*
X358128Y88649D01*
X358116Y88550D01*
X358100Y88451D01*
X358080Y88352D01*
X358057Y88255D01*
X358029Y88158D01*
X357998Y88063D01*
X357963Y87969D01*
X357924Y87876D01*
X357882Y87785D01*
X357836Y87696D01*
X357787Y87608D01*
X357734Y87523D01*
X357678Y87440D01*
X357619Y87359D01*
X357556Y87280D01*
X357491Y87204D01*
X357422Y87131D01*
X357351Y87060D01*
X357277Y86992D01*
X357200Y86928D01*
X357121Y86866D01*
X357040Y86807D01*
X356956Y86752D01*
X356870Y86700D01*
X356782Y86652D01*
X356692Y86607D01*
X356601Y86566D01*
X356508Y86528D01*
X356413Y86494D01*
X356318Y86464D01*
X356221Y86437D01*
X356123Y86414D01*
X356025Y86396D01*
X355925Y86381D01*
X355826Y86370D01*
X355725Y86363D01*
X355625Y86360D01*
X355525Y86361D01*
X355424Y86366D01*
X355325Y86375D01*
X355225Y86388D01*
X355126Y86405D01*
X355028Y86425D01*
X354930Y86450D01*
X354834Y86478D01*
X354739Y86510D01*
X354645Y86546D01*
X354553Y86586D01*
X354463Y86629D01*
X354374Y86676D01*
X354287Y86726D01*
X354202Y86779D01*
X354119Y86836D01*
X354039Y86896D01*
X353961Y86960D01*
X353886Y87026D01*
X353813Y87095D01*
X353743Y87167D01*
X353676Y87242D01*
X353612Y87319D01*
X353551Y87399D01*
X353493Y87481D01*
X353439Y87565D01*
X353388Y87652D01*
X353340Y87740D01*
X353296Y87830D01*
X353256Y87922D01*
X353219Y88016D01*
X353186Y88110D01*
X353157Y88206D01*
X353131Y88303D01*
X353109Y88401D01*
X353092Y88500D01*
X353078Y88600D01*
X353068Y88699D01*
X353062Y88800D01*
X353060Y88900D01*
D13*
X353695Y38735D02*
X353693Y38635D01*
X353687Y38536D01*
X353677Y38436D01*
X353664Y38338D01*
X353646Y38239D01*
X353625Y38142D01*
X353600Y38046D01*
X353571Y37950D01*
X353538Y37856D01*
X353502Y37763D01*
X353462Y37672D01*
X353418Y37582D01*
X353371Y37494D01*
X353321Y37408D01*
X353267Y37324D01*
X353210Y37242D01*
X353150Y37163D01*
X353086Y37085D01*
X353020Y37011D01*
X352951Y36939D01*
X352879Y36870D01*
X352805Y36804D01*
X352727Y36740D01*
X352648Y36680D01*
X352566Y36623D01*
X352482Y36569D01*
X352396Y36519D01*
X352308Y36472D01*
X352218Y36428D01*
X352127Y36388D01*
X352034Y36352D01*
X351940Y36319D01*
X351844Y36290D01*
X351748Y36265D01*
X351651Y36244D01*
X351552Y36226D01*
X351454Y36213D01*
X351354Y36203D01*
X351255Y36197D01*
X351155Y36195D01*
X351014Y36197D01*
X350873Y36202D01*
X350732Y36212D01*
X350591Y36225D01*
X350451Y36241D01*
X350311Y36262D01*
X350172Y36286D01*
X350033Y36314D01*
X349896Y36345D01*
X349759Y36380D01*
X349623Y36418D01*
X349488Y36460D01*
X349355Y36506D01*
X349222Y36555D01*
X349091Y36608D01*
X348962Y36664D01*
X348833Y36723D01*
X348707Y36786D01*
X348582Y36852D01*
X348459Y36921D01*
X348338Y36994D01*
X348219Y37070D01*
X348101Y37149D01*
X347986Y37230D01*
X347874Y37315D01*
X347763Y37403D01*
X347655Y37494D01*
X347549Y37587D01*
X347446Y37684D01*
X347345Y37783D01*
X347663Y45085D02*
X347665Y45185D01*
X347671Y45284D01*
X347681Y45384D01*
X347694Y45482D01*
X347712Y45581D01*
X347733Y45678D01*
X347758Y45774D01*
X347787Y45870D01*
X347820Y45964D01*
X347856Y46057D01*
X347896Y46148D01*
X347940Y46238D01*
X347987Y46326D01*
X348037Y46412D01*
X348091Y46496D01*
X348148Y46578D01*
X348208Y46657D01*
X348272Y46735D01*
X348338Y46809D01*
X348407Y46881D01*
X348479Y46950D01*
X348553Y47016D01*
X348631Y47080D01*
X348710Y47140D01*
X348792Y47197D01*
X348876Y47251D01*
X348962Y47301D01*
X349050Y47348D01*
X349140Y47392D01*
X349231Y47432D01*
X349324Y47468D01*
X349418Y47501D01*
X349514Y47530D01*
X349610Y47555D01*
X349707Y47576D01*
X349806Y47594D01*
X349904Y47607D01*
X350004Y47617D01*
X350103Y47623D01*
X350203Y47625D01*
X350203Y47626D02*
X350336Y47624D01*
X350469Y47619D01*
X350602Y47609D01*
X350735Y47596D01*
X350867Y47579D01*
X350999Y47559D01*
X351130Y47535D01*
X351260Y47507D01*
X351390Y47476D01*
X351518Y47441D01*
X351646Y47402D01*
X351772Y47360D01*
X351897Y47314D01*
X352021Y47265D01*
X352144Y47213D01*
X352265Y47157D01*
X352384Y47097D01*
X352502Y47035D01*
X352617Y46969D01*
X352731Y46900D01*
X352843Y46827D01*
X352953Y46752D01*
X353061Y46673D01*
X348932Y42862D02*
X348848Y42914D01*
X348765Y42969D01*
X348685Y43028D01*
X348607Y43089D01*
X348532Y43153D01*
X348459Y43221D01*
X348388Y43291D01*
X348321Y43363D01*
X348256Y43438D01*
X348194Y43516D01*
X348135Y43596D01*
X348079Y43678D01*
X348027Y43762D01*
X347978Y43848D01*
X347932Y43936D01*
X347889Y44026D01*
X347850Y44117D01*
X347815Y44210D01*
X347783Y44304D01*
X347755Y44399D01*
X347730Y44495D01*
X347710Y44592D01*
X347692Y44690D01*
X347679Y44788D01*
X347670Y44887D01*
X347664Y44986D01*
X347662Y45085D01*
X352425Y40958D02*
X352509Y40906D01*
X352592Y40851D01*
X352672Y40792D01*
X352750Y40731D01*
X352825Y40667D01*
X352898Y40599D01*
X352969Y40529D01*
X353036Y40457D01*
X353101Y40382D01*
X353163Y40304D01*
X353222Y40224D01*
X353278Y40142D01*
X353330Y40058D01*
X353379Y39972D01*
X353425Y39884D01*
X353468Y39794D01*
X353507Y39703D01*
X353542Y39610D01*
X353574Y39516D01*
X353602Y39421D01*
X353627Y39325D01*
X353647Y39228D01*
X353665Y39130D01*
X353678Y39032D01*
X353687Y38933D01*
X353693Y38834D01*
X353695Y38735D01*
X352425Y40958D02*
X348933Y42863D01*
X358394Y36195D02*
X362204Y36195D01*
X362304Y36197D01*
X362403Y36203D01*
X362503Y36213D01*
X362601Y36226D01*
X362700Y36244D01*
X362797Y36265D01*
X362893Y36290D01*
X362989Y36319D01*
X363083Y36352D01*
X363176Y36388D01*
X363267Y36428D01*
X363357Y36472D01*
X363445Y36519D01*
X363531Y36569D01*
X363615Y36623D01*
X363697Y36680D01*
X363776Y36740D01*
X363854Y36804D01*
X363928Y36870D01*
X364000Y36939D01*
X364069Y37011D01*
X364135Y37085D01*
X364199Y37163D01*
X364259Y37242D01*
X364316Y37324D01*
X364370Y37408D01*
X364420Y37494D01*
X364467Y37582D01*
X364511Y37672D01*
X364551Y37763D01*
X364587Y37856D01*
X364620Y37950D01*
X364649Y38046D01*
X364674Y38142D01*
X364695Y38239D01*
X364713Y38338D01*
X364726Y38436D01*
X364736Y38536D01*
X364742Y38635D01*
X364744Y38735D01*
X364744Y40005D01*
X364742Y40105D01*
X364736Y40204D01*
X364726Y40304D01*
X364713Y40402D01*
X364695Y40501D01*
X364674Y40598D01*
X364649Y40694D01*
X364620Y40790D01*
X364587Y40884D01*
X364551Y40977D01*
X364511Y41068D01*
X364467Y41158D01*
X364420Y41246D01*
X364370Y41332D01*
X364316Y41416D01*
X364259Y41498D01*
X364199Y41577D01*
X364135Y41655D01*
X364069Y41729D01*
X364000Y41801D01*
X363928Y41870D01*
X363854Y41936D01*
X363776Y42000D01*
X363697Y42060D01*
X363615Y42117D01*
X363531Y42171D01*
X363445Y42221D01*
X363357Y42268D01*
X363267Y42312D01*
X363176Y42352D01*
X363083Y42388D01*
X362989Y42421D01*
X362893Y42450D01*
X362797Y42475D01*
X362700Y42496D01*
X362601Y42514D01*
X362503Y42527D01*
X362403Y42537D01*
X362304Y42543D01*
X362204Y42545D01*
X358394Y42545D01*
X358394Y47625D01*
X364744Y47625D01*
D11*
X386080Y170180D02*
X388620Y170180D01*
X388620Y185420D01*
X386080Y185420D01*
X325120Y185420D02*
X322580Y185420D01*
X322580Y170180D01*
X325120Y170180D01*
D14*
X342900Y205740D02*
X342900Y208280D01*
X342900Y205740D02*
X368300Y205740D01*
X368300Y208280D01*
X367030Y149860D02*
X342900Y149860D01*
X367030Y149860D02*
X367030Y147320D01*
X342900Y147320D02*
X342900Y149860D01*
D11*
X342900Y147320D02*
X334010Y147320D01*
X368300Y208280D02*
X377190Y208280D01*
X368300Y208280D02*
X342900Y208280D01*
X334010Y208280D01*
X342900Y147320D02*
X367030Y147320D01*
X377190Y147320D01*
X386080Y167640D02*
X386080Y170180D01*
X386080Y185420D02*
X386080Y187960D01*
X325120Y170180D02*
X325120Y167640D01*
X325120Y185420D02*
X325120Y187960D01*
X337820Y177800D02*
X337825Y178236D01*
X337841Y178672D01*
X337868Y179108D01*
X337906Y179543D01*
X337954Y179976D01*
X338012Y180409D01*
X338082Y180840D01*
X338162Y181269D01*
X338252Y181696D01*
X338353Y182120D01*
X338464Y182542D01*
X338586Y182961D01*
X338717Y183377D01*
X338859Y183790D01*
X339011Y184199D01*
X339173Y184604D01*
X339345Y185005D01*
X339527Y185402D01*
X339718Y185794D01*
X339919Y186181D01*
X340130Y186564D01*
X340350Y186941D01*
X340579Y187312D01*
X340816Y187678D01*
X341063Y188038D01*
X341319Y188392D01*
X341583Y188739D01*
X341856Y189080D01*
X342137Y189413D01*
X342426Y189740D01*
X342723Y190060D01*
X343028Y190372D01*
X343340Y190677D01*
X343660Y190974D01*
X343987Y191263D01*
X344320Y191544D01*
X344661Y191817D01*
X345008Y192081D01*
X345362Y192337D01*
X345722Y192584D01*
X346088Y192821D01*
X346459Y193050D01*
X346836Y193270D01*
X347219Y193481D01*
X347606Y193682D01*
X347998Y193873D01*
X348395Y194055D01*
X348796Y194227D01*
X349201Y194389D01*
X349610Y194541D01*
X350023Y194683D01*
X350439Y194814D01*
X350858Y194936D01*
X351280Y195047D01*
X351704Y195148D01*
X352131Y195238D01*
X352560Y195318D01*
X352991Y195388D01*
X353424Y195446D01*
X353857Y195494D01*
X354292Y195532D01*
X354728Y195559D01*
X355164Y195575D01*
X355600Y195580D01*
X356036Y195575D01*
X356472Y195559D01*
X356908Y195532D01*
X357343Y195494D01*
X357776Y195446D01*
X358209Y195388D01*
X358640Y195318D01*
X359069Y195238D01*
X359496Y195148D01*
X359920Y195047D01*
X360342Y194936D01*
X360761Y194814D01*
X361177Y194683D01*
X361590Y194541D01*
X361999Y194389D01*
X362404Y194227D01*
X362805Y194055D01*
X363202Y193873D01*
X363594Y193682D01*
X363981Y193481D01*
X364364Y193270D01*
X364741Y193050D01*
X365112Y192821D01*
X365478Y192584D01*
X365838Y192337D01*
X366192Y192081D01*
X366539Y191817D01*
X366880Y191544D01*
X367213Y191263D01*
X367540Y190974D01*
X367860Y190677D01*
X368172Y190372D01*
X368477Y190060D01*
X368774Y189740D01*
X369063Y189413D01*
X369344Y189080D01*
X369617Y188739D01*
X369881Y188392D01*
X370137Y188038D01*
X370384Y187678D01*
X370621Y187312D01*
X370850Y186941D01*
X371070Y186564D01*
X371281Y186181D01*
X371482Y185794D01*
X371673Y185402D01*
X371855Y185005D01*
X372027Y184604D01*
X372189Y184199D01*
X372341Y183790D01*
X372483Y183377D01*
X372614Y182961D01*
X372736Y182542D01*
X372847Y182120D01*
X372948Y181696D01*
X373038Y181269D01*
X373118Y180840D01*
X373188Y180409D01*
X373246Y179976D01*
X373294Y179543D01*
X373332Y179108D01*
X373359Y178672D01*
X373375Y178236D01*
X373380Y177800D01*
X373375Y177364D01*
X373359Y176928D01*
X373332Y176492D01*
X373294Y176057D01*
X373246Y175624D01*
X373188Y175191D01*
X373118Y174760D01*
X373038Y174331D01*
X372948Y173904D01*
X372847Y173480D01*
X372736Y173058D01*
X372614Y172639D01*
X372483Y172223D01*
X372341Y171810D01*
X372189Y171401D01*
X372027Y170996D01*
X371855Y170595D01*
X371673Y170198D01*
X371482Y169806D01*
X371281Y169419D01*
X371070Y169036D01*
X370850Y168659D01*
X370621Y168288D01*
X370384Y167922D01*
X370137Y167562D01*
X369881Y167208D01*
X369617Y166861D01*
X369344Y166520D01*
X369063Y166187D01*
X368774Y165860D01*
X368477Y165540D01*
X368172Y165228D01*
X367860Y164923D01*
X367540Y164626D01*
X367213Y164337D01*
X366880Y164056D01*
X366539Y163783D01*
X366192Y163519D01*
X365838Y163263D01*
X365478Y163016D01*
X365112Y162779D01*
X364741Y162550D01*
X364364Y162330D01*
X363981Y162119D01*
X363594Y161918D01*
X363202Y161727D01*
X362805Y161545D01*
X362404Y161373D01*
X361999Y161211D01*
X361590Y161059D01*
X361177Y160917D01*
X360761Y160786D01*
X360342Y160664D01*
X359920Y160553D01*
X359496Y160452D01*
X359069Y160362D01*
X358640Y160282D01*
X358209Y160212D01*
X357776Y160154D01*
X357343Y160106D01*
X356908Y160068D01*
X356472Y160041D01*
X356036Y160025D01*
X355600Y160020D01*
X355164Y160025D01*
X354728Y160041D01*
X354292Y160068D01*
X353857Y160106D01*
X353424Y160154D01*
X352991Y160212D01*
X352560Y160282D01*
X352131Y160362D01*
X351704Y160452D01*
X351280Y160553D01*
X350858Y160664D01*
X350439Y160786D01*
X350023Y160917D01*
X349610Y161059D01*
X349201Y161211D01*
X348796Y161373D01*
X348395Y161545D01*
X347998Y161727D01*
X347606Y161918D01*
X347219Y162119D01*
X346836Y162330D01*
X346459Y162550D01*
X346088Y162779D01*
X345722Y163016D01*
X345362Y163263D01*
X345008Y163519D01*
X344661Y163783D01*
X344320Y164056D01*
X343987Y164337D01*
X343660Y164626D01*
X343340Y164923D01*
X343028Y165228D01*
X342723Y165540D01*
X342426Y165860D01*
X342137Y166187D01*
X341856Y166520D01*
X341583Y166861D01*
X341319Y167208D01*
X341063Y167562D01*
X340816Y167922D01*
X340579Y168288D01*
X340350Y168659D01*
X340130Y169036D01*
X339919Y169419D01*
X339718Y169806D01*
X339527Y170198D01*
X339345Y170595D01*
X339173Y170996D01*
X339011Y171401D01*
X338859Y171810D01*
X338717Y172223D01*
X338586Y172639D01*
X338464Y173058D01*
X338353Y173480D01*
X338252Y173904D01*
X338162Y174331D01*
X338082Y174760D01*
X338012Y175191D01*
X337954Y175624D01*
X337906Y176057D01*
X337868Y176492D01*
X337841Y176928D01*
X337825Y177364D01*
X337820Y177800D01*
X353060Y177800D02*
X353062Y177900D01*
X353068Y178001D01*
X353078Y178100D01*
X353092Y178200D01*
X353109Y178299D01*
X353131Y178397D01*
X353157Y178494D01*
X353186Y178590D01*
X353219Y178684D01*
X353256Y178778D01*
X353296Y178870D01*
X353340Y178960D01*
X353388Y179048D01*
X353439Y179135D01*
X353493Y179219D01*
X353551Y179301D01*
X353612Y179381D01*
X353676Y179458D01*
X353743Y179533D01*
X353813Y179605D01*
X353886Y179674D01*
X353961Y179740D01*
X354039Y179804D01*
X354119Y179864D01*
X354202Y179921D01*
X354287Y179974D01*
X354374Y180024D01*
X354463Y180071D01*
X354553Y180114D01*
X354645Y180154D01*
X354739Y180190D01*
X354834Y180222D01*
X354930Y180250D01*
X355028Y180275D01*
X355126Y180295D01*
X355225Y180312D01*
X355325Y180325D01*
X355424Y180334D01*
X355525Y180339D01*
X355625Y180340D01*
X355725Y180337D01*
X355826Y180330D01*
X355925Y180319D01*
X356025Y180304D01*
X356123Y180286D01*
X356221Y180263D01*
X356318Y180236D01*
X356413Y180206D01*
X356508Y180172D01*
X356601Y180134D01*
X356692Y180093D01*
X356782Y180048D01*
X356870Y180000D01*
X356956Y179948D01*
X357040Y179893D01*
X357121Y179834D01*
X357200Y179772D01*
X357277Y179708D01*
X357351Y179640D01*
X357422Y179569D01*
X357491Y179496D01*
X357556Y179420D01*
X357619Y179341D01*
X357678Y179260D01*
X357734Y179177D01*
X357787Y179092D01*
X357836Y179004D01*
X357882Y178915D01*
X357924Y178824D01*
X357963Y178731D01*
X357998Y178637D01*
X358029Y178542D01*
X358057Y178445D01*
X358080Y178348D01*
X358100Y178249D01*
X358116Y178150D01*
X358128Y178051D01*
X358136Y177950D01*
X358140Y177850D01*
X358140Y177750D01*
X358136Y177650D01*
X358128Y177549D01*
X358116Y177450D01*
X358100Y177351D01*
X358080Y177252D01*
X358057Y177155D01*
X358029Y177058D01*
X357998Y176963D01*
X357963Y176869D01*
X357924Y176776D01*
X357882Y176685D01*
X357836Y176596D01*
X357787Y176508D01*
X357734Y176423D01*
X357678Y176340D01*
X357619Y176259D01*
X357556Y176180D01*
X357491Y176104D01*
X357422Y176031D01*
X357351Y175960D01*
X357277Y175892D01*
X357200Y175828D01*
X357121Y175766D01*
X357040Y175707D01*
X356956Y175652D01*
X356870Y175600D01*
X356782Y175552D01*
X356692Y175507D01*
X356601Y175466D01*
X356508Y175428D01*
X356413Y175394D01*
X356318Y175364D01*
X356221Y175337D01*
X356123Y175314D01*
X356025Y175296D01*
X355925Y175281D01*
X355826Y175270D01*
X355725Y175263D01*
X355625Y175260D01*
X355525Y175261D01*
X355424Y175266D01*
X355325Y175275D01*
X355225Y175288D01*
X355126Y175305D01*
X355028Y175325D01*
X354930Y175350D01*
X354834Y175378D01*
X354739Y175410D01*
X354645Y175446D01*
X354553Y175486D01*
X354463Y175529D01*
X354374Y175576D01*
X354287Y175626D01*
X354202Y175679D01*
X354119Y175736D01*
X354039Y175796D01*
X353961Y175860D01*
X353886Y175926D01*
X353813Y175995D01*
X353743Y176067D01*
X353676Y176142D01*
X353612Y176219D01*
X353551Y176299D01*
X353493Y176381D01*
X353439Y176465D01*
X353388Y176552D01*
X353340Y176640D01*
X353296Y176730D01*
X353256Y176822D01*
X353219Y176916D01*
X353186Y177010D01*
X353157Y177106D01*
X353131Y177203D01*
X353109Y177301D01*
X353092Y177400D01*
X353078Y177500D01*
X353068Y177599D01*
X353062Y177700D01*
X353060Y177800D01*
D13*
X348615Y212725D02*
X348715Y212727D01*
X348814Y212733D01*
X348914Y212743D01*
X349012Y212756D01*
X349111Y212774D01*
X349208Y212795D01*
X349304Y212820D01*
X349400Y212849D01*
X349494Y212882D01*
X349587Y212918D01*
X349678Y212958D01*
X349768Y213002D01*
X349856Y213049D01*
X349942Y213099D01*
X350026Y213153D01*
X350108Y213210D01*
X350187Y213270D01*
X350265Y213334D01*
X350339Y213400D01*
X350411Y213469D01*
X350480Y213541D01*
X350546Y213615D01*
X350610Y213693D01*
X350670Y213772D01*
X350727Y213854D01*
X350781Y213938D01*
X350831Y214024D01*
X350878Y214112D01*
X350922Y214202D01*
X350962Y214293D01*
X350998Y214386D01*
X351031Y214480D01*
X351060Y214576D01*
X351085Y214672D01*
X351106Y214769D01*
X351124Y214868D01*
X351137Y214966D01*
X351147Y215066D01*
X351153Y215165D01*
X351155Y215265D01*
X348615Y212725D02*
X348474Y212727D01*
X348333Y212732D01*
X348192Y212742D01*
X348051Y212755D01*
X347911Y212771D01*
X347771Y212792D01*
X347632Y212816D01*
X347493Y212844D01*
X347356Y212875D01*
X347219Y212910D01*
X347083Y212948D01*
X346948Y212990D01*
X346815Y213036D01*
X346682Y213085D01*
X346551Y213138D01*
X346422Y213194D01*
X346293Y213253D01*
X346167Y213316D01*
X346042Y213382D01*
X345919Y213451D01*
X345798Y213524D01*
X345679Y213600D01*
X345561Y213679D01*
X345446Y213760D01*
X345334Y213845D01*
X345223Y213933D01*
X345115Y214024D01*
X345009Y214117D01*
X344906Y214214D01*
X344805Y214313D01*
X345123Y221615D02*
X345125Y221715D01*
X345131Y221814D01*
X345141Y221914D01*
X345154Y222012D01*
X345172Y222111D01*
X345193Y222208D01*
X345218Y222304D01*
X345247Y222400D01*
X345280Y222494D01*
X345316Y222587D01*
X345356Y222678D01*
X345400Y222768D01*
X345447Y222856D01*
X345497Y222942D01*
X345551Y223026D01*
X345608Y223108D01*
X345668Y223187D01*
X345732Y223265D01*
X345798Y223339D01*
X345867Y223411D01*
X345939Y223480D01*
X346013Y223546D01*
X346091Y223610D01*
X346170Y223670D01*
X346252Y223727D01*
X346336Y223781D01*
X346422Y223831D01*
X346510Y223878D01*
X346600Y223922D01*
X346691Y223962D01*
X346784Y223998D01*
X346878Y224031D01*
X346974Y224060D01*
X347070Y224085D01*
X347167Y224106D01*
X347266Y224124D01*
X347364Y224137D01*
X347464Y224147D01*
X347563Y224153D01*
X347663Y224155D01*
X347663Y224156D02*
X347796Y224154D01*
X347929Y224149D01*
X348062Y224139D01*
X348195Y224126D01*
X348327Y224109D01*
X348459Y224089D01*
X348590Y224065D01*
X348720Y224037D01*
X348850Y224006D01*
X348978Y223971D01*
X349106Y223932D01*
X349232Y223890D01*
X349357Y223844D01*
X349481Y223795D01*
X349604Y223743D01*
X349725Y223687D01*
X349844Y223627D01*
X349962Y223565D01*
X350077Y223499D01*
X350191Y223430D01*
X350303Y223357D01*
X350413Y223282D01*
X350521Y223203D01*
X346392Y219392D02*
X346308Y219444D01*
X346225Y219499D01*
X346145Y219558D01*
X346067Y219619D01*
X345992Y219683D01*
X345919Y219751D01*
X345848Y219821D01*
X345781Y219893D01*
X345716Y219968D01*
X345654Y220046D01*
X345595Y220126D01*
X345539Y220208D01*
X345487Y220292D01*
X345438Y220378D01*
X345392Y220466D01*
X345349Y220556D01*
X345310Y220647D01*
X345275Y220740D01*
X345243Y220834D01*
X345215Y220929D01*
X345190Y221025D01*
X345170Y221122D01*
X345152Y221220D01*
X345139Y221318D01*
X345130Y221417D01*
X345124Y221516D01*
X345122Y221615D01*
X349885Y217488D02*
X349969Y217436D01*
X350052Y217381D01*
X350132Y217322D01*
X350210Y217261D01*
X350285Y217197D01*
X350358Y217129D01*
X350429Y217059D01*
X350496Y216987D01*
X350561Y216912D01*
X350623Y216834D01*
X350682Y216754D01*
X350738Y216672D01*
X350790Y216588D01*
X350839Y216502D01*
X350885Y216414D01*
X350928Y216324D01*
X350967Y216233D01*
X351002Y216140D01*
X351034Y216046D01*
X351062Y215951D01*
X351087Y215855D01*
X351107Y215758D01*
X351125Y215660D01*
X351138Y215562D01*
X351147Y215463D01*
X351153Y215364D01*
X351155Y215265D01*
X349885Y217488D02*
X346393Y219393D01*
X355854Y219075D02*
X359664Y219075D01*
X359764Y219073D01*
X359863Y219067D01*
X359963Y219057D01*
X360061Y219044D01*
X360160Y219026D01*
X360257Y219005D01*
X360353Y218980D01*
X360449Y218951D01*
X360543Y218918D01*
X360636Y218882D01*
X360727Y218842D01*
X360817Y218798D01*
X360905Y218751D01*
X360991Y218701D01*
X361075Y218647D01*
X361157Y218590D01*
X361236Y218530D01*
X361314Y218466D01*
X361388Y218400D01*
X361460Y218331D01*
X361529Y218259D01*
X361595Y218185D01*
X361659Y218107D01*
X361719Y218028D01*
X361776Y217946D01*
X361830Y217862D01*
X361880Y217776D01*
X361927Y217688D01*
X361971Y217598D01*
X362011Y217507D01*
X362047Y217414D01*
X362080Y217320D01*
X362109Y217224D01*
X362134Y217128D01*
X362155Y217031D01*
X362173Y216932D01*
X362186Y216834D01*
X362196Y216734D01*
X362202Y216635D01*
X362204Y216535D01*
X362204Y215900D01*
X362202Y215789D01*
X362196Y215679D01*
X362187Y215568D01*
X362173Y215458D01*
X362156Y215349D01*
X362135Y215240D01*
X362110Y215132D01*
X362081Y215025D01*
X362049Y214919D01*
X362013Y214814D01*
X361973Y214711D01*
X361930Y214609D01*
X361883Y214508D01*
X361832Y214409D01*
X361779Y214312D01*
X361722Y214218D01*
X361661Y214125D01*
X361598Y214034D01*
X361531Y213945D01*
X361461Y213859D01*
X361388Y213776D01*
X361313Y213694D01*
X361235Y213616D01*
X361153Y213541D01*
X361070Y213468D01*
X360984Y213398D01*
X360895Y213331D01*
X360804Y213268D01*
X360711Y213207D01*
X360616Y213150D01*
X360520Y213097D01*
X360421Y213046D01*
X360320Y212999D01*
X360218Y212956D01*
X360115Y212916D01*
X360010Y212880D01*
X359904Y212848D01*
X359797Y212819D01*
X359689Y212794D01*
X359580Y212773D01*
X359471Y212756D01*
X359361Y212742D01*
X359250Y212733D01*
X359140Y212727D01*
X359029Y212725D01*
X358918Y212727D01*
X358808Y212733D01*
X358697Y212742D01*
X358587Y212756D01*
X358478Y212773D01*
X358369Y212794D01*
X358261Y212819D01*
X358154Y212848D01*
X358048Y212880D01*
X357943Y212916D01*
X357840Y212956D01*
X357738Y212999D01*
X357637Y213046D01*
X357538Y213097D01*
X357442Y213150D01*
X357347Y213207D01*
X357254Y213268D01*
X357163Y213331D01*
X357074Y213398D01*
X356988Y213468D01*
X356905Y213541D01*
X356823Y213616D01*
X356745Y213694D01*
X356670Y213776D01*
X356597Y213859D01*
X356527Y213945D01*
X356460Y214034D01*
X356397Y214125D01*
X356336Y214218D01*
X356279Y214313D01*
X356226Y214409D01*
X356175Y214508D01*
X356128Y214609D01*
X356085Y214711D01*
X356045Y214814D01*
X356009Y214919D01*
X355977Y215025D01*
X355948Y215132D01*
X355923Y215240D01*
X355902Y215349D01*
X355885Y215458D01*
X355871Y215568D01*
X355862Y215679D01*
X355856Y215789D01*
X355854Y215900D01*
X355854Y219075D01*
X355856Y219215D01*
X355862Y219355D01*
X355871Y219495D01*
X355885Y219634D01*
X355902Y219773D01*
X355923Y219911D01*
X355948Y220049D01*
X355977Y220186D01*
X356009Y220322D01*
X356046Y220457D01*
X356086Y220591D01*
X356129Y220724D01*
X356177Y220856D01*
X356227Y220987D01*
X356282Y221116D01*
X356340Y221243D01*
X356401Y221369D01*
X356466Y221493D01*
X356535Y221615D01*
X356606Y221735D01*
X356681Y221853D01*
X356759Y221970D01*
X356841Y222084D01*
X356925Y222195D01*
X357013Y222304D01*
X357103Y222411D01*
X357197Y222516D01*
X357293Y222617D01*
X357392Y222716D01*
X357493Y222812D01*
X357598Y222906D01*
X357705Y222996D01*
X357814Y223084D01*
X357925Y223168D01*
X358039Y223250D01*
X358156Y223328D01*
X358274Y223403D01*
X358394Y223474D01*
X358516Y223543D01*
X358640Y223608D01*
X358766Y223669D01*
X358893Y223727D01*
X359022Y223782D01*
X359153Y223832D01*
X359285Y223880D01*
X359418Y223923D01*
X359552Y223963D01*
X359687Y224000D01*
X359823Y224032D01*
X359960Y224061D01*
X360098Y224086D01*
X360236Y224107D01*
X360375Y224124D01*
X360514Y224138D01*
X360654Y224147D01*
X360794Y224153D01*
X360934Y224155D01*
D11*
X88900Y381000D02*
X88900Y406400D01*
X88900Y381000D02*
X111760Y381000D01*
X114300Y383540D01*
X116840Y381000D01*
X137160Y381000D01*
X139700Y383540D01*
X142240Y381000D01*
X162560Y381000D01*
X165100Y383540D01*
X167640Y381000D01*
X187960Y381000D01*
X190500Y383540D01*
X193040Y381000D01*
X215900Y381000D01*
X215900Y406400D01*
X193040Y406400D01*
X190500Y403860D01*
X187960Y406400D01*
X167640Y406400D01*
X165100Y403860D01*
X162560Y406400D01*
X142240Y406400D01*
X139700Y403860D01*
X137160Y406400D01*
X116840Y406400D01*
X114300Y403860D01*
X111760Y406400D01*
X88900Y406400D01*
D13*
X81280Y399415D02*
X78105Y396875D01*
X81280Y399415D02*
X81280Y387985D01*
X78105Y387985D02*
X84455Y387985D01*
X219075Y387985D02*
X222885Y387985D01*
X222985Y387987D01*
X223084Y387993D01*
X223184Y388003D01*
X223282Y388016D01*
X223381Y388034D01*
X223478Y388055D01*
X223574Y388080D01*
X223670Y388109D01*
X223764Y388142D01*
X223857Y388178D01*
X223948Y388218D01*
X224038Y388262D01*
X224126Y388309D01*
X224212Y388359D01*
X224296Y388413D01*
X224378Y388470D01*
X224457Y388530D01*
X224535Y388594D01*
X224609Y388660D01*
X224681Y388729D01*
X224750Y388801D01*
X224816Y388875D01*
X224880Y388953D01*
X224940Y389032D01*
X224997Y389114D01*
X225051Y389198D01*
X225101Y389284D01*
X225148Y389372D01*
X225192Y389462D01*
X225232Y389553D01*
X225268Y389646D01*
X225301Y389740D01*
X225330Y389836D01*
X225355Y389932D01*
X225376Y390029D01*
X225394Y390128D01*
X225407Y390226D01*
X225417Y390326D01*
X225423Y390425D01*
X225425Y390525D01*
X225425Y391795D01*
X225423Y391895D01*
X225417Y391994D01*
X225407Y392094D01*
X225394Y392192D01*
X225376Y392291D01*
X225355Y392388D01*
X225330Y392484D01*
X225301Y392580D01*
X225268Y392674D01*
X225232Y392767D01*
X225192Y392858D01*
X225148Y392948D01*
X225101Y393036D01*
X225051Y393122D01*
X224997Y393206D01*
X224940Y393288D01*
X224880Y393367D01*
X224816Y393445D01*
X224750Y393519D01*
X224681Y393591D01*
X224609Y393660D01*
X224535Y393726D01*
X224457Y393790D01*
X224378Y393850D01*
X224296Y393907D01*
X224212Y393961D01*
X224126Y394011D01*
X224038Y394058D01*
X223948Y394102D01*
X223857Y394142D01*
X223764Y394178D01*
X223670Y394211D01*
X223574Y394240D01*
X223478Y394265D01*
X223381Y394286D01*
X223282Y394304D01*
X223184Y394317D01*
X223084Y394327D01*
X222985Y394333D01*
X222885Y394335D01*
X219075Y394335D01*
X219075Y399415D01*
X225425Y399415D01*
X95885Y413385D02*
X95883Y413285D01*
X95877Y413186D01*
X95867Y413086D01*
X95854Y412988D01*
X95836Y412889D01*
X95815Y412792D01*
X95790Y412696D01*
X95761Y412600D01*
X95728Y412506D01*
X95692Y412413D01*
X95652Y412322D01*
X95608Y412232D01*
X95561Y412144D01*
X95511Y412058D01*
X95457Y411974D01*
X95400Y411892D01*
X95340Y411813D01*
X95276Y411735D01*
X95210Y411661D01*
X95141Y411589D01*
X95069Y411520D01*
X94995Y411454D01*
X94917Y411390D01*
X94838Y411330D01*
X94756Y411273D01*
X94672Y411219D01*
X94586Y411169D01*
X94498Y411122D01*
X94408Y411078D01*
X94317Y411038D01*
X94224Y411002D01*
X94130Y410969D01*
X94034Y410940D01*
X93938Y410915D01*
X93841Y410894D01*
X93742Y410876D01*
X93644Y410863D01*
X93544Y410853D01*
X93445Y410847D01*
X93345Y410845D01*
X93204Y410847D01*
X93063Y410852D01*
X92922Y410862D01*
X92781Y410875D01*
X92641Y410891D01*
X92501Y410912D01*
X92362Y410936D01*
X92223Y410964D01*
X92086Y410995D01*
X91949Y411030D01*
X91813Y411068D01*
X91678Y411110D01*
X91545Y411156D01*
X91412Y411205D01*
X91281Y411258D01*
X91152Y411314D01*
X91023Y411373D01*
X90897Y411436D01*
X90772Y411502D01*
X90649Y411571D01*
X90528Y411644D01*
X90409Y411720D01*
X90291Y411799D01*
X90176Y411880D01*
X90064Y411965D01*
X89953Y412053D01*
X89845Y412144D01*
X89739Y412237D01*
X89636Y412334D01*
X89535Y412433D01*
X89853Y419735D02*
X89855Y419835D01*
X89861Y419934D01*
X89871Y420034D01*
X89884Y420132D01*
X89902Y420231D01*
X89923Y420328D01*
X89948Y420424D01*
X89977Y420520D01*
X90010Y420614D01*
X90046Y420707D01*
X90086Y420798D01*
X90130Y420888D01*
X90177Y420976D01*
X90227Y421062D01*
X90281Y421146D01*
X90338Y421228D01*
X90398Y421307D01*
X90462Y421385D01*
X90528Y421459D01*
X90597Y421531D01*
X90669Y421600D01*
X90743Y421666D01*
X90821Y421730D01*
X90900Y421790D01*
X90982Y421847D01*
X91066Y421901D01*
X91152Y421951D01*
X91240Y421998D01*
X91330Y422042D01*
X91421Y422082D01*
X91514Y422118D01*
X91608Y422151D01*
X91704Y422180D01*
X91800Y422205D01*
X91897Y422226D01*
X91996Y422244D01*
X92094Y422257D01*
X92194Y422267D01*
X92293Y422273D01*
X92393Y422275D01*
X92393Y422276D02*
X92526Y422274D01*
X92659Y422269D01*
X92792Y422259D01*
X92925Y422246D01*
X93057Y422229D01*
X93189Y422209D01*
X93320Y422185D01*
X93450Y422157D01*
X93580Y422126D01*
X93708Y422091D01*
X93836Y422052D01*
X93962Y422010D01*
X94087Y421964D01*
X94211Y421915D01*
X94334Y421863D01*
X94455Y421807D01*
X94574Y421747D01*
X94692Y421685D01*
X94807Y421619D01*
X94921Y421550D01*
X95033Y421477D01*
X95143Y421402D01*
X95251Y421323D01*
X91122Y417512D02*
X91038Y417564D01*
X90955Y417619D01*
X90875Y417678D01*
X90797Y417739D01*
X90722Y417803D01*
X90649Y417871D01*
X90578Y417941D01*
X90511Y418013D01*
X90446Y418088D01*
X90384Y418166D01*
X90325Y418246D01*
X90269Y418328D01*
X90217Y418412D01*
X90168Y418498D01*
X90122Y418586D01*
X90079Y418676D01*
X90040Y418767D01*
X90005Y418860D01*
X89973Y418954D01*
X89945Y419049D01*
X89920Y419145D01*
X89900Y419242D01*
X89882Y419340D01*
X89869Y419438D01*
X89860Y419537D01*
X89854Y419636D01*
X89852Y419735D01*
X94615Y415608D02*
X94699Y415556D01*
X94782Y415501D01*
X94862Y415442D01*
X94940Y415381D01*
X95015Y415317D01*
X95088Y415249D01*
X95159Y415179D01*
X95226Y415107D01*
X95291Y415032D01*
X95353Y414954D01*
X95412Y414874D01*
X95468Y414792D01*
X95520Y414708D01*
X95569Y414622D01*
X95615Y414534D01*
X95658Y414444D01*
X95697Y414353D01*
X95732Y414260D01*
X95764Y414166D01*
X95792Y414071D01*
X95817Y413975D01*
X95837Y413878D01*
X95855Y413780D01*
X95868Y413682D01*
X95877Y413583D01*
X95883Y413484D01*
X95885Y413385D01*
X94615Y415608D02*
X91123Y417513D01*
X99949Y422275D02*
X103759Y410845D01*
X107569Y422275D01*
X112014Y419735D02*
X115189Y422275D01*
X115189Y410845D01*
X112014Y410845D02*
X118364Y410845D01*
M02*
