G04 EAGLE Gerber RS-274X export*
G75*
%MOMM*%
%FSLAX34Y34*%
%LPD*%
%INSoldermask Bottom*%
%IPPOS*%
%AMOC8*
5,1,8,0,0,1.08239X$1,22.5*%
G01*
%ADD10C,3.403600*%
%ADD11P,1.649562X8X112.500000*%
%ADD12P,1.924489X8X112.500000*%
%ADD13C,1.778000*%
%ADD14C,1.524000*%
%ADD15C,1.727200*%
%ADD16C,5.203200*%


D10*
X38100Y393700D03*
X38100Y0D03*
X393700Y0D03*
X393700Y393700D03*
D11*
X266700Y292100D03*
X266700Y317500D03*
D12*
X266700Y393700D03*
D13*
X266700Y368300D03*
D14*
X228600Y349504D02*
X228600Y336296D01*
X203200Y336296D02*
X203200Y349504D01*
X76200Y349504D02*
X76200Y336296D01*
X50800Y336296D02*
X50800Y349504D01*
X177800Y349504D02*
X177800Y336296D01*
X152400Y336296D02*
X152400Y349504D01*
X101600Y349504D02*
X101600Y336296D01*
X127000Y336296D02*
X127000Y349504D01*
X50800Y273304D02*
X50800Y260096D01*
X76200Y260096D02*
X76200Y273304D01*
X101600Y273304D02*
X101600Y260096D01*
X127000Y260096D02*
X127000Y273304D01*
X152400Y273304D02*
X152400Y260096D01*
X177800Y260096D02*
X177800Y273304D01*
X203200Y273304D02*
X203200Y260096D01*
X228600Y260096D02*
X228600Y273304D01*
D11*
X63500Y152400D03*
X63500Y228600D03*
X101600Y152400D03*
X101600Y228600D03*
X139700Y152400D03*
X139700Y228600D03*
X177800Y152400D03*
X177800Y228600D03*
X330200Y254000D03*
X330200Y330200D03*
X368300Y254000D03*
X368300Y330200D03*
D15*
X98806Y129032D02*
X98806Y113792D01*
X53594Y113792D02*
X53594Y129032D01*
X98806Y64008D02*
X98806Y48768D01*
X53594Y48768D02*
X53594Y64008D01*
X175006Y113792D02*
X175006Y129032D01*
X129794Y129032D02*
X129794Y113792D01*
X175006Y64008D02*
X175006Y48768D01*
X129794Y48768D02*
X129794Y64008D01*
X231394Y64008D02*
X231394Y48768D01*
X276606Y48768D02*
X276606Y64008D01*
X231394Y113792D02*
X231394Y129032D01*
X276606Y129032D02*
X276606Y113792D01*
X278892Y155194D02*
X294132Y155194D01*
X294132Y200406D02*
X278892Y200406D01*
X229108Y155194D02*
X213868Y155194D01*
X213868Y200406D02*
X229108Y200406D01*
X378206Y129032D02*
X378206Y113792D01*
X332994Y113792D02*
X332994Y129032D01*
X378206Y64008D02*
X378206Y48768D01*
X332994Y48768D02*
X332994Y64008D01*
X330708Y200406D02*
X315468Y200406D01*
X315468Y155194D02*
X330708Y155194D01*
X380492Y200406D02*
X395732Y200406D01*
X395732Y155194D02*
X380492Y155194D01*
D14*
X101600Y387096D02*
X101600Y400304D01*
X127000Y400304D02*
X127000Y387096D01*
X152400Y387096D02*
X152400Y400304D01*
X177800Y400304D02*
X177800Y387096D01*
X203200Y387096D02*
X203200Y400304D01*
D16*
X38100Y393700D03*
X393700Y393700D03*
X393700Y0D03*
X38100Y0D03*
X393700Y393700D03*
M02*
