M48
;GenerationSoftware,Autodesk,EAGLE,9.6.2*%
;CreationDate,2020-06-14T03:01:54Z*%
FMAT,2
ICI,OFF
METRIC,TZ,000.000
T5C0.813
T4C1.016
T3C3.200
T2C3.200
%
G90
M71
T2
X39370Y39370
X39370Y0
X3810Y0
X3810Y39370
T3
X39370Y39370
X3810Y39370
X39370Y39370
X3810Y0
X39370Y0
T4
X28651Y20041
X37821Y5639
X28651Y15519
X27661Y12141
X23139Y12141
X27661Y5639
X23139Y5639
X12979Y5639
X17501Y5639
X12979Y12141
X17501Y12141
X5359Y5639
X9881Y5639
X5359Y12141
X9881Y12141
X22149Y15519
X22149Y20041
X37821Y12141
X33299Y12141
X33299Y5639
X32309Y20041
X32309Y15519
X38811Y20041
X38811Y15519
T5
X20320Y39370
X10160Y39370
X12700Y39370
X15240Y39370
X17780Y39370
X36830Y33020
X12700Y26670
X26670Y29210
X26670Y31750
X26670Y39370
X26670Y36830
X22860Y34290
X20320Y34290
X7620Y34290
X5080Y34290
X17780Y34290
X15240Y34290
X10160Y34290
X12700Y34290
X5080Y26670
X7620Y26670
X10160Y26670
X36830Y25400
X15240Y26670
X17780Y26670
X20320Y26670
X22860Y26670
X6350Y15240
X6350Y22860
X10160Y15240
X10160Y22860
X13970Y15240
X13970Y22860
X17780Y15240
X17780Y22860
X33020Y25400
X33020Y33020
M30